<?xml version="1.0" encoding="utf-8"?>
<!-- Generator: Adobe Illustrator 16.0.0, SVG Export Plug-In . SVG Version: 6.00 Build 0)  -->
<!DOCTYPE svg PUBLIC "-//W3C//DTD SVG 1.1//EN" "http://www.w3.org/Graphics/SVG/1.1/DTD/svg11.dtd" [
	<!ENTITY ns_extend "http://ns.adobe.com/Extensibility/1.0/">
	<!ENTITY ns_ai "http://ns.adobe.com/AdobeIllustrator/10.0/">
	<!ENTITY ns_graphs "http://ns.adobe.com/Graphs/1.0/">
	<!ENTITY ns_vars "http://ns.adobe.com/Variables/1.0/">
	<!ENTITY ns_imrep "http://ns.adobe.com/ImageReplacement/1.0/">
	<!ENTITY ns_sfw "http://ns.adobe.com/SaveForWeb/1.0/">
	<!ENTITY ns_custom "http://ns.adobe.com/GenericCustomNamespace/1.0/">
	<!ENTITY ns_adobe_xpath "http://ns.adobe.com/XPath/1.0/">
]>
<svg version="1.1" id="Layer_1" xmlns:x="&ns_extend;" xmlns:i="&ns_ai;" xmlns:graph="&ns_graphs;"
	 xmlns="http://www.w3.org/2000/svg" xmlns:xlink="http://www.w3.org/1999/xlink" x="0px" y="0px" width="118.449px"
	 height="67.731px" viewBox="0 0 118.449 67.731" enable-background="new 0 0 118.449 67.731" xml:space="preserve">
<metadata>
	<sfw  xmlns="&ns_sfw;">
		<slices></slices>
		<sliceSourceBounds  x="-35.05" y="-92.871" bottomLeftOrigin="true" height="127.683" width="186.72"></sliceSourceBounds>
	</sfw>
</metadata>
<g>
	<g>
		
			<image overflow="visible" width="609" height="436" xlink:href="A71D8EB98DDAFB92.png"  transform="matrix(0.24 0 0 0.24 -15.1978 -11.7686)">
		</image>
	</g>
	<g>
		<g>
			
				<image overflow="visible" width="778" height="423" xlink:href="A71D8EB98DDAFB96.png"  transform="matrix(0.24 0 0 0.24 -35.0498 -34.812)">
			</image>
		</g>
		<g>
			<ellipse opacity="0.45" fill="#FFFFFF" cx="102.459" cy="42.608" rx="8.994" ry="3.576"/>
			<g>
				<path fill="#FFFFFF" d="M101.594,29.544l-6.072,4.424c0,0,1.559,5.336,4.669,7.945c0,0,7.268,2.73,9.854,1.58l2.006-6.413
					C112.051,37.08,105.646,29.769,101.594,29.544z"/>
				<polygon fill="#FFFFFF" points="96.824,24.999 97.154,24.435 110.123,30.22 118.449,41.165 118.047,41.679 103.632,36.014 				
					"/>
				<polygon fill="#FFFFFF" points="97.222,24.479 110.516,29.701 118.442,41.162 104.025,35.495 				"/>
				<path fill="#FFFFFF" d="M112.927,43.112c0,0-3.283,0.609-3.007,3.88l0.581-0.374l-0.328,0.865l0.794-0.561l-0.105,0.469
					C110.861,47.391,113.742,46.385,112.927,43.112z"/>
				<path fill="#FFFFFF" d="M108.574,32.514c0,0,5.621,6.727,6.021,7.065c0.134,0.222,0.07,0.327-0.062,0.601
					c-0.464,0.945-1.813,2.593-1.984,3.094l0.356,0.225c0,0,1.512-2.012,2.17-3.052c0.178-0.279,0.243-0.515,0.188-0.676
					c-0.221-0.644-6.442-7.701-6.442-7.701L108.574,32.514z"/>
				
					<ellipse transform="matrix(0.8176 0.5758 -0.5758 0.8176 38.359 -56.4874)" fill="#FFFFFF" cx="108.331" cy="32.297" rx="0.987" ry="0.509"/>
			</g>
		</g>
		<g>
			<path fill="#FFFFFF" d="M33.138,13.422h5.407c-0.019-0.917-0.245-1.622-0.679-2.114c-0.434-0.497-1.039-0.743-1.833-0.743
				c-0.778,0-1.424,0.251-1.931,0.748C33.59,11.816,33.269,12.515,33.138,13.422L33.138,13.422z M67.346,1.05l-0.469,4.356h4.59
				l3.18-4.356H67.346L67.346,1.05z M106.171,10.993c-0.985,0-1.74,0.453-2.276,1.363c-0.532,0.908-0.799,2.194-0.799,3.849
				c0,1.03,0.192,1.792,0.574,2.296c0.379,0.495,0.965,0.747,1.763,0.747c0.925,0,1.659-0.458,2.206-1.369
				c0.547-0.916,0.822-2.144,0.822-3.684c0-1.064-0.191-1.868-0.571-2.4C107.51,11.26,106.938,10.993,106.171,10.993L106.171,10.993
				z M98.424,10.486c0.297-0.435,0.641-0.843,1.027-1.222c1.709-1.675,3.996-2.512,6.861-2.512c2.577,0,4.616,0.68,6.119,2.035
				c1.502,1.354,2.252,3.202,2.252,5.527c0,2.895-0.828,5.167-2.488,6.812c-1.66,1.647-3.951,2.468-6.863,2.468
				c-2.6,0-4.654-0.685-6.174-2.052c-0.906-0.828-1.543-1.826-1.906-2.999l-0.652,4.49h-6.059l0.406-2.797
				c-0.426,0.624-0.935,1.167-1.529,1.624c-1.474,1.139-3.384,1.705-5.729,1.705c-2.586,0-4.63-0.676-6.133-2.02
				c-0.729-0.655-1.28-1.419-1.657-2.296c-0.369,0.698-0.832,1.324-1.392,1.877c-1.66,1.647-3.952,2.468-6.864,2.468
				c-2.601,0-4.654-0.685-6.172-2.052c-0.92-0.837-1.561-1.85-1.922-3.041l-0.377,2.787c-0.213,1.548-0.498,2.788-0.852,3.724
				c-0.355,0.932-0.833,1.691-1.43,2.276c-0.729,0.714-1.665,1.246-2.809,1.597c-1.137,0.348-2.507,0.527-4.103,0.527
				c-2.32,0-4.138-0.399-5.447-1.198c-1.317-0.798-2.001-1.924-2.061-3.379h5.948c0.097,0.355,0.295,0.626,0.591,0.802
				c0.3,0.179,0.699,0.267,1.196,0.267c0.944,0,1.645-0.35,2.104-1.054c0.458-0.7,0.773-1.936,0.944-3.704
				c-0.606,0.586-1.246,1.025-1.919,1.309c-0.671,0.291-1.41,0.433-2.208,0.433c-1.941,0-3.448-0.595-4.517-1.782
				c-0.481-0.533-0.853-1.163-1.117-1.889c-0.553,1.28-1.444,2.294-2.681,3.042c-1.468,0.891-3.315,1.335-5.542,1.335
				c-2.635,0-4.719-0.665-6.246-2c-0.157-0.135-0.306-0.274-0.446-0.422l-1.258,8.241H18.65l-6.947-15.274
				c-0.123-0.293-0.239-0.725-0.347-1.29c-0.116-0.565-0.206-1.199-0.273-1.909v0.797c0,0.499-0.013,0.955-0.041,1.372
				c-0.028,0.423-0.068,0.81-0.116,1.171L8.704,29.413H0L4.41,0H13l6.829,15.016c0.239,0.546,0.422,1.104,0.552,1.678
				c0.124,0.573,0.205,1.171,0.226,1.799c0-0.683,0.02-1.315,0.054-1.909c0.034-0.593,0.083-1.124,0.15-1.59L23.067,0h8.745
				l-1.258,8.238c1.467-0.97,3.254-1.457,5.365-1.457c2.765,0,4.868,0.701,6.312,2.099c0.738,0.718,1.286,1.602,1.646,2.65
				c0.326-0.756,0.745-1.45,1.257-2.084c1.413-1.758,3.195-2.635,5.348-2.635c1.128,0,2.099,0.216,2.913,0.65
				c0.812,0.433,1.517,1.108,2.113,2.035l0.299-2.153h5.258l-0.452,3.327c0.328-0.506,0.711-0.974,1.15-1.406
				c1.711-1.675,3.994-2.512,6.861-2.512c2.578,0,4.617,0.68,6.119,2.035c0.75,0.676,1.312,1.474,1.688,2.394
				c0.365-0.673,0.819-1.285,1.361-1.838c1.66-1.689,3.877-2.531,6.646-2.531c2.512,0,4.478,0.566,5.897,1.705
				c0.933,0.747,1.569,1.688,1.905,2.824l0.582-3.997h6.059L98.424,10.486L98.424,10.486z M92.964,5.593h6.12l0.59-4.337h-6.061
				L92.964,5.593L92.964,5.593z M91.425,16.944l0.538-3.695h-5.273c-0.021-0.714-0.219-1.261-0.593-1.639
				c-0.374-0.379-0.911-0.572-1.6-0.572c-0.962,0-1.714,0.458-2.263,1.369c-0.541,0.916-0.811,2.183-0.811,3.798
				c0,1.03,0.195,1.803,0.589,2.326c0.396,0.518,0.981,0.778,1.763,0.778c0.651,0,1.214-0.216,1.671-0.651
				c0.462-0.432,0.76-1.003,0.881-1.714H91.425L91.425,16.944z M68.48,10.993c-0.984,0-1.738,0.453-2.275,1.363
				c-0.531,0.908-0.797,2.194-0.797,3.849c0,1.03,0.191,1.792,0.571,2.296c0.378,0.495,0.965,0.747,1.763,0.747
				c0.926,0,1.661-0.458,2.207-1.369c0.547-0.916,0.822-2.144,0.822-3.684c0-1.064-0.191-1.868-0.57-2.4
				C69.82,11.26,69.25,10.993,68.48,10.993L68.48,10.993z M51.841,11.388c-0.858,0-1.538,0.384-2.04,1.152
				c-0.507,0.774-0.759,1.817-0.759,3.132c0,0.849,0.213,1.514,0.641,1.998c0.428,0.477,1.02,0.719,1.769,0.719
				c0.921,0,1.646-0.365,2.167-1.099c0.527-0.73,0.788-1.739,0.788-3.03c0-0.931-0.221-1.646-0.665-2.138
				C53.303,11.634,52.669,11.388,51.841,11.388L51.841,11.388z M43.265,18.456c-0.145-0.591-0.228-1.233-0.25-1.931h-10.14v0.276
				c0,0.951,0.231,1.676,0.696,2.178c0.457,0.497,1.131,0.748,2.019,0.748c0.596,0,1.094-0.106,1.499-0.329
				c0.403-0.223,0.674-0.539,0.807-0.942H43.265z"/>
			<path fill-rule="evenodd" clip-rule="evenodd" fill="#FFFFFF" d="M49.923,33.172h5.41c-0.019-0.917-0.246-1.62-0.68-2.114
				c-0.433-0.497-1.038-0.745-1.832-0.745c-0.778,0-1.423,0.252-1.932,0.751C50.378,31.566,50.058,32.265,49.923,33.172
				L49.923,33.172z M39.959,43.579h8.974c-0.648,3.744-2.245,6.68-4.794,8.789c-2.549,2.119-5.736,3.175-9.57,3.175
				c-4.423,0-7.906-1.261-10.442-3.769c-2.538-2.509-3.802-5.953-3.802-10.32c0-2.17,0.358-4.26,1.083-6.276
				c0.717-2.008,1.751-3.801,3.096-5.356c1.455-1.676,3.18-2.947,5.182-3.815c1.748-0.754,3.664-1.18,5.748-1.277h1.901
				c3.549,0.156,6.348,1.164,8.407,3.03c0.285,0.259,0.556,0.534,0.81,0.823c1.598-1.366,3.65-2.051,6.155-2.051
				c2.763,0,4.867,0.701,6.311,2.099c1.002,0.976,1.658,2.258,1.96,3.846l0.764-5.382h5.557l-0.33,2.265
				c1.137-1.716,2.354-2.711,4.398-2.738l0.27-1.891l5.865-1.687l-0.346,4.05h2.395l-0.258,1.762c1.688-1.57,3.92-2.353,6.694-2.353
				c2.576,0,4.616,0.679,6.118,2.033c1.502,1.356,2.251,3.204,2.251,5.528c0,2.896-0.826,5.167-2.486,6.814
				c-1.661,1.644-3.952,2.466-6.862,2.466c-2.113,0-3.867-0.451-5.264-1.355c-1.768,0.657-5.59,2.459-8.952,0.047
				c-0.829-0.596-1.198-1.531-1.198-2.686c0-0.211,0.015-0.463,0.044-0.744c0.031-0.285,0.069-0.616,0.128-0.99l0.721-5.028
				c-0.248-0.023-0.428-0.036-0.531-0.036c-1.121,0-1.941,0.302-2.469,0.896c-0.528,0.596-0.908,1.705-1.139,3.331l-0.853,6.005
				H59.52l0.452-3.189c-0.555,0.988-1.344,1.793-2.372,2.416c-1.468,0.894-3.316,1.334-5.542,1.334
				c-2.635,0-4.719-0.664-6.247-1.998c-1.371-1.193-2.127-2.766-2.271-4.719l-2.729-0.008c-0.041-1.494-0.452-2.651-1.238-3.482
				c-0.785-0.831-1.873-1.251-3.26-1.251c-2.021,0-3.658,0.927-4.902,2.786c-1.251,1.853-1.874,4.293-1.874,7.318
				c0,2.062,0.399,3.617,1.197,4.666c0.798,1.049,1.981,1.575,3.538,1.575c1.332,0,2.495-0.404,3.475-1.211
				C38.734,46.215,39.473,45.065,39.959,43.579L39.959,43.579z M85.846,30.743c-0.987,0-1.74,0.452-2.276,1.364
				c-0.532,0.905-0.798,2.192-0.798,3.846c0,1.03,0.191,1.793,0.57,2.297c0.379,0.498,0.966,0.748,1.764,0.748
				c0.926,0,1.66-0.457,2.207-1.369c0.547-0.916,0.824-2.145,0.824-3.684c0-1.066-0.193-1.868-0.572-2.4
				C87.186,31.009,86.615,30.743,85.846,30.743L85.846,30.743z M76.562,35.722c0-2.005,0.441-3.723,1.318-5.152h-1.232l-0.877,6.065
				c-0.01,0.047-0.02,0.104-0.025,0.166c-0.005,0.059-0.005,0.153-0.005,0.281c0,0.425,0.134,0.723,0.394,0.905
				c0.182,0.124,0.439,0.206,0.773,0.248C76.679,37.472,76.562,36.635,76.562,35.722L76.562,35.722z M60.168,38.206l0.273-1.931
				H49.663v0.276c0,0.949,0.232,1.674,0.695,2.177c0.458,0.497,1.133,0.749,2.02,0.749c0.596,0,1.094-0.109,1.498-0.33
				c0.403-0.222,0.674-0.538,0.808-0.941H60.168z"/>
			<g>
				<path fill="#FFFFFF" d="M71.871,64.946h1.479c0.012,0.33,0.105,0.571,0.281,0.727c0.176,0.152,0.445,0.23,0.811,0.23
					c0.304,0,0.547-0.061,0.732-0.186c0.187-0.125,0.277-0.287,0.277-0.485c0-0.239-0.32-0.505-0.963-0.792
					c-0.234-0.104-0.414-0.186-0.548-0.25c-0.488-0.233-0.843-0.492-1.066-0.775c-0.221-0.279-0.331-0.611-0.331-0.999
					c0-0.559,0.203-1.009,0.611-1.341c0.409-0.335,0.965-0.502,1.666-0.502c0.793,0,1.4,0.169,1.822,0.506
					c0.422,0.336,0.65,0.83,0.681,1.48h-1.441v-0.018c0-0.27-0.083-0.473-0.253-0.613c-0.172-0.141-0.421-0.208-0.748-0.208
					c-0.27,0-0.483,0.056-0.645,0.168c-0.162,0.112-0.245,0.259-0.245,0.436c0,0.223,0.304,0.47,0.907,0.741
					c0.229,0.104,0.408,0.186,0.541,0.25c0.535,0.256,0.915,0.524,1.138,0.798c0.222,0.28,0.333,0.612,0.333,1.005
					c0,0.616-0.217,1.102-0.656,1.455s-1.039,0.531-1.803,0.531c-0.802,0-1.424-0.188-1.865-0.557
					C72.143,66.176,71.906,65.642,71.871,64.946L71.871,64.946z M76.795,66.93h4.451l0.268-1.24h-2.889l0.285-1.361h2.509
					l0.259-1.225h-2.51l0.242-1.135h2.732l0.258-1.244h-4.287L76.795,66.93L76.795,66.93z M81.643,66.93l1.311-6.205h2.494
					c0.646,0,1.133,0.135,1.469,0.396c0.33,0.267,0.498,0.654,0.498,1.168c0,0.365-0.098,0.678-0.291,0.938
					c-0.192,0.261-0.47,0.442-0.829,0.552c0.242,0.102,0.428,0.26,0.56,0.471c0.133,0.211,0.199,0.465,0.199,0.757
					c0,0.29-0.061,0.561-0.18,0.812c-0.116,0.256-0.282,0.467-0.495,0.637c-0.213,0.172-0.478,0.293-0.794,0.367
					c-0.316,0.072-0.771,0.107-1.363,0.107H81.643L81.643,66.93z M83.965,63.104h0.699c0.447,0,0.76-0.055,0.938-0.162
					c0.176-0.111,0.265-0.291,0.265-0.545c0-0.181-0.055-0.312-0.166-0.391c-0.111-0.082-0.293-0.12-0.549-0.12h-0.346h-0.586
					L83.965,63.104L83.965,63.104z M83.41,65.72h0.701c0.508,0,0.87-0.065,1.082-0.198c0.215-0.135,0.322-0.351,0.322-0.652
					c0-0.214-0.062-0.375-0.188-0.484c-0.124-0.106-0.313-0.163-0.563-0.163h-0.43h-0.605L83.41,65.72L83.41,65.72z M87.034,66.93
					h1.54l0.502-2.344h0.734c0.367,0,0.621,0.047,0.764,0.145c0.141,0.097,0.213,0.264,0.213,0.504c0,0.104-0.018,0.29-0.05,0.555
					c-0.032,0.263-0.05,0.474-0.05,0.633c0,0.107,0.006,0.198,0.016,0.277c0.012,0.081,0.025,0.158,0.045,0.23h1.763v-0.224
					c-0.093-0.05-0.161-0.11-0.198-0.177c-0.039-0.068-0.061-0.163-0.061-0.279c0-0.102,0.012-0.289,0.039-0.561
					c0.025-0.272,0.038-0.498,0.038-0.667c0-0.228-0.04-0.403-0.123-0.54c-0.081-0.138-0.221-0.255-0.411-0.357
					c0.414-0.145,0.729-0.359,0.936-0.646c0.209-0.289,0.314-0.641,0.314-1.059c0-0.578-0.199-1.003-0.598-1.281
					c-0.396-0.273-1.014-0.414-1.85-0.414H88.36L87.034,66.93L87.034,66.93z M89.338,63.368l0.308-1.465h0.88
					c0.373,0,0.634,0.043,0.777,0.135c0.145,0.088,0.217,0.238,0.217,0.448c0,0.308-0.096,0.53-0.284,0.671
					c-0.19,0.141-0.495,0.211-0.919,0.211H89.338L89.338,63.368z M96.164,64.593l-0.361-2.411l-1.068,2.411H96.164L96.164,64.593z
					 M92.032,66.93l3.105-6.205h1.72l1.26,6.205h-1.606l-0.173-1.076h-2.182l-0.457,1.076H92.032L92.032,66.93z M97.82,66.93h4.451
					l0.269-1.24h-2.89l0.287-1.361h2.506l0.26-1.225h-2.51l0.242-1.135h2.735l0.255-1.244H99.14L97.82,66.93L97.82,66.93z
					 M103.141,67.731h-0.688l2.068-7.166h0.691L103.141,67.731L103.141,67.731z M104.537,64.946c0.033,0.696,0.271,1.23,0.715,1.602
					c0.441,0.369,1.062,0.557,1.861,0.557c0.764,0,1.365-0.178,1.804-0.531c0.44-0.354,0.658-0.839,0.658-1.455
					c0-0.393-0.109-0.725-0.334-1.005c-0.222-0.273-0.601-0.542-1.138-0.798c-0.133-0.064-0.312-0.146-0.541-0.25
					c-0.604-0.271-0.907-0.519-0.907-0.741c0-0.177,0.083-0.323,0.245-0.436s0.377-0.168,0.644-0.168
					c0.329,0,0.579,0.067,0.747,0.208c0.17,0.141,0.256,0.344,0.256,0.613v0.018h1.441c-0.03-0.65-0.26-1.145-0.68-1.48
					c-0.424-0.337-1.031-0.506-1.822-0.506c-0.703,0-1.258,0.167-1.668,0.502c-0.408,0.332-0.611,0.782-0.611,1.341
					c0,0.388,0.11,0.72,0.332,0.999c0.222,0.283,0.578,0.542,1.066,0.775c0.133,0.064,0.314,0.146,0.546,0.25
					c0.642,0.287,0.966,0.553,0.966,0.792c0,0.198-0.093,0.36-0.277,0.485c-0.184,0.125-0.43,0.186-0.734,0.186
					c-0.365,0-0.635-0.078-0.811-0.23c-0.175-0.155-0.27-0.396-0.279-0.727H104.537L104.537,64.946z M113.766,64.817h1.509
					c-0.116,0.678-0.447,1.229-0.993,1.66c-0.546,0.428-1.19,0.644-1.932,0.644c-0.798,0-1.432-0.251-1.898-0.756
					c-0.472-0.505-0.705-1.181-0.705-2.029c0-0.496,0.084-0.979,0.25-1.444c0.17-0.467,0.404-0.881,0.715-1.236
					c0.307-0.357,0.663-0.628,1.077-0.816c0.411-0.186,0.851-0.281,1.321-0.281c0.734,0,1.326,0.205,1.773,0.613
					s0.674,0.951,0.682,1.629h-1.512c-0.014-0.32-0.1-0.562-0.264-0.725c-0.163-0.164-0.395-0.248-0.698-0.248
					c-0.256,0-0.498,0.067-0.728,0.205c-0.229,0.137-0.422,0.33-0.573,0.576c-0.156,0.248-0.28,0.533-0.372,0.861
					c-0.093,0.324-0.139,0.637-0.139,0.928c0,0.441,0.109,0.787,0.324,1.042c0.221,0.255,0.517,0.38,0.895,0.38
					c0.3,0,0.556-0.085,0.771-0.252C113.484,65.395,113.65,65.143,113.766,64.817z"/>
			</g>
			<g>
				<path fill="#FFFFFF" d="M52.138,51.645h1.418l-1.024,4.898c-0.084,0.348-0.087,0.637-0.005,0.869
					c0.082,0.232,0.276,0.35,0.586,0.35c0.563,0,0.92-0.406,1.072-1.219l1.023-4.898h1.415l-1.022,4.898
					c-0.308,1.507-1.21,2.261-2.705,2.261c-0.249,0-0.47-0.017-0.664-0.054c-0.194-0.036-0.383-0.104-0.57-0.201
					c-0.187-0.099-0.326-0.23-0.417-0.396c-0.092-0.168-0.161-0.386-0.202-0.651c-0.042-0.266-0.018-0.585,0.074-0.958
					L52.138,51.645z"/>
				<path fill="#FFFFFF" d="M57.618,51.645h1.633l0.707,4.811h0.02l1.003-4.811h1.298l-1.456,7.021H59.21l-0.718-4.917h-0.02
					l-1.013,4.917h-1.297L57.618,51.645z"/>
				<path fill="#FFFFFF" d="M63.391,58.666h-1.418l1.457-7.021h1.417L63.391,58.666z"/>
				<path fill="#FFFFFF" d="M65.535,51.645h1.514l-0.088,5.191h0.029l2.125-5.191h1.464l-3.067,7.021h-1.82L65.535,51.645z"/>
				<path fill="#FFFFFF" d="M71.199,51.645h3.924l-0.246,1.16h-2.508l-0.344,1.652h2.361l-0.236,1.161h-2.361l-0.394,1.888h2.606
					l-0.236,1.159h-4.021L71.199,51.645z"/>
				<path fill="#FFFFFF" d="M74.572,58.666l1.455-7.021h2.617c0.596,0,1.023,0.152,1.283,0.457c0.259,0.305,0.33,0.756,0.213,1.354
					c-0.205,0.99-0.717,1.566-1.535,1.73v0.018c0.451,0.061,0.719,0.247,0.801,0.563c0.082,0.313,0.041,0.841-0.124,1.581
					C79.204,57.716,79.168,58,79.17,58.2c0.004,0.202,0.061,0.336,0.172,0.41l-0.01,0.056h-1.533
					c-0.078-0.142-0.09-0.389-0.03-0.737l0.245-1.345c0.093-0.591-0.127-0.886-0.658-0.886h-0.758l-0.609,2.968H74.572z
					 M77.228,52.688l-0.422,2.025h0.59c0.708,0,1.134-0.352,1.278-1.052c0.137-0.649-0.123-0.974-0.777-0.974H77.228z"/>
				<path fill="#FFFFFF" d="M80.316,56.475h1.416l-0.049,0.205c-0.034,0.186-0.05,0.334-0.05,0.451c0,0.421,0.255,0.631,0.769,0.631
					c0.235,0,0.451-0.072,0.643-0.222c0.193-0.146,0.32-0.361,0.379-0.644c0.065-0.309,0.023-0.545-0.123-0.709
					c-0.147-0.164-0.444-0.328-0.89-0.49c-0.609-0.218-1.024-0.482-1.244-0.802c-0.22-0.318-0.269-0.759-0.152-1.322
					c0.138-0.676,0.433-1.189,0.89-1.54c0.455-0.352,1.028-0.527,1.717-0.527c0.669,0,1.164,0.154,1.484,0.459
					c0.321,0.305,0.42,0.78,0.296,1.43l-0.04,0.197h-1.357c0.151-0.694-0.031-1.043-0.551-1.043c-0.551,0-0.875,0.273-0.972,0.818
					c-0.062,0.229-0.054,0.416,0.017,0.557c0.074,0.147,0.24,0.277,0.502,0.396l0.995,0.471c0.472,0.23,0.774,0.484,0.905,0.764
					c0.131,0.278,0.146,0.643,0.049,1.095c-0.295,1.437-1.256,2.154-2.883,2.154c-0.78,0-1.313-0.173-1.599-0.521
					c-0.284-0.346-0.354-0.855-0.21-1.525L80.316,56.475z"/>
				<path fill="#FFFFFF" d="M86.827,58.666h-1.416l1.455-7.021h1.415L86.827,58.666z"/>
				<path fill="#FFFFFF" d="M89.059,51.645h4.484l-0.246,1.16h-1.533l-1.209,5.86h-1.416l1.209-5.86h-1.533L89.059,51.645z"/>
				<path fill="#FFFFFF" d="M91.764,58.666l3.314-7.021h1.751l0.403,7.021h-1.477l-0.018-1.483h-1.87l-0.63,1.483H91.764z
					 M95.688,52.864l-1.338,3.158h1.379l-0.021-3.158H95.688z M95.453,51.231l0.825-1.416h1.356l-1.258,1.416H95.453z"/>
				<path fill="#FFFFFF" d="M97.823,58.666l1.455-7.021h2.616c0.595,0,1.025,0.152,1.283,0.457c0.26,0.305,0.328,0.756,0.211,1.354
					c-0.203,0.99-0.715,1.566-1.533,1.73v0.018c0.451,0.061,0.719,0.247,0.801,0.563c0.082,0.313,0.04,0.841-0.123,1.581
					c-0.078,0.368-0.115,0.652-0.113,0.852c0.005,0.202,0.061,0.336,0.173,0.41l-0.01,0.056h-1.535
					c-0.078-0.142-0.088-0.389-0.028-0.737l0.246-1.345c0.09-0.591-0.129-0.886-0.66-0.886h-0.758l-0.609,2.968H97.823z
					 M100.479,52.688l-0.425,2.025h0.59c0.711,0,1.135-0.352,1.279-1.052c0.137-0.649-0.121-0.974-0.776-0.974H100.479z"/>
				<path fill="#FFFFFF" d="M104.873,58.666h-1.414l1.455-7.021h1.416L104.873,58.666z"/>
				<path fill="#FFFFFF" d="M106.605,55.155c0.104-0.477,0.205-0.881,0.299-1.208c0.098-0.329,0.226-0.657,0.391-0.989
					c0.162-0.33,0.35-0.595,0.561-0.793c0.209-0.195,0.473-0.354,0.791-0.475c0.316-0.121,0.686-0.184,1.105-0.184
					c0.414,0,0.754,0.062,1.023,0.184c0.268,0.12,0.469,0.279,0.602,0.475c0.131,0.198,0.209,0.463,0.24,0.793
					c0.029,0.332,0.022,0.662-0.021,0.995c-0.041,0.329-0.112,0.731-0.21,1.202c-0.105,0.48-0.206,0.885-0.301,1.211
					c-0.095,0.328-0.224,0.657-0.388,0.989c-0.166,0.331-0.352,0.594-0.562,0.79c-0.21,0.198-0.474,0.355-0.791,0.479
					c-0.319,0.121-0.687,0.181-1.106,0.181c-0.414,0-0.755-0.06-1.022-0.181c-0.27-0.123-0.47-0.28-0.601-0.479
					c-0.131-0.196-0.213-0.459-0.24-0.79c-0.031-0.332-0.023-0.661,0.018-0.993C106.438,56.029,106.506,55.629,106.605,55.155z
					 M108.021,55.155c-0.217,0.945-0.299,1.615-0.246,2.012c0.051,0.397,0.277,0.596,0.678,0.596s0.699-0.186,0.901-0.555
					c0.2-0.371,0.404-1.056,0.614-2.053c0.216-0.936,0.299-1.605,0.246-2.005c-0.053-0.401-0.279-0.601-0.679-0.601
					c-0.405,0-0.708,0.186-0.904,0.557C108.436,53.475,108.23,54.159,108.021,55.155z"/>
				<path fill="#FFFFFF" d="M111.77,56.475h1.415l-0.049,0.205c-0.034,0.186-0.05,0.334-0.05,0.451c0,0.421,0.256,0.631,0.768,0.631
					c0.235,0,0.451-0.072,0.646-0.222c0.192-0.146,0.319-0.361,0.377-0.644c0.066-0.309,0.024-0.545-0.124-0.709
					c-0.146-0.164-0.441-0.328-0.889-0.49c-0.609-0.218-1.024-0.482-1.245-0.802c-0.22-0.318-0.269-0.759-0.151-1.322
					c0.137-0.676,0.434-1.189,0.89-1.54c0.456-0.352,1.028-0.527,1.718-0.527c0.668,0,1.162,0.154,1.484,0.459
					c0.32,0.305,0.419,0.78,0.293,1.43l-0.039,0.197h-1.355c0.15-0.694-0.033-1.043-0.549-1.043c-0.553,0-0.877,0.273-0.976,0.818
					c-0.06,0.229-0.053,0.416,0.019,0.557c0.072,0.147,0.24,0.277,0.502,0.396l0.994,0.471c0.473,0.23,0.773,0.484,0.904,0.764
					c0.131,0.278,0.146,0.643,0.049,1.095c-0.295,1.437-1.255,2.154-2.882,2.154c-0.78,0-1.312-0.173-1.597-0.521
					c-0.285-0.346-0.357-0.855-0.213-1.525L111.77,56.475z"/>
			</g>
		</g>
	</g>
</g>
</svg>
