<?xml version="1.0" encoding="utf-8"?>
<!-- Generator: Adobe Illustrator 16.0.0, SVG Export Plug-In . SVG Version: 6.00 Build 0)  -->
<!DOCTYPE svg PUBLIC "-//W3C//DTD SVG 1.1//EN" "http://www.w3.org/Graphics/SVG/1.1/DTD/svg11.dtd" [
	<!ENTITY ns_extend "http://ns.adobe.com/Extensibility/1.0/">
	<!ENTITY ns_ai "http://ns.adobe.com/AdobeIllustrator/10.0/">
	<!ENTITY ns_graphs "http://ns.adobe.com/Graphs/1.0/">
	<!ENTITY ns_vars "http://ns.adobe.com/Variables/1.0/">
	<!ENTITY ns_imrep "http://ns.adobe.com/ImageReplacement/1.0/">
	<!ENTITY ns_sfw "http://ns.adobe.com/SaveForWeb/1.0/">
	<!ENTITY ns_custom "http://ns.adobe.com/GenericCustomNamespace/1.0/">
	<!ENTITY ns_adobe_xpath "http://ns.adobe.com/XPath/1.0/">
]>
<svg version="1.1" id="Layer_1" xmlns:x="&ns_extend;" xmlns:i="&ns_ai;" xmlns:graph="&ns_graphs;"
	 xmlns="http://www.w3.org/2000/svg" xmlns:xlink="http://www.w3.org/1999/xlink" x="0px" y="0px" width="264.878px"
	 height="59.639px" viewBox="0 0 264.878 59.639" enable-background="new 0 0 264.878 59.639" xml:space="preserve">
<metadata>
	<sfw  xmlns="&ns_sfw;">
		<slices></slices>
		<sliceSourceBounds  height="59.639" width="264.878" bottomLeftOrigin="true" y="-59.639" x="0"></sliceSourceBounds>
		<optimizationSettings>
			<targetSettings  fileFormat="PNG24Format" targetSettingsID="0">
				<PNG24Format  transparency="true" interlaced="false" noMatteColor="false" matteColor="#FFFFFF" filtered="false">
					</PNG24Format>
			</targetSettings>
		</optimizationSettings>
	</sfw>
</metadata>
<g>
	<path fill-rule="evenodd" clip-rule="evenodd" fill="#FFFFFF" d="M109.406,40.749l4.585-21.577h16.241l-0.868,4.137h-10.309
		l-0.959,4.494h9.709l-0.898,4.137h-9.709l-0.959,4.614h10.549l-0.9,4.195H109.406z M93.259,32.418h5.874l-0.868-9.08h-0.09
		L93.259,32.418z M82.622,40.749l13.125-21.636h7.311l3.957,21.636h-6.771l-0.57-4.346h-8.66l-2.396,4.346H82.622z M72.458,23.099
		l-1.107,5.305h2.246c1.278,0,2.117-0.061,2.518-0.181c1.139-0.339,1.838-1.158,2.097-2.457c0.062-0.279,0.091-0.53,0.091-0.75
		c0-0.839-0.4-1.398-1.199-1.678c-0.479-0.159-1.279-0.239-2.397-0.239H72.458z M62.689,40.749l4.585-21.636h10.009
		c1.718,0,2.854,0.04,3.415,0.119c1.359,0.199,2.328,0.681,2.908,1.439c0.539,0.68,0.809,1.527,0.809,2.546
		c0,0.52-0.061,1.07-0.18,1.649c-0.399,1.857-1.348,3.196-2.846,4.015c-0.98,0.54-2.158,0.909-3.537,1.108l-0.029,0.119
		c1.557,0.041,2.615,0.351,3.176,0.931c0.479,0.479,0.719,1.288,0.719,2.427c0,0.381-0.03,1.029-0.09,1.948
		c-0.18,2.677-0.221,4.455-0.119,5.334h-6.502c-0.041-0.8,0.068-2.428,0.328-4.886c0.08-0.858,0.119-1.447,0.119-1.767
		c0-0.659-0.163-1.124-0.494-1.394c-0.328-0.271-0.973-0.405-1.933-0.405h-2.517l-1.798,8.451H62.689z M48.694,31.669l-1.077,5.124
		h3.325c2.058,0,3.267-0.839,3.626-2.518c0.06-0.26,0.09-0.499,0.09-0.719c0-1.259-0.939-1.888-2.816-1.888H48.694z M50.524,23.039
		l-1.021,4.793h2.817c1.058,0,1.778-0.088,2.156-0.268c0.84-0.42,1.359-1.12,1.559-2.098c0.181-0.839,0.041-1.479-0.419-1.919
		c-0.359-0.34-0.969-0.509-1.827-0.509H50.524z M40.934,40.749l4.585-21.636h8.661c1.837,0,3.166,0.069,3.985,0.21
		c1.379,0.259,2.427,0.779,3.146,1.559c0.659,0.719,0.989,1.589,0.989,2.606c0,0.359-0.041,0.729-0.119,1.109
		c-0.539,2.497-2.429,4.136-5.664,4.914l-0.029,0.06c2.815,0.52,4.225,1.858,4.225,4.016c0,1.358-0.379,2.591-1.139,3.701
		c-0.759,1.107-1.773,1.963-3.041,2.562c-1.269,0.599-3.282,0.898-6.039,0.898H40.934z M21.187,40.749l4.584-21.577h16.242
		l-0.869,4.137H30.836l-0.96,4.494h9.71l-0.899,4.137h-9.709l-0.959,4.614h10.549l-0.898,4.195H21.187z M0.209,33.856h6.022
		c-0.078,0.399-0.119,0.729-0.119,0.988c0,1.579,1.019,2.367,3.057,2.367c2.138,0,3.387-0.818,3.746-2.456
		c0.039-0.2,0.062-0.391,0.062-0.57c0-0.739-0.5-1.248-1.5-1.527l-5.004-1.379c-2.837-0.778-4.255-2.288-4.255-4.524
		c0-0.438,0.049-0.908,0.15-1.409c0.419-1.918,1.469-3.485,3.146-4.705c1.897-1.377,4.363-2.066,7.4-2.066
		c5.074,0,7.612,1.636,7.612,4.914c0,0.54-0.081,1.199-0.24,1.979h-6.083c0.1-0.399,0.149-0.74,0.149-1.02
		c0-1.317-0.78-1.977-2.337-1.977c-0.858,0-1.598,0.214-2.217,0.643c-0.62,0.43-0.989,0.974-1.11,1.633
		c-0.04,0.18-0.06,0.351-0.06,0.511c0,0.817,0.59,1.389,1.769,1.707l3.806,1.05c1.658,0.459,2.816,0.919,3.476,1.377
		c1.12,0.76,1.679,1.859,1.679,3.297c0,0.479-0.061,1-0.18,1.559c-0.48,2.318-1.769,4.085-3.866,5.305
		c-1.917,1.118-4.305,1.678-7.163,1.678c-3.695,0-6.133-0.859-7.311-2.578C0.28,37.852,0,36.873,0,35.715
		C0,35.234,0.069,34.615,0.209,33.856z M38.241,53.953H78.72l-1.144,5.686H37.097L38.241,53.953z M40.289,44.511h40.479
		l-1.145,5.685H39.145L40.289,44.511z M47.626,9.443h40.48l-1.145,5.686H46.482L47.626,9.443z M49.675,0h40.479l-1.145,5.686H48.532
		L49.675,0z M197.81,46.18l-0.443,0.011c-0.33,0.015-0.624,0.07-0.873,0.168l-0.163,0.081c-0.337,0.208-0.498,0.478-0.495,0.809
		c0,0.172,0.049,0.314,0.14,0.421c0.106,0.128,0.238,0.188,0.396,0.188c0.58,0.006,1.027-0.462,1.346-1.397L197.81,46.18z
		 M198.134,45.103c0.025-0.097,0.037-0.188,0.042-0.274c-0.005-0.291-0.214-0.443-0.626-0.453c-0.361,0.016-0.604,0.152-0.727,0.412
		L196.751,45h-1.394l0.083-0.253c0.065-0.205,0.178-0.377,0.331-0.529c0.187-0.194,0.401-0.33,0.636-0.417
		c0.381-0.143,0.802-0.214,1.266-0.214c1.23,0.015,1.846,0.433,1.846,1.256c0,0.134-0.017,0.26-0.037,0.386l-0.071,0.28l-0.55,1.82
		c-0.07,0.223-0.131,0.504-0.187,0.839l-0.062,0.432h-1.291l0.005-0.279l0.021-0.233c-0.158,0.137-0.289,0.243-0.396,0.314
		c-0.32,0.225-0.691,0.336-1.115,0.336c-0.426,0-0.762-0.117-1.016-0.351c-0.253-0.229-0.381-0.561-0.375-0.981
		c0-0.391,0.105-0.737,0.32-1.047c0.212-0.315,0.509-0.54,0.89-0.676c0.406-0.153,0.919-0.245,1.528-0.28l0.871-0.011
		L198.134,45.103z M189.812,43.725h1.32l-0.126,0.682l0.417-0.341c0.431-0.316,0.888-0.479,1.374-0.479
		c0.369-0.005,0.676,0.097,0.904,0.296c0.252,0.217,0.387,0.508,0.387,0.869c0,0.213-0.041,0.451-0.117,0.707l-0.936,3.141h-1.42
		l0.896-2.993c0.031-0.103,0.057-0.219,0.075-0.347l0.011-0.157c0-0.36-0.183-0.539-0.538-0.529c-0.174,0-0.326,0.036-0.467,0.112
		c-0.108,0.062-0.215,0.138-0.312,0.229c-0.118,0.111-0.218,0.225-0.301,0.346l-0.151,0.26c-0.127,0.233-0.229,0.493-0.312,0.781
		l-0.665,2.299h-1.439L189.812,43.725z M189.354,41.589l-0.377,1.261h-1.51l0.376-1.261H189.354z M187.271,43.725h1.412
		l-1.449,4.875h-1.417L187.271,43.725z M183.767,43.725h1.281l-0.146,0.777l0.3-0.38c0.178-0.215,0.386-0.367,0.615-0.453
		c0.146-0.056,0.407-0.082,0.772-0.082l-0.453,1.282l-0.202-0.006c-0.226,0-0.429,0.046-0.617,0.137
		c-0.284,0.139-0.498,0.377-0.63,0.707c-0.098,0.244-0.197,0.549-0.301,0.904l-0.572,1.988h-1.445L183.767,43.725z M180.487,46.18
		l-0.441,0.011c-0.332,0.015-0.627,0.07-0.875,0.168l-0.162,0.081c-0.336,0.208-0.5,0.478-0.494,0.809
		c0,0.172,0.046,0.314,0.138,0.421c0.106,0.128,0.239,0.188,0.397,0.188c0.578,0.006,1.025-0.462,1.346-1.397L180.487,46.18z
		 M180.813,45.103c0.023-0.097,0.035-0.188,0.04-0.274c-0.005-0.291-0.214-0.443-0.624-0.453c-0.361,0.016-0.606,0.152-0.728,0.412
		L179.429,45h-1.392l0.082-0.253c0.065-0.205,0.176-0.377,0.329-0.529c0.189-0.194,0.402-0.33,0.637-0.417
		c0.381-0.143,0.803-0.214,1.266-0.214c1.23,0.015,1.846,0.433,1.846,1.256c0,0.134-0.016,0.26-0.037,0.386l-0.071,0.28l-0.548,1.82
		c-0.071,0.223-0.132,0.504-0.188,0.839l-0.061,0.432H180l0.004-0.279l0.022-0.233c-0.158,0.137-0.292,0.243-0.398,0.314
		c-0.32,0.225-0.689,0.336-1.113,0.336c-0.426,0-0.764-0.117-1.016-0.351c-0.255-0.229-0.381-0.561-0.378-0.981
		c0-0.391,0.106-0.737,0.321-1.047c0.214-0.315,0.508-0.54,0.889-0.676c0.407-0.153,0.922-0.245,1.529-0.28l0.872-0.011
		L180.813,45.103z M174.427,43.725h0.876l0.315-1.018l1.417-0.34l-0.417,1.357h0.898l-0.268,0.885h-0.875l-0.793,2.648l-0.035,0.172
		l0.01,0.179c0.045,0.168,0.188,0.248,0.432,0.248c0.104,0,0.209-0.009,0.311-0.034l0.199-0.061l-0.25,0.879l-0.32,0.062
		c-0.174,0.025-0.36,0.04-0.563,0.035c-0.819-0.01-1.226-0.314-1.226-0.899l0.01-0.117c0.04-0.26,0.111-0.549,0.209-0.869
		l0.691-2.242h-0.89L174.427,43.725z M171.259,46.18l-0.441,0.011c-0.329,0.015-0.626,0.07-0.875,0.168l-0.163,0.081
		c-0.335,0.208-0.496,0.478-0.492,0.809c0,0.172,0.046,0.314,0.138,0.421c0.105,0.128,0.237,0.188,0.395,0.188
		c0.581,0.006,1.029-0.462,1.348-1.397L171.259,46.18z M171.585,45.103c0.025-0.097,0.037-0.188,0.043-0.274
		c-0.006-0.291-0.215-0.443-0.627-0.453c-0.363,0.016-0.605,0.152-0.727,0.412L170.202,45h-1.393l0.082-0.253
		c0.064-0.205,0.178-0.377,0.33-0.529c0.188-0.194,0.4-0.33,0.635-0.417c0.381-0.143,0.804-0.214,1.268-0.214
		c1.229,0.015,1.844,0.433,1.844,1.256c0,0.134-0.015,0.26-0.035,0.386l-0.07,0.28l-0.551,1.82c-0.07,0.223-0.131,0.504-0.188,0.839
		l-0.061,0.432h-1.291l0.005-0.279l0.019-0.233c-0.158,0.137-0.287,0.243-0.396,0.314c-0.32,0.225-0.69,0.336-1.113,0.336
		c-0.427,0-0.763-0.117-1.017-0.351c-0.254-0.229-0.381-0.561-0.377-0.981c0-0.391,0.107-0.737,0.32-1.047
		c0.215-0.315,0.509-0.54,0.891-0.676c0.408-0.153,0.92-0.245,1.53-0.28l0.87-0.011L171.585,45.103z M166.431,43.749l-0.006-0.365
		c-0.041-0.569-0.341-0.858-0.91-0.864c-0.346,0-0.661,0.092-0.931,0.271c-0.274,0.182-0.509,0.411-0.701,0.69
		c-0.28,0.396-0.509,0.839-0.681,1.316c-0.104,0.27-0.184,0.54-0.244,0.813c-0.062,0.27-0.092,0.528-0.092,0.773
		c0,0.356,0.092,0.655,0.275,0.894c0.197,0.271,0.472,0.402,0.823,0.402c0.493,0.011,0.899-0.188,1.22-0.594
		c0.127-0.153,0.238-0.346,0.336-0.575l0.091-0.229h1.657l-0.092,0.314c-0.285,0.864-0.875,1.484-1.764,1.862
		c-0.442,0.187-0.926,0.283-1.453,0.278c-0.764,0.011-1.374-0.188-1.838-0.585c-0.501-0.427-0.756-1.012-0.762-1.753
		c0-0.864,0.229-1.744,0.688-2.634c0.492-0.956,1.119-1.607,1.869-1.952c0.516-0.234,1.059-0.351,1.648-0.351
		c0.682-0.007,1.236,0.141,1.666,0.437c0.459,0.311,0.688,0.818,0.693,1.515l-0.016,0.335H166.431z M155.271,46.18l-0.441,0.011
		c-0.332,0.015-0.627,0.07-0.876,0.168l-0.163,0.081c-0.335,0.208-0.498,0.478-0.492,0.809c0,0.172,0.045,0.314,0.137,0.421
		c0.106,0.128,0.24,0.188,0.398,0.188c0.578,0.006,1.025-0.462,1.348-1.397L155.271,46.18z M155.597,45.103
		c0.025-0.097,0.034-0.188,0.039-0.274c-0.005-0.291-0.212-0.443-0.626-0.453c-0.36,0.016-0.604,0.152-0.726,0.412L154.214,45
		h-1.395l0.081-0.253c0.067-0.205,0.179-0.377,0.331-0.529c0.189-0.194,0.401-0.33,0.636-0.417c0.381-0.143,0.804-0.214,1.267-0.214
		c1.229,0.015,1.845,0.433,1.845,1.256c0,0.134-0.015,0.26-0.034,0.386l-0.072,0.28l-0.549,1.82
		c-0.072,0.223-0.133,0.504-0.189,0.839l-0.061,0.432h-1.291l0.006-0.279l0.021-0.233c-0.159,0.137-0.292,0.243-0.397,0.314
		c-0.32,0.225-0.692,0.336-1.113,0.336c-0.427,0-0.762-0.117-1.017-0.351c-0.255-0.229-0.381-0.561-0.378-0.981
		c0-0.391,0.109-0.737,0.321-1.047c0.214-0.315,0.509-0.54,0.89-0.676c0.406-0.153,0.92-0.245,1.531-0.28l0.868-0.011
		L155.597,45.103z M149.21,43.725h0.873l0.316-1.018l1.418-0.34l-0.417,1.357h0.901l-0.27,0.885h-0.875l-0.793,2.648l-0.035,0.172
		l0.01,0.179c0.045,0.168,0.188,0.248,0.432,0.248c0.103,0,0.209-0.009,0.311-0.034l0.199-0.061l-0.25,0.879l-0.32,0.062
		c-0.172,0.025-0.361,0.04-0.564,0.035c-0.818-0.01-1.227-0.314-1.227-0.899l0.013-0.117c0.04-0.26,0.112-0.549,0.207-0.869
		l0.692-2.242h-0.891L149.21,43.725z M143.505,43.725h1.322l-0.127,0.682l0.417-0.341c0.433-0.316,0.89-0.479,1.374-0.479
		c0.371-0.005,0.676,0.097,0.904,0.296c0.254,0.217,0.387,0.508,0.387,0.869c0,0.213-0.041,0.451-0.117,0.707l-0.937,3.141h-1.419
		l0.896-2.993c0.031-0.103,0.057-0.219,0.077-0.347l0.009-0.157c0-0.36-0.181-0.539-0.538-0.529c-0.172,0-0.326,0.036-0.467,0.112
		c-0.107,0.062-0.215,0.138-0.312,0.229c-0.117,0.111-0.217,0.225-0.298,0.346l-0.153,0.26c-0.127,0.233-0.228,0.493-0.311,0.781
		l-0.666,2.299h-1.438L143.505,43.725z M140.206,46.18l-0.441,0.011c-0.33,0.015-0.627,0.07-0.876,0.168l-0.161,0.081
		c-0.337,0.208-0.498,0.478-0.494,0.809c0,0.172,0.045,0.314,0.137,0.421c0.107,0.128,0.24,0.188,0.398,0.188
		c0.578,0.006,1.027-0.462,1.346-1.397L140.206,46.18z M140.532,45.103c0.025-0.097,0.036-0.188,0.039-0.274
		c-0.003-0.291-0.214-0.443-0.624-0.453c-0.36,0.016-0.606,0.152-0.728,0.412L139.149,45h-1.395l0.083-0.253
		c0.063-0.205,0.177-0.377,0.329-0.529c0.189-0.194,0.403-0.33,0.636-0.417c0.381-0.143,0.804-0.214,1.267-0.214
		c1.229,0.015,1.845,0.433,1.845,1.256c0,0.134-0.015,0.26-0.034,0.386l-0.072,0.28l-0.549,1.82
		c-0.072,0.223-0.132,0.504-0.188,0.839L141.01,48.6h-1.292l0.006-0.279l0.021-0.233c-0.157,0.137-0.291,0.243-0.397,0.314
		c-0.32,0.225-0.69,0.336-1.113,0.336c-0.427,0-0.762-0.117-1.017-0.351c-0.255-0.229-0.381-0.561-0.377-0.981
		c0-0.391,0.108-0.737,0.32-1.047c0.214-0.315,0.509-0.54,0.89-0.676c0.408-0.153,0.922-0.245,1.531-0.28l0.87-0.011L140.532,45.103
		z M132.139,46.363l-0.04,0.289c-0.012,0.438,0.137,0.728,0.441,0.865c0.218,0.117,0.463,0.173,0.727,0.162
		c0.346,0,0.656-0.061,0.931-0.192c0.335-0.158,0.503-0.412,0.509-0.759c0.004-0.218-0.117-0.432-0.368-0.646
		c-0.151-0.121-0.278-0.208-0.364-0.259l-1.242-0.65c-0.115-0.062-0.248-0.152-0.4-0.28c-0.442-0.352-0.666-0.803-0.666-1.353
		c-0.006-0.137,0.01-0.283,0.051-0.432c0.123-0.529,0.438-0.936,0.945-1.23c0.482-0.285,1.059-0.423,1.723-0.416
		c0.688,0,1.247,0.11,1.68,0.334c0.555,0.296,0.833,0.764,0.838,1.398l-0.036,0.371h-1.474l0.005-0.294
		c-0.034-0.504-0.37-0.758-1.013-0.753c-0.293,0-0.564,0.061-0.803,0.188c-0.283,0.147-0.42,0.372-0.412,0.666
		c0,0.209,0.088,0.393,0.25,0.55c0.092,0.092,0.193,0.163,0.304,0.219l1.358,0.742l0.311,0.183c0.113,0.082,0.223,0.173,0.336,0.271
		c0.319,0.324,0.482,0.701,0.482,1.128c-0.004,0.731-0.346,1.316-1.021,1.759c-0.522,0.34-1.2,0.514-2.024,0.514
		c-0.507,0-0.971-0.066-1.393-0.198c-0.122-0.03-0.238-0.086-0.351-0.157c-0.555-0.331-0.834-0.819-0.828-1.46
		c0-0.127,0.01-0.239,0.029-0.335l0.062-0.224H132.139z M261.409,36.026l0.016,0.296c0.025,0.406,0.248,0.604,0.676,0.599
		c0.193,0.006,0.381-0.045,0.56-0.146c0.192-0.116,0.29-0.28,0.29-0.487c-0.012-0.194-0.083-0.342-0.213-0.442l-0.24-0.138
		l-0.758-0.417c-0.141-0.076-0.275-0.157-0.393-0.244c-0.324-0.224-0.492-0.534-0.492-0.931c-0.006-0.549,0.244-0.955,0.753-1.23
		c0.406-0.212,0.899-0.325,1.479-0.325c0.447-0.004,0.83,0.076,1.154,0.239c0.422,0.213,0.637,0.519,0.637,0.92
		c-0.008,0.112-0.021,0.219-0.042,0.331l-0.04,0.147h-1.313v-0.133c0.011-0.468-0.178-0.701-0.569-0.716
		c-0.188,0-0.346,0.045-0.467,0.142c-0.141,0.111-0.209,0.254-0.203,0.427c-0.006,0.188,0.07,0.336,0.229,0.447l0.184,0.112
		l0.772,0.382c0.122,0.061,0.239,0.132,0.356,0.213c0.361,0.26,0.548,0.599,0.554,1.021c-0.006,0.554-0.274,0.981-0.799,1.271
		c-0.411,0.234-0.976,0.351-1.692,0.347c-0.26,0.004-0.494-0.017-0.703-0.058c-0.272-0.046-0.521-0.162-0.736-0.351
		c-0.217-0.183-0.34-0.427-0.371-0.722l-0.004-0.314l0.023-0.24H261.409z M257.952,35.153l-0.441,0.009
		c-0.332,0.016-0.627,0.071-0.875,0.169l-0.164,0.081c-0.334,0.208-0.498,0.479-0.492,0.808c0,0.173,0.046,0.315,0.138,0.422
		c0.106,0.128,0.237,0.188,0.396,0.188c0.58,0.005,1.027-0.462,1.348-1.398L257.952,35.153z M258.278,34.075
		c0.023-0.097,0.034-0.188,0.04-0.275c-0.006-0.289-0.214-0.441-0.624-0.451c-0.363,0.015-0.607,0.151-0.728,0.411l-0.073,0.214
		h-1.393l0.081-0.255c0.065-0.204,0.178-0.376,0.331-0.528c0.188-0.193,0.402-0.331,0.635-0.417
		c0.383-0.143,0.803-0.214,1.267-0.214c1.231,0.016,1.847,0.433,1.847,1.256c0,0.133-0.016,0.26-0.037,0.386l-0.071,0.28
		l-0.548,1.82c-0.071,0.223-0.134,0.503-0.188,0.839l-0.061,0.432h-1.291l0.003-0.279l0.021-0.233
		c-0.158,0.137-0.29,0.243-0.396,0.314c-0.32,0.225-0.691,0.337-1.113,0.337c-0.427,0-0.764-0.117-1.016-0.352
		c-0.256-0.229-0.383-0.56-0.378-0.982c0-0.391,0.106-0.736,0.32-1.046c0.214-0.315,0.509-0.54,0.89-0.677
		c0.407-0.153,0.92-0.244,1.529-0.279l0.87-0.011L258.278,34.075z M250.864,36.026l0.016,0.296c0.025,0.406,0.25,0.604,0.678,0.599
		c0.191,0.006,0.381-0.045,0.559-0.146c0.193-0.116,0.289-0.28,0.289-0.487c-0.01-0.194-0.081-0.342-0.213-0.442l-0.24-0.138
		l-0.758-0.417c-0.141-0.076-0.274-0.157-0.393-0.244c-0.323-0.224-0.492-0.534-0.492-0.931c-0.004-0.549,0.246-0.955,0.753-1.23
		c0.407-0.212,0.901-0.325,1.479-0.325c0.447-0.004,0.83,0.076,1.154,0.239c0.423,0.213,0.637,0.519,0.637,0.92
		c-0.007,0.112-0.021,0.219-0.042,0.331l-0.04,0.147h-1.312v-0.133c0.009-0.468-0.179-0.701-0.569-0.716
		c-0.188,0-0.346,0.045-0.469,0.142c-0.141,0.111-0.207,0.254-0.203,0.427c-0.004,0.188,0.071,0.336,0.229,0.447l0.184,0.112
		l0.772,0.382c0.122,0.061,0.239,0.132,0.356,0.213c0.361,0.26,0.549,0.599,0.554,1.021c-0.005,0.554-0.274,0.981-0.798,1.271
		c-0.412,0.234-0.977,0.351-1.693,0.347c-0.26,0.004-0.494-0.017-0.701-0.058c-0.274-0.046-0.523-0.162-0.738-0.351
		c-0.217-0.183-0.34-0.427-0.369-0.722l-0.006-0.314l0.023-0.24H250.864z M245.989,34.594h1.728l0.077-0.275
		c0.02-0.111,0.036-0.229,0.04-0.34c-0.021-0.422-0.243-0.63-0.68-0.63c-0.454,0-0.8,0.283-1.023,0.853L245.989,34.594z
		 M245.598,35.909l-0.021,0.24c0,0.514,0.244,0.771,0.731,0.771c0.403-0.004,0.718-0.202,0.936-0.594l0.163-0.29h1.389l-0.112,0.254
		c-0.143,0.311-0.341,0.575-0.584,0.788c-0.464,0.417-1.067,0.632-1.815,0.632c-1.398-0.012-2.095-0.556-2.095-1.638
		c0-0.392,0.071-0.818,0.224-1.271c0.148-0.457,0.335-0.838,0.569-1.148c0.534-0.732,1.28-1.094,2.237-1.094
		c1.321,0,1.988,0.513,2.002,1.525c-0.004,0.382-0.055,0.743-0.157,1.077l-0.126,0.316h-3.254L245.598,35.909z M241.647,32.697
		h1.282l-0.148,0.777l0.3-0.381c0.178-0.213,0.387-0.366,0.614-0.452c0.147-0.057,0.408-0.082,0.772-0.082l-0.45,1.282l-0.205-0.007
		c-0.224,0-0.427,0.047-0.614,0.139c-0.285,0.137-0.498,0.376-0.629,0.707c-0.098,0.242-0.2,0.549-0.301,0.903l-0.575,1.988h-1.444
		L241.647,32.697z M236.339,35.904c0,0.25,0.057,0.464,0.168,0.631c0.129,0.204,0.311,0.3,0.555,0.295
		c0.381,0,0.726-0.26,1.047-0.788c0.07-0.116,0.139-0.233,0.193-0.355c0.106-0.224,0.189-0.457,0.255-0.711
		c0.03-0.134,0.055-0.256,0.071-0.372l0.01-0.289c0-0.58-0.215-0.871-0.64-0.876c-0.469,0-0.872,0.306-1.21,0.906
		c-0.117,0.209-0.209,0.416-0.275,0.636C236.396,35.341,236.339,35.646,236.339,35.904z M235.817,32.697h1.285l-0.123,0.62
		l0.326-0.315c0.152-0.143,0.324-0.254,0.523-0.329c0.198-0.077,0.406-0.113,0.636-0.113c0.487,0,0.874,0.163,1.169,0.493
		c0.266,0.306,0.396,0.707,0.396,1.221c0,0.824-0.24,1.581-0.717,2.272c-0.539,0.778-1.2,1.169-1.988,1.165
		c-0.537,0-0.936-0.179-1.193-0.529l-0.139-0.193l-0.696,2.389h-1.403L235.817,32.697z M228.292,32.697l-0.137,0.63l0.391-0.315
		c0.207-0.152,0.428-0.27,0.666-0.352c0.213-0.064,0.432-0.101,0.66-0.101c0.57,0,0.956,0.229,1.16,0.672l0.06,0.183l0.378-0.326
		c0.438-0.346,0.919-0.523,1.453-0.528c0.367,0,0.671,0.097,0.91,0.285c0.254,0.197,0.387,0.487,0.391,0.858l-0.01,0.193
		c-0.034,0.261-0.097,0.544-0.191,0.854l-0.841,2.821h-1.412l0.854-2.826l0.095-0.377c0.027-0.142,0.043-0.27,0.043-0.381
		c0.011-0.289-0.158-0.437-0.487-0.442c-0.435-0.005-0.799,0.233-1.104,0.707c-0.08,0.116-0.137,0.224-0.174,0.311
		c-0.102,0.224-0.201,0.529-0.314,0.909l-0.61,2.1h-1.392l0.802-2.735l0.097-0.37c0.052-0.184,0.077-0.346,0.077-0.488
		c0.004-0.279-0.157-0.422-0.489-0.433c-0.395,0-0.741,0.203-1.027,0.611l-0.131,0.212c-0.169,0.316-0.311,0.687-0.433,1.109
		l-0.599,2.094h-1.42l1.373-4.875H228.292z M224.829,36.494l-0.32,1.078h-4.652l2.059-7h4.485l-0.321,1.076h-3.014l-0.529,1.771
		h2.957l-0.318,1.076h-2.948l-0.595,1.998H224.829z M212.841,36.026l0.016,0.296c0.025,0.406,0.248,0.604,0.676,0.599
		c0.193,0.006,0.382-0.045,0.56-0.146c0.192-0.116,0.29-0.28,0.29-0.487c-0.01-0.194-0.081-0.342-0.213-0.442l-0.24-0.138
		l-0.758-0.417c-0.143-0.076-0.275-0.157-0.393-0.244c-0.324-0.224-0.492-0.534-0.492-0.931c-0.006-0.549,0.246-0.955,0.753-1.23
		c0.406-0.212,0.901-0.325,1.479-0.325c0.447-0.004,0.83,0.076,1.154,0.239c0.422,0.213,0.635,0.519,0.635,0.92
		c-0.004,0.112-0.02,0.219-0.04,0.331l-0.04,0.147h-1.312v-0.133c0.009-0.468-0.18-0.701-0.569-0.716
		c-0.189,0-0.346,0.045-0.469,0.142c-0.141,0.111-0.209,0.254-0.203,0.427c-0.006,0.188,0.07,0.336,0.229,0.447l0.184,0.112
		l0.772,0.382c0.122,0.061,0.237,0.132,0.354,0.213c0.363,0.26,0.55,0.599,0.556,1.021c-0.006,0.554-0.274,0.981-0.799,1.271
		c-0.411,0.234-0.976,0.351-1.692,0.347c-0.26,0.004-0.494-0.017-0.701-0.058c-0.274-0.046-0.525-0.162-0.738-0.351
		c-0.219-0.183-0.34-0.427-0.371-0.722l-0.006-0.314l0.025-0.24H212.841z M209.384,35.153l-0.441,0.009
		c-0.332,0.016-0.627,0.071-0.875,0.169l-0.164,0.081c-0.334,0.208-0.498,0.479-0.492,0.808c0,0.173,0.046,0.315,0.138,0.422
		c0.106,0.128,0.237,0.188,0.396,0.188c0.58,0.005,1.027-0.462,1.348-1.398L209.384,35.153z M209.71,34.075
		c0.025-0.097,0.034-0.188,0.04-0.275c-0.006-0.289-0.214-0.441-0.626-0.451c-0.361,0.015-0.605,0.151-0.726,0.411l-0.071,0.214
		h-1.395l0.081-0.255c0.065-0.204,0.18-0.376,0.331-0.528c0.189-0.193,0.402-0.331,0.637-0.417c0.381-0.143,0.803-0.214,1.265-0.214
		c1.231,0.016,1.847,0.433,1.847,1.256c0,0.133-0.018,0.26-0.035,0.386l-0.073,0.28l-0.548,1.82
		c-0.071,0.223-0.132,0.503-0.188,0.839l-0.061,0.432h-1.291l0.003-0.279l0.021-0.233c-0.158,0.137-0.29,0.243-0.396,0.314
		c-0.32,0.225-0.691,0.337-1.113,0.337c-0.427,0-0.764-0.117-1.016-0.352c-0.256-0.229-0.383-0.56-0.378-0.982
		c0-0.391,0.108-0.736,0.32-1.046c0.214-0.315,0.509-0.54,0.89-0.677c0.407-0.153,0.92-0.244,1.531-0.279l0.868-0.011L209.71,34.075
		z M201.386,32.697h1.322l-0.126,0.682l0.415-0.341c0.434-0.315,0.891-0.479,1.374-0.479c0.37-0.004,0.676,0.097,0.905,0.295
		c0.254,0.218,0.386,0.509,0.386,0.87c0,0.213-0.04,0.451-0.117,0.706l-0.936,3.142h-1.417l0.895-2.994
		c0.029-0.102,0.056-0.218,0.076-0.346l0.01-0.157c0-0.361-0.185-0.539-0.539-0.529c-0.173,0-0.324,0.036-0.467,0.112
		c-0.109,0.061-0.215,0.137-0.312,0.229c-0.115,0.112-0.217,0.224-0.298,0.346l-0.153,0.26c-0.127,0.233-0.229,0.493-0.311,0.782
		l-0.666,2.298h-1.438L201.386,32.697z M196.669,34.594h1.729l0.075-0.275c0.021-0.111,0.036-0.229,0.042-0.34
		c-0.021-0.422-0.244-0.63-0.684-0.63c-0.449,0-0.796,0.283-1.021,0.853L196.669,34.594z M196.276,35.909l-0.02,0.24
		c0,0.514,0.244,0.771,0.732,0.771c0.4-0.004,0.716-0.202,0.936-0.594l0.162-0.29h1.387l-0.109,0.254
		c-0.145,0.311-0.342,0.575-0.586,0.788c-0.463,0.417-1.067,0.632-1.814,0.632c-1.399-0.012-2.096-0.556-2.096-1.638
		c0-0.392,0.072-0.818,0.224-1.271c0.148-0.457,0.335-0.838,0.569-1.148c0.535-0.732,1.282-1.094,2.238-1.094
		c1.32,0,1.986,0.513,2.002,1.525c-0.004,0.382-0.055,0.743-0.158,1.077l-0.126,0.316h-3.255L196.276,35.909z M190.074,32.697h1.403
		l-0.92,3.065c-0.04,0.132-0.061,0.259-0.061,0.381c0,0.381,0.178,0.575,0.539,0.58c0.314,0,0.609-0.153,0.89-0.452
		c0.091-0.098,0.167-0.198,0.229-0.306c0.12-0.214,0.232-0.453,0.323-0.717l0.209-0.62l0.601-1.932h1.397l-1.397,4.875h-1.328
		l0.152-0.696l-0.157,0.143c-0.548,0.458-1.093,0.692-1.638,0.692c-0.369,0-0.676-0.098-0.908-0.275
		c-0.271-0.209-0.402-0.488-0.396-0.839c0-0.163,0.014-0.325,0.055-0.499l0.082-0.351L190.074,32.697z M184.641,35.971
		c0.009,0.57,0.232,0.854,0.671,0.859c0.305,0.011,0.604-0.162,0.893-0.508c0.148-0.168,0.271-0.352,0.372-0.549
		c0.121-0.225,0.218-0.483,0.286-0.769c0.055-0.229,0.086-0.447,0.086-0.666c-0.006-0.59-0.251-0.896-0.724-0.9
		c-0.436,0.005-0.822,0.341-1.157,1.002C184.776,35.005,184.636,35.513,184.641,35.971z M187.558,32.697h1.338l-2.033,6.68h-1.389
		l0.717-2.271c-0.428,0.4-0.885,0.605-1.369,0.605c-0.486,0.004-0.873-0.153-1.152-0.474c-0.275-0.325-0.418-0.722-0.424-1.2
		c0.006-0.401,0.077-0.818,0.215-1.246c0.097-0.31,0.219-0.599,0.381-0.867c0.219-0.393,0.514-0.714,0.881-0.962
		c0.381-0.265,0.793-0.402,1.229-0.402c0.626,0,1.094,0.285,1.404,0.849L187.558,32.697z M179.535,34.594h1.729l0.077-0.275
		c0.02-0.111,0.035-0.229,0.04-0.34c-0.021-0.422-0.243-0.63-0.681-0.63c-0.453,0-0.799,0.283-1.022,0.853L179.535,34.594z
		 M179.144,35.909l-0.021,0.24c0,0.514,0.245,0.771,0.732,0.771c0.403-0.004,0.716-0.202,0.936-0.594l0.163-0.29h1.387l-0.111,0.254
		c-0.144,0.311-0.342,0.575-0.585,0.788c-0.464,0.417-1.067,0.632-1.815,0.632c-1.396-0.012-2.094-0.556-2.094-1.638
		c0-0.392,0.07-0.818,0.225-1.271c0.146-0.457,0.334-0.838,0.568-1.148c0.534-0.732,1.281-1.094,2.237-1.094
		c1.32,0,1.987,0.513,2.003,1.525c-0.005,0.382-0.057,0.743-0.157,1.077l-0.128,0.316h-3.254L179.144,35.909z M174.091,33.805h0.624
		c0.544-0.015,0.956-0.116,1.236-0.299c0.401-0.27,0.604-0.631,0.604-1.094c-0.004-0.493-0.324-0.747-0.962-0.764h-0.848
		L174.091,33.805z M173.575,30.572h2.016c0.793,0.01,1.356,0.101,1.697,0.269c0.513,0.255,0.772,0.738,0.772,1.45
		c-0.015,0.873-0.386,1.551-1.113,2.032c-0.559,0.371-1.325,0.56-2.308,0.56h-0.85l-0.799,2.689h-1.509L173.575,30.572z
		 M164.676,34.594h1.727l0.077-0.275c0.02-0.111,0.035-0.229,0.04-0.34c-0.021-0.422-0.243-0.63-0.681-0.63
		c-0.453,0-0.799,0.283-1.022,0.853L164.676,34.594z M164.284,35.909l-0.022,0.24c0,0.514,0.245,0.771,0.732,0.771
		c0.401-0.004,0.716-0.202,0.937-0.594l0.162-0.29h1.389l-0.111,0.254c-0.144,0.311-0.342,0.575-0.586,0.788
		c-0.463,0.417-1.068,0.632-1.815,0.632c-1.397-0.012-2.093-0.556-2.093-1.638c0-0.392,0.068-0.818,0.221-1.271
		c0.148-0.457,0.338-0.838,0.572-1.148c0.532-0.732,1.279-1.094,2.235-1.094c1.322,0,1.989,0.513,2.003,1.525
		c-0.005,0.382-0.057,0.743-0.156,1.077l-0.129,0.316h-3.252L164.284,35.909z M155.106,36.067c-0.005,0.22,0.061,0.402,0.198,0.544
		c0.146,0.147,0.324,0.224,0.527,0.219c0.504-0.005,0.921-0.336,1.245-0.996c0.286-0.574,0.435-1.114,0.438-1.612
		c-0.003-0.519-0.248-0.783-0.73-0.783c-0.417,0-0.77,0.22-1.047,0.657c-0.184,0.273-0.32,0.574-0.412,0.89
		C155.179,35.468,155.102,35.828,155.106,36.067z M153.714,36.083c0.003-0.646,0.172-1.286,0.503-1.922
		c0.544-1.062,1.438-1.597,2.688-1.602c0.606,0.005,1.068,0.138,1.399,0.392c0.401,0.306,0.599,0.737,0.599,1.292
		c-0.004,0.635-0.158,1.261-0.467,1.866c-0.346,0.676-0.784,1.128-1.322,1.352c-0.406,0.167-0.85,0.254-1.322,0.25
		c-0.33,0.004-0.645-0.036-0.945-0.123c-0.223-0.056-0.423-0.152-0.595-0.295C153.896,37.034,153.717,36.627,153.714,36.083z
		 M151.12,32.697h1.282l-0.148,0.777l0.3-0.381c0.178-0.213,0.387-0.366,0.615-0.452c0.146-0.057,0.407-0.082,0.773-0.082
		l-0.454,1.282l-0.204-0.007c-0.223,0-0.426,0.047-0.615,0.139c-0.283,0.137-0.496,0.376-0.629,0.707
		c-0.096,0.242-0.198,0.549-0.299,0.903l-0.575,1.988h-1.444L151.12,32.697z M148.197,34.437l0.026-0.129l0.039-0.263
		c0-0.392-0.205-0.596-0.6-0.606c-0.479,0.005-0.87,0.352-1.174,1.038c-0.108,0.229-0.2,0.504-0.275,0.813l-0.08,0.38
		c-0.037,0.158-0.052,0.311-0.048,0.449c0,0.203,0.052,0.365,0.153,0.498c0.123,0.152,0.275,0.224,0.473,0.213
		c0.467,0,0.839-0.32,1.108-0.966h1.388l-0.092,0.336c-0.356,1.007-1.184,1.511-2.501,1.511c-0.864,0.004-1.435-0.261-1.703-0.79
		c-0.151-0.274-0.224-0.578-0.218-0.909c0.006-0.879,0.283-1.678,0.838-2.38c0.554-0.707,1.303-1.062,2.248-1.072l0.34,0.016
		c1.022,0.102,1.535,0.564,1.531,1.389l-0.011,0.146l-0.052,0.326H148.197z M145.224,30.562l-0.377,1.262h-1.51l0.375-1.262H145.224
		z M143.138,32.697h1.414l-1.449,4.875h-1.419L143.138,32.697z M134.733,30.572h2.247l-0.05,5.246l0,0l3.061-5.246h2.176l-1.969,7
		h-1.34l1.84-6.177l0,0l-3.609,6.177h-1.363l0.041-6.177l0,0l-1.832,6.177h-1.341L134.733,30.572z M225.607,24.999l0.017,0.296
		c0.025,0.406,0.248,0.604,0.676,0.599c0.191,0.006,0.381-0.045,0.559-0.147c0.193-0.115,0.291-0.279,0.291-0.486
		c-0.012-0.193-0.082-0.342-0.215-0.443l-0.238-0.138l-0.758-0.416c-0.143-0.076-0.274-0.157-0.392-0.244
		c-0.324-0.225-0.493-0.534-0.493-0.93c-0.005-0.55,0.244-0.956,0.753-1.231c0.407-0.213,0.899-0.325,1.479-0.325
		c0.447-0.005,0.828,0.075,1.154,0.238c0.423,0.215,0.635,0.52,0.635,0.921c-0.005,0.112-0.02,0.219-0.039,0.33l-0.043,0.148h-1.309
		v-0.133c0.008-0.467-0.18-0.701-0.572-0.717c-0.187,0-0.344,0.046-0.467,0.143c-0.143,0.111-0.209,0.255-0.203,0.427
		c-0.006,0.188,0.071,0.336,0.229,0.447l0.182,0.111l0.774,0.383c0.121,0.061,0.238,0.132,0.355,0.213
		c0.36,0.26,0.55,0.601,0.555,1.022c-0.005,0.554-0.274,0.98-0.798,1.27c-0.412,0.234-0.977,0.352-1.694,0.347
		c-0.259,0.005-0.493-0.015-0.701-0.057c-0.274-0.044-0.524-0.161-0.736-0.351c-0.22-0.183-0.341-0.427-0.372-0.721l-0.006-0.315
		l0.026-0.24H225.607z M222.396,19.561l0.529,1.503h-1.017l-0.896-1.503H222.396z M222.151,24.126l-0.443,0.009
		c-0.329,0.017-0.624,0.071-0.873,0.169l-0.163,0.08c-0.337,0.21-0.498,0.479-0.495,0.809c0,0.173,0.049,0.315,0.139,0.422
		c0.107,0.128,0.239,0.189,0.396,0.189c0.58,0.004,1.027-0.463,1.348-1.398L222.151,24.126z M222.476,23.047
		c0.025-0.096,0.037-0.188,0.041-0.274c-0.004-0.289-0.213-0.441-0.625-0.452c-0.361,0.016-0.604,0.151-0.727,0.412l-0.072,0.214
		h-1.392l0.081-0.255c0.065-0.203,0.178-0.375,0.331-0.529c0.187-0.191,0.401-0.33,0.636-0.416c0.381-0.142,0.802-0.214,1.266-0.214
		c1.23,0.016,1.846,0.433,1.846,1.257c0,0.132-0.017,0.258-0.037,0.385l-0.071,0.28l-0.55,1.82
		c-0.068,0.224-0.131,0.503-0.186,0.838l-0.062,0.434h-1.291l0.005-0.281l0.021-0.232c-0.158,0.137-0.289,0.243-0.396,0.315
		c-0.32,0.223-0.691,0.335-1.115,0.335c-0.426,0-0.762-0.117-1.016-0.351c-0.253-0.229-0.381-0.56-0.375-0.982
		c0-0.391,0.107-0.736,0.32-1.046c0.212-0.315,0.507-0.539,0.89-0.677c0.407-0.152,0.919-0.244,1.529-0.279l0.87-0.011
		L222.476,23.047z M211.165,25.041c-0.005,0.219,0.061,0.401,0.198,0.543c0.146,0.147,0.324,0.224,0.527,0.22
		c0.503-0.006,0.921-0.337,1.245-0.998c0.286-0.573,0.434-1.113,0.438-1.611c-0.004-0.519-0.248-0.782-0.73-0.782
		c-0.418,0-0.77,0.218-1.047,0.656c-0.184,0.274-0.32,0.574-0.412,0.889C211.235,24.44,211.16,24.801,211.165,25.041z
		 M209.772,25.056c0.003-0.646,0.172-1.287,0.503-1.923c0.544-1.062,1.438-1.595,2.688-1.601c0.605,0.006,1.067,0.138,1.398,0.393
		c0.402,0.304,0.6,0.736,0.6,1.291c-0.004,0.636-0.158,1.261-0.467,1.866c-0.347,0.676-0.784,1.128-1.322,1.353
		c-0.406,0.166-0.85,0.253-1.322,0.248c-0.33,0.005-0.645-0.035-0.945-0.122c-0.223-0.056-0.423-0.153-0.596-0.296
		C209.955,26.007,209.775,25.6,209.772,25.056z M210.321,19.535l-0.377,1.26h-1.51l0.376-1.26H210.321z M208.235,21.67h1.414
		l-1.449,4.876h-1.419L208.235,21.67z M202.882,25.041c-0.005,0.219,0.061,0.401,0.198,0.543c0.148,0.147,0.326,0.224,0.529,0.22
		c0.504-0.006,0.919-0.337,1.245-0.998c0.284-0.573,0.433-1.113,0.438-1.611c-0.005-0.519-0.248-0.782-0.732-0.782
		c-0.417,0-0.768,0.218-1.047,0.656c-0.184,0.274-0.318,0.574-0.412,0.889C202.954,24.44,202.877,24.801,202.882,25.041z
		 M201.489,25.056c0.005-0.646,0.174-1.287,0.503-1.923c0.544-1.062,1.439-1.595,2.69-1.601c0.604,0.006,1.068,0.138,1.397,0.393
		c0.403,0.304,0.601,0.736,0.601,1.291c-0.006,0.636-0.158,1.261-0.469,1.866c-0.344,0.676-0.782,1.128-1.322,1.353
		c-0.404,0.166-0.848,0.253-1.32,0.248c-0.332,0.005-0.646-0.035-0.947-0.122c-0.223-0.056-0.421-0.153-0.594-0.296
		C201.672,26.007,201.494,25.6,201.489,25.056z M197.167,24.878c0,0.25,0.057,0.463,0.168,0.63c0.129,0.204,0.312,0.3,0.555,0.296
		c0.381,0,0.728-0.261,1.049-0.79c0.07-0.115,0.137-0.232,0.191-0.355c0.106-0.223,0.189-0.456,0.255-0.71
		c0.03-0.133,0.057-0.256,0.071-0.372l0.01-0.289c0-0.581-0.213-0.87-0.64-0.875c-0.469,0-0.87,0.306-1.21,0.905
		c-0.117,0.208-0.209,0.417-0.275,0.635C197.224,24.312,197.167,24.618,197.167,24.878z M196.646,21.67h1.285l-0.123,0.62
		l0.326-0.315c0.152-0.143,0.324-0.253,0.523-0.33c0.198-0.077,0.406-0.112,0.636-0.112c0.487,0,0.874,0.163,1.171,0.493
		c0.264,0.306,0.395,0.707,0.395,1.222c0,0.822-0.238,1.58-0.716,2.271c-0.54,0.778-1.199,1.17-1.989,1.165
		c-0.537,0-0.936-0.178-1.193-0.528l-0.137-0.193l-0.697,2.39h-1.404L196.646,21.67z M190.599,23.948L190.599,23.948h2.172l0,0
		l-0.104-3.383l0,0L190.599,23.948z M192.019,19.544h1.859l0.504,7.002h-1.494l-0.078-1.521l0,0h-2.908l0,0l-0.939,1.521h-1.643
		L192.019,19.544z M181.036,23.565h1.729l0.075-0.272c0.02-0.114,0.036-0.229,0.042-0.342c-0.022-0.422-0.243-0.631-0.683-0.631
		c-0.451,0-0.797,0.284-1.022,0.854L181.036,23.565z M180.645,24.882l-0.021,0.24c0,0.513,0.244,0.771,0.732,0.771
		c0.402-0.004,0.717-0.202,0.937-0.594l0.163-0.289h1.387l-0.112,0.253c-0.143,0.311-0.341,0.574-0.584,0.788
		c-0.464,0.417-1.067,0.631-1.815,0.631c-1.398-0.011-2.095-0.555-2.095-1.638c0-0.392,0.071-0.818,0.224-1.271
		c0.148-0.457,0.337-0.839,0.569-1.148c0.533-0.732,1.282-1.094,2.237-1.094c1.321,0,1.988,0.513,2.002,1.526
		c-0.004,0.381-0.055,0.741-0.157,1.076l-0.126,0.316h-3.254L180.645,24.882z M174.839,25.005c0,0.117,0.02,0.243,0.066,0.381
		c0.07,0.279,0.268,0.418,0.6,0.418c0.457,0,0.854-0.315,1.201-0.937c0.298-0.539,0.446-1.047,0.45-1.524
		c-0.004-0.26-0.056-0.468-0.161-0.625c-0.143-0.203-0.326-0.306-0.555-0.306c-0.438,0-0.828,0.346-1.186,1.027
		C174.976,23.978,174.834,24.501,174.839,25.005z M178.317,19.535h1.406l-2.059,7.011h-1.281l0.133-0.646l-0.143,0.143
		c-0.229,0.229-0.469,0.396-0.722,0.509c-0.198,0.09-0.417,0.137-0.651,0.132c-0.479,0-0.865-0.168-1.16-0.498
		c-0.264-0.295-0.395-0.696-0.395-1.22c0-0.159,0.014-0.326,0.04-0.495c0.034-0.228,0.097-0.476,0.188-0.747
		c0.098-0.283,0.215-0.553,0.361-0.808c0.223-0.397,0.518-0.722,0.889-0.976c0.387-0.27,0.805-0.407,1.256-0.407
		c0.273,0,0.52,0.057,0.737,0.174c0.169,0.09,0.31,0.207,0.427,0.351l0.157,0.223L178.317,19.535z M165.632,25.041
		c-0.006,0.219,0.061,0.401,0.197,0.543c0.148,0.147,0.326,0.224,0.529,0.22c0.504-0.006,0.92-0.337,1.246-0.998
		c0.285-0.573,0.432-1.113,0.438-1.611c-0.006-0.519-0.25-0.782-0.732-0.782c-0.418,0-0.768,0.218-1.048,0.656
		c-0.183,0.274-0.321,0.574-0.412,0.889C165.703,24.44,165.626,24.801,165.632,25.041z M164.237,25.056
		c0.006-0.646,0.175-1.287,0.504-1.923c0.545-1.062,1.439-1.595,2.69-1.601c0.604,0.006,1.067,0.138,1.397,0.393
		c0.4,0.304,0.599,0.736,0.599,1.291c-0.003,0.636-0.155,1.261-0.467,1.866c-0.345,0.676-0.782,1.128-1.32,1.353
		c-0.409,0.166-0.85,0.253-1.322,0.248c-0.331,0.005-0.646-0.035-0.946-0.122c-0.225-0.056-0.422-0.153-0.596-0.296
		C164.421,26.007,164.243,25.6,164.237,25.056z M162.302,23.408l0.024-0.128l0.042-0.263c0-0.392-0.205-0.596-0.601-0.605
		c-0.478,0.005-0.87,0.351-1.176,1.036c-0.106,0.23-0.198,0.504-0.272,0.814l-0.083,0.382c-0.034,0.156-0.05,0.309-0.046,0.446
		c0,0.204,0.052,0.366,0.154,0.498c0.121,0.153,0.274,0.225,0.473,0.215c0.467,0,0.838-0.321,1.107-0.967h1.389l-0.092,0.335
		c-0.357,1.007-1.186,1.511-2.502,1.511c-0.864,0.005-1.434-0.261-1.703-0.789c-0.152-0.273-0.223-0.579-0.22-0.909
		c0.006-0.879,0.286-1.678,0.841-2.38c0.553-0.706,1.301-1.062,2.247-1.072l0.341,0.016c1.021,0.102,1.534,0.563,1.529,1.388
		l-0.01,0.147l-0.051,0.325H162.302z M161.381,27.125l-0.874,1.366h-1.321l1.042-1.366H161.381z M159.328,19.535l-0.377,1.26h-1.509
		l0.375-1.26H159.328z M157.244,21.67h1.412l-1.448,4.876h-1.42L157.244,21.67z M152.602,21.67l0.38,3.706l0,0l1.999-3.706h1.478
		l-2.902,4.876h-1.652l-0.71-4.876H152.602z M148.091,21.67h1.282l-0.148,0.777l0.301-0.381c0.177-0.213,0.386-0.366,0.615-0.453
		c0.146-0.056,0.406-0.081,0.772-0.081l-0.452,1.28l-0.203-0.004c-0.224,0-0.427,0.046-0.615,0.138
		c-0.284,0.137-0.499,0.376-0.63,0.705c-0.098,0.245-0.199,0.551-0.301,0.905l-0.574,1.989h-1.445L148.091,21.67z M143.394,23.565
		h1.729l0.076-0.272c0.02-0.114,0.036-0.229,0.041-0.342c-0.021-0.422-0.244-0.631-0.681-0.631c-0.454,0-0.798,0.284-1.022,0.854
		L143.394,23.565z M143.002,24.882l-0.021,0.24c0,0.513,0.244,0.771,0.732,0.771c0.401-0.004,0.717-0.202,0.937-0.594l0.161-0.289
		h1.389l-0.112,0.253c-0.144,0.311-0.341,0.574-0.585,0.788c-0.463,0.417-1.066,0.631-1.814,0.631
		c-1.396-0.011-2.095-0.555-2.095-1.638c0-0.392,0.071-0.818,0.226-1.271c0.146-0.457,0.333-0.839,0.567-1.148
		c0.534-0.732,1.282-1.094,2.235-1.094c1.322,0,1.989,0.513,2.006,1.526c-0.006,0.381-0.057,0.741-0.159,1.076l-0.126,0.316h-3.255
		L143.002,24.882z M136.745,24.309l-0.041,0.29c-0.012,0.437,0.136,0.727,0.441,0.863c0.218,0.117,0.463,0.173,0.727,0.163
		c0.347,0,0.656-0.062,0.931-0.193c0.335-0.157,0.502-0.412,0.509-0.758c0.006-0.219-0.117-0.432-0.365-0.646
		c-0.154-0.122-0.281-0.208-0.367-0.26l-1.241-0.65c-0.116-0.06-0.247-0.152-0.401-0.279c-0.443-0.351-0.664-0.803-0.664-1.353
		c-0.006-0.137,0.009-0.284,0.049-0.432c0.123-0.529,0.438-0.936,0.945-1.229c0.483-0.287,1.059-0.423,1.725-0.418
		c0.686,0,1.246,0.112,1.678,0.336c0.553,0.294,0.833,0.762,0.839,1.397l-0.035,0.372h-1.476l0.006-0.295
		c-0.035-0.504-0.371-0.759-1.012-0.753c-0.295,0-0.565,0.061-0.804,0.188c-0.286,0.147-0.421,0.371-0.412,0.667
		c0,0.208,0.086,0.391,0.249,0.549c0.092,0.091,0.194,0.162,0.306,0.218l1.357,0.743l0.31,0.184c0.111,0.08,0.225,0.173,0.337,0.268
		c0.32,0.327,0.481,0.702,0.481,1.129c-0.004,0.733-0.344,1.318-1.021,1.76c-0.523,0.341-1.199,0.514-2.023,0.514
		c-0.508,0-0.971-0.066-1.393-0.198c-0.123-0.031-0.24-0.087-0.352-0.157c-0.555-0.332-0.833-0.819-0.828-1.46
		c0-0.126,0.012-0.239,0.029-0.336l0.062-0.223H136.745z"/>
</g>
</svg>
