<?xml version="1.0" encoding="utf-8"?>
<!-- Generator: Adobe Illustrator 16.0.0, SVG Export Plug-In . SVG Version: 6.00 Build 0)  -->
<!DOCTYPE svg PUBLIC "-//W3C//DTD SVG 1.1//EN" "http://www.w3.org/Graphics/SVG/1.1/DTD/svg11.dtd" [
	<!ENTITY ns_extend "http://ns.adobe.com/Extensibility/1.0/">
	<!ENTITY ns_ai "http://ns.adobe.com/AdobeIllustrator/10.0/">
	<!ENTITY ns_graphs "http://ns.adobe.com/Graphs/1.0/">
	<!ENTITY ns_vars "http://ns.adobe.com/Variables/1.0/">
	<!ENTITY ns_imrep "http://ns.adobe.com/ImageReplacement/1.0/">
	<!ENTITY ns_sfw "http://ns.adobe.com/SaveForWeb/1.0/">
	<!ENTITY ns_custom "http://ns.adobe.com/GenericCustomNamespace/1.0/">
	<!ENTITY ns_adobe_xpath "http://ns.adobe.com/XPath/1.0/">
]>
<svg version="1.1" id="Layer_1" xmlns:x="&ns_extend;" xmlns:i="&ns_ai;" xmlns:graph="&ns_graphs;"
	 xmlns="http://www.w3.org/2000/svg" xmlns:xlink="http://www.w3.org/1999/xlink" x="0px" y="0px" width="30px" height="29.998px"
	 viewBox="0 0 30 29.998" enable-background="new 0 0 30 29.998" xml:space="preserve">
<metadata>
	<sfw  xmlns="&ns_sfw;">
		<slices></slices>
		<sliceSourceBounds  x="235.644" y="-265.153" bottomLeftOrigin="true" height="29.998" width="30"></sliceSourceBounds>
		<optimizationSettings>
			<targetSettings  fileFormat="PNG24Format" targetSettingsID="0">
				<PNG24Format  transparency="true" interlaced="false" noMatteColor="false" matteColor="#FFFFFF" filtered="false">
					</PNG24Format>
			</targetSettings>
		</optimizationSettings>
	</sfw>
</metadata>
<g>
	<circle fill="#3AB473" cx="15" cy="14.998" r="15"/>
	<path fill="#24A665" d="M29.199,19.962L16.54,7.303l-2.91,6.455l-6.539,2.996l12.484,12.483
		C24.062,27.832,27.625,24.369,29.199,19.962z"/>
	<polygon fill="#45885C" points="17.095,13.833 16.455,13.833 16.455,7.377 17.095,8.018 	"/>
	<polygon fill="#45885C" points="17.095,23.208 16.455,23.208 16.455,16.754 17.095,17.393 	"/>
	<polygon fill="#45885C" points="13.546,17.393 13.546,16.754 7.091,16.754 7.731,17.393 	"/>
	<polygon fill="#45885C" points="17.095,23.836 17.095,23.208 13.546,23.197 14.185,23.836 	"/>
	<polygon fill="#45885C" points="23.557,17.393 22.91,17.393 22.91,13.821 23.557,14.469 	"/>
	<polygon fill="#45885C" points="22.91,17.393 22.91,16.754 16.455,16.754 17.095,17.393 	"/>
	<polygon fill="#FFFFFF" points="22.91,16.742 22.909,13.833 16.455,13.833 16.455,7.377 13.546,7.378 13.546,13.833 7.091,13.832 
		7.091,16.742 13.546,16.742 13.546,23.197 16.455,23.197 16.455,16.742 	"/>
</g>
</svg>
