<?xml version="1.0" encoding="utf-8"?>
<!-- Generator: Adobe Illustrator 16.0.0, SVG Export Plug-In . SVG Version: 6.00 Build 0)  -->
<!DOCTYPE svg PUBLIC "-//W3C//DTD SVG 1.1//EN" "http://www.w3.org/Graphics/SVG/1.1/DTD/svg11.dtd">
<svg version="1.1" xmlns="http://www.w3.org/2000/svg" xmlns:xlink="http://www.w3.org/1999/xlink" x="0px" y="0px" width="940px"
	 height="905px" viewBox="0 0 940 905" enable-background="new 0 0 940 905" xml:space="preserve">
<g id="Layer_2">
	<rect x="0" fill="#FFFFF0" width="940" height="905"/>
	<rect x="27.717" y="42" fill="#FFFFF0" width="889" height="241"/>
	<rect x="25.717" y="14" fill="#51A27A" width="893" height="26"/>
	<path fill="#51BE7A" d="M916.717,42v241h-889V42H916.717z M918.717,40h-893v245h893V40L918.717,40z"/>
	<polygon fill="#51BE7A" points="27.717,41 27.717,15 49.717,15 	"/>
	<text transform="matrix(1 0 0 1 49.7173 79.5)" fill="#51A27A" font-family="'MyriadPro-Regular'" font-size="18">Plano de negócio  </text>
	<text transform="matrix(1 0 0 1 69.7173 124.1211)" fill="#323232" font-family="'MyriadPro-Regular'" font-size="14">Público-alvo</text>
	<text transform="matrix(1 0 0 1 49.7173 98.2305)" fill="#323232" font-family="'MyriadPro-Regular'" font-size="12">Modelo de negócio</text>
	<line fill="none" stroke="#92EAB0" stroke-width="1.2829" stroke-miterlimit="10" x1="49.717" y1="168.5" x2="892" y2="168.5"/>
	<rect x="27.717" y="335" fill="#FFFFF0" width="889" height="183"/>
	<rect x="25.717" y="307" fill="#51A27A" width="893" height="26"/>
	<path fill="#51BE7A" d="M916.717,335v181h-889V335H916.717z M918.717,333h-893v185h893V333L918.717,333z"/>
	<polygon fill="#51BE7A" points="27.717,334 27.717,308 49.717,308 	"/>
	<text transform="matrix(1 0 0 1 50.377 326.2988)" fill="#FFFFFF" font-family="'MyriadPro-Regular'" font-size="14">Outras informações</text>
	<polygon fill="#449B73" points="29.137,40 27.402,40 49.402,14 50.999,14.047 	"/>
	<polygon fill="#449B73" points="29.137,333 27.402,333 49.402,307 50.999,307.047 	"/>
	<rect x="27.717" y="566" fill="#FFFFF0" width="889" height="224"/>
	<rect x="25.717" y="538" fill="#51A27A" width="893" height="26"/>
	<rect x="570.967" y="639.76" fill="#51A27A" width="177.457" height="26"/>
	<path fill="#51BE7A" d="M916.717,566v222h-889V566H916.717z M918.717,564h-893v226h893V564L918.717,564z"/>
	<polygon fill="#51BE7A" points="27.717,565 27.717,539 49.717,539 	"/>
	<polygon fill="#51BE7A" points="570.967,665.76 570.967,639.76 592.967,639.76 	"/>
	<polygon fill="#449B73" points="29.137,564 27.402,564 49.402,538 50.999,538.047 	"/>
	<polygon fill="#FFFFFF" points="507.436,99.178 510.217,96.396 510.217,98 513.217,98 513.217,99.132 513.217,100 510.217,100 
		510.217,101.961 	"/>
	<g>
		<circle fill="#39B373" cx="56.417" cy="120.002" r="6.5"/>
		<path fill="#21A765" d="M56.217,117.1v1.613l-2.733,1.975l5.282,5.338c1.627-0.701,2.687-1.611,3.307-3.281L56.217,117.1z"/>
		<polygon fill="#FFFFFF" points="59.395,119.881 56.613,117.1 56.613,118.732 53.682,118.732 53.682,119.834 53.682,120.688 
			56.613,120.688 56.613,122.664 		"/>
	</g>
	<text transform="matrix(1 0 0 1 69.7173 149.6816)" fill="#323232" font-family="'MyriadPro-Regular'" font-size="14">Proposta de valor</text>
	<g>
		<circle fill="#39B373" cx="56.417" cy="144.267" r="6.5"/>
		<path fill="#21A765" d="M56.217,141.364v1.614l-2.733,1.974l5.282,5.338c1.627-0.701,2.687-1.611,3.307-3.28L56.217,141.364z"/>
		<polygon fill="#FFFFFF" points="59.395,144.146 56.613,141.364 56.613,142.997 53.682,142.997 53.682,144.099 53.682,144.952 
			56.613,144.952 56.613,146.929 		"/>
	</g>
	<text transform="matrix(1 0 0 1 210.7173 149.6816)" fill="#323232" font-family="'MyriadPro-Regular'" font-size="14">Relacionamento com o Cliente</text>
	<g>
		<circle fill="#39B373" cx="197.417" cy="144.267" r="6.5"/>
		<path fill="#21A765" d="M197.217,141.364v1.614l-2.733,1.974l5.282,5.338c1.627-0.701,2.687-1.611,3.307-3.28L197.217,141.364z"/>
		<polygon fill="#FFFFFF" points="200.395,144.146 197.613,141.364 197.613,142.997 194.682,142.997 194.682,144.099 
			194.682,144.952 197.613,144.952 197.613,146.929 		"/>
	</g>
	<text transform="matrix(1 0 0 1 579.3711 124.1211)" fill="#323232" font-family="'MyriadPro-Regular'" font-size="14">Atividades-chave</text>
	<g>
		<circle fill="#39B373" cx="566.07" cy="120.002" r="6.5"/>
		<path fill="#21A765" d="M565.871,117.1v1.613l-2.732,1.975l5.281,5.338c1.627-0.701,2.688-1.611,3.307-3.281L565.871,117.1z"/>
		<polygon fill="#FFFFFF" points="569.049,119.881 566.268,117.1 566.268,118.732 563.336,118.732 563.336,119.834 563.336,120.688 
			566.268,120.688 566.268,122.664 		"/>
	</g>
	<text transform="matrix(1 0 0 1 69.7173 630.1211)" fill="#323232" font-family="'MyriadPro-Regular'" font-size="14">Protótipos</text>
	<g>
		<circle fill="#39B373" cx="56.417" cy="624.338" r="6.5"/>
		<path fill="#21A765" d="M56.217,621.436v1.614l-2.733,1.974l5.282,5.338c1.627-0.701,2.687-1.611,3.307-3.28L56.217,621.436z"/>
		<polygon fill="#FFFFFF" points="59.395,624.217 56.613,621.436 56.613,623.068 53.682,623.068 53.682,624.17 53.682,625.023 
			56.613,625.023 56.613,627 		"/>
	</g>
	<text transform="matrix(1 0 0 1 69.7173 652.1211)" fill="#323232" font-family="'MyriadPro-Regular'" font-size="14">Clientes e testes</text>
	<g>
		<circle fill="#39B373" cx="56.417" cy="646.206" r="6.5"/>
		<path fill="#21A765" d="M56.217,643.304v1.614l-2.733,1.974l5.282,5.338c1.627-0.701,2.687-1.611,3.307-3.28L56.217,643.304z"/>
		<polygon fill="#FFFFFF" points="59.395,646.085 56.613,643.304 56.613,644.937 53.682,644.937 53.682,646.038 53.682,646.892 
			56.613,646.892 56.613,648.868 		"/>
	</g>
	<text transform="matrix(1 0 0 1 230.2954 652.2832)" fill="#323232" font-family="'MyriadPro-Regular'" font-size="14">Métricas</text>
	<g>
		<circle fill="#39B373" cx="216.995" cy="646.206" r="6.5"/>
		<path fill="#21A765" d="M216.795,643.304v1.614l-2.733,1.974l5.282,5.338c1.627-0.701,2.687-1.611,3.307-3.28L216.795,643.304z"/>
		<polygon fill="#FFFFFF" points="219.973,646.085 217.191,643.304 217.191,644.937 214.26,644.937 214.26,646.038 214.26,646.892 
			217.191,646.892 217.191,648.868 		"/>
	</g>
	<text transform="matrix(1 0 0 1 590.7676 631.4414)" fill="#323232" font-family="'MyriadPro-Regular'" font-size="14">Melhorias</text>
	<text transform="matrix(1 0 0 1 593.625 658.3242)" fill="#FFFFFF" font-family="'MyriadPro-Regular'" font-size="14">Ciclo MCA</text>
	<g>
		<circle fill="#39B373" cx="577.467" cy="624.338" r="6.5"/>
		<path fill="#21A765" d="M577.268,621.436v1.614l-2.734,1.974l5.283,5.338c1.627-0.701,2.686-1.611,3.307-3.28L577.268,621.436z"/>
		<polygon fill="#FFFFFF" points="580.445,624.217 577.662,621.436 577.662,623.068 574.732,623.068 574.732,624.17 
			574.732,625.023 577.662,625.023 577.662,627 		"/>
	</g>
	<text transform="matrix(1 0 0 1 69.7173 365.1211)" fill="#323232" font-family="'MyriadPro-Regular'" font-size="14">Estratégia do negócio</text>
	<g>
		<circle fill="#39B373" cx="56.417" cy="359.098" r="6.5"/>
		<path fill="#21A765" d="M56.217,356.195v1.615l-2.733,1.973l5.282,5.338c1.627-0.701,2.687-1.611,3.307-3.279L56.217,356.195z"/>
		<polygon fill="#FFFFFF" points="59.395,358.977 56.613,356.195 56.613,357.828 53.682,357.828 53.682,358.93 53.682,359.783 
			56.613,359.783 56.613,361.76 		"/>
	</g>
	<text transform="matrix(1 0 0 1 69.7173 387.1211)" fill="#323232" font-family="'MyriadPro-Regular'" font-size="14">Análise de mercado</text>
	<g>
		<circle fill="#39B373" cx="56.417" cy="381.098" r="6.5"/>
		<path fill="#21A765" d="M56.217,378.195v1.615l-2.733,1.973l5.282,5.338c1.627-0.701,2.687-1.611,3.307-3.279L56.217,378.195z"/>
		<polygon fill="#FFFFFF" points="59.395,380.977 56.613,378.195 56.613,379.828 53.682,379.828 53.682,380.93 53.682,381.783 
			56.613,381.783 56.613,383.76 		"/>
	</g>
	<text transform="matrix(1 0 0 1 230.7173 365.1211)" fill="#323232" font-family="'MyriadPro-Regular'" font-size="14">Planejamento operacional</text>
	<g>
		<circle fill="#39B373" cx="217.417" cy="359.098" r="6.5"/>
		<path fill="#21A765" d="M217.217,356.195v1.615l-2.733,1.973l5.282,5.338c1.627-0.701,2.687-1.611,3.307-3.279L217.217,356.195z"
			/>
		<polygon fill="#FFFFFF" points="220.395,358.977 217.613,356.195 217.613,357.828 214.682,357.828 214.682,358.93 
			214.682,359.783 217.613,359.783 217.613,361.76 		"/>
	</g>
	<text transform="matrix(1 0 0 1 230.7173 387.1211)" fill="#323232" font-family="'MyriadPro-Regular'" font-size="14">Planejamento financeiro</text>
	<g>
		<circle fill="#39B373" cx="217.417" cy="381.098" r="6.5"/>
		<path fill="#21A765" d="M217.217,378.195v1.615l-2.733,1.973l5.282,5.338c1.627-0.701,2.687-1.611,3.307-3.279L217.217,378.195z"
			/>
		<polygon fill="#FFFFFF" points="220.395,380.977 217.613,378.195 217.613,379.828 214.682,379.828 214.682,380.93 
			214.682,381.783 217.613,381.783 217.613,383.76 		"/>
	</g>
	<text transform="matrix(1 0 0 1 416.7173 365.1211)" fill="#323232" font-family="'MyriadPro-Regular'" font-size="14">Dados dos proponentes etc.</text>
	<g>
		<circle fill="#39B373" cx="403.417" cy="359.098" r="6.5"/>
		<path fill="#21A765" d="M403.217,356.195v1.615l-2.733,1.973l5.282,5.338c1.627-0.701,2.687-1.611,3.307-3.279L403.217,356.195z"
			/>
		<polygon fill="#FFFFFF" points="406.395,358.977 403.613,356.195 403.613,357.828 400.682,357.828 400.682,358.93 
			400.682,359.783 403.613,359.783 403.613,361.76 		"/>
	</g>
	<text transform="matrix(1 0 0 1 738.4346 124.1211)" fill="#323232" font-family="'MyriadPro-Regular'" font-size="14">Estrutura de custos</text>
	<g>
		<circle fill="#39B373" cx="725.135" cy="120.002" r="6.5"/>
		<path fill="#21A765" d="M724.936,117.1v1.613l-2.734,1.975l5.283,5.338c1.627-0.701,2.686-1.611,3.307-3.281L724.936,117.1z"/>
		<polygon fill="#FFFFFF" points="728.113,119.881 725.33,117.1 725.33,118.732 722.4,118.732 722.4,119.834 722.4,120.688 
			725.33,120.688 725.33,122.664 		"/>
	</g>
	<g>
		<g>
			<path fill="#51A27A" d="M51.547,585.391c0.702,0.45,1.71,0.793,2.791,0.793c1.603,0,2.539-0.847,2.539-2.071
				c0-1.116-0.648-1.782-2.287-2.395c-1.981-0.72-3.205-1.765-3.205-3.457c0-1.891,1.566-3.295,3.925-3.295
				c1.224,0,2.143,0.288,2.665,0.595l-0.432,1.277c-0.378-0.234-1.188-0.576-2.287-0.576c-1.656,0-2.287,0.99-2.287,1.818
				c0,1.135,0.738,1.693,2.413,2.342c2.053,0.791,3.079,1.781,3.079,3.564c0,1.873-1.369,3.512-4.231,3.512
				c-1.17,0-2.449-0.361-3.097-0.793L51.547,585.391z"/>
			<polygon fill="#51A27A" points="62.744,576.496 59.053,576.496 59.053,575.164 68.038,575.164 68.038,576.496 64.328,576.496 
				64.328,587.299 62.744,587.299 			"/>
			<path fill="#51A27A" d="M69.817,583.482l-1.26,3.816h-1.621l4.141-12.135h1.873l4.141,12.135h-1.674l-1.296-3.816H69.817z
				 M73.814,582.258l-1.206-3.493c-0.271-0.792-0.45-1.513-0.63-2.214h-0.036c-0.18,0.701-0.36,1.457-0.612,2.195l-1.188,3.512
				H73.814z"/>
			<path fill="#51A27A" d="M78.69,575.326c0.792-0.145,1.945-0.252,3.007-0.252c1.674,0,2.772,0.324,3.511,0.99
				c0.594,0.539,0.955,1.367,0.955,2.322c0,1.584-1.008,2.646-2.269,3.078v0.055c0.918,0.324,1.477,1.188,1.765,2.449
				c0.396,1.691,0.684,2.861,0.937,3.33h-1.621c-0.198-0.359-0.468-1.386-0.792-2.898c-0.36-1.674-1.026-2.305-2.449-2.359h-1.476
				v5.258H78.69V575.326z M80.257,580.854h1.602c1.675,0,2.737-0.918,2.737-2.305c0-1.566-1.135-2.251-2.791-2.251
				c-0.756,0-1.278,0.054-1.548,0.126V580.854z"/>
			<polygon fill="#51A27A" points="90.661,576.496 86.97,576.496 86.97,575.164 95.955,575.164 95.955,576.496 92.245,576.496 
				92.245,587.299 90.661,587.299 			"/>
			<path fill="#51A27A" d="M101.964,575.164v7.201c0,2.701,1.206,3.854,2.827,3.854c1.783,0,2.953-1.188,2.953-3.854v-7.201h1.584
				v7.094c0,3.727-1.962,5.24-4.591,5.24c-2.484,0-4.357-1.405-4.357-5.186v-7.148H101.964z"/>
			<path fill="#51A27A" d="M111.863,575.308c0.756-0.126,1.746-0.233,3.007-0.233c1.548,0,2.683,0.359,3.403,1.008
				c0.648,0.576,1.063,1.459,1.063,2.539c0,1.098-0.324,1.963-0.937,2.592c-0.846,0.883-2.179,1.333-3.709,1.333
				c-0.468,0-0.9-0.019-1.26-0.108v4.861h-1.566V575.308z M113.43,581.16c0.342,0.09,0.774,0.125,1.296,0.125
				c1.89,0,3.042-0.936,3.042-2.574c0-1.621-1.152-2.395-2.863-2.395c-0.684,0-1.206,0.054-1.476,0.125V581.16z"/>
		</g>
	</g>
	<text transform="matrix(1 0 0 1 49.7173 598.5)" fill="#323232" font-family="'MyriadPro-Regular'" font-size="12">(usar apenas caso você planejar abrir uma empresa deste tipo)</text>
	<text transform="matrix(1 0 0 1 210.9038 124.1211)" fill="#323232" font-family="'MyriadPro-Regular'" font-size="14">Canais</text>
	<g>
		<circle fill="#39B373" cx="197.603" cy="120.002" r="6.5"/>
		<path fill="#21A765" d="M197.404,117.1v1.613l-2.733,1.975l5.282,5.338c1.627-0.701,2.687-1.611,3.307-3.281L197.404,117.1z"/>
		<polygon fill="#FFFFFF" points="200.582,119.881 197.799,117.1 197.799,118.732 194.869,118.732 194.869,119.834 194.869,120.688 
			197.799,120.688 197.799,122.664 		"/>
	</g>
	<text transform="matrix(1 0 0 1 416.0698 124.1211)" fill="#323232" font-family="'MyriadPro-Regular'" font-size="14">Fontes de renda</text>
	<g>
		<circle fill="#39B373" cx="402.769" cy="120.002" r="6.5"/>
		<path fill="#21A765" d="M402.57,117.1v1.613l-2.733,1.975l5.282,5.338c1.627-0.701,2.687-1.611,3.307-3.281L402.57,117.1z"/>
		<polygon fill="#FFFFFF" points="405.748,119.881 402.965,117.1 402.965,118.732 400.035,118.732 400.035,119.834 400.035,120.688 
			402.965,120.688 402.965,122.664 		"/>
	</g>
	<text transform="matrix(1 0 0 1 416.4048 149.6816)" fill="#323232" font-family="'MyriadPro-Regular'" font-size="14">Recursos-chave</text>
	<g>
		<circle fill="#39B373" cx="403.104" cy="144.267" r="6.5"/>
		<path fill="#21A765" d="M402.905,141.364v1.614l-2.733,1.974l5.282,5.338c1.627-0.701,2.687-1.611,3.307-3.28L402.905,141.364z"/>
		<polygon fill="#FFFFFF" points="406.083,144.146 403.3,141.364 403.3,142.997 400.37,142.997 400.37,144.099 400.37,144.952 
			403.3,144.952 403.3,146.929 		"/>
	</g>
	<text transform="matrix(1 0 0 1 577.2363 149.6816)" fill="#323232" font-family="'MyriadPro-Regular'" font-size="14">Parceiros-chave</text>
	<g>
		<circle fill="#39B373" cx="563.936" cy="144.267" r="6.5"/>
		<path fill="#21A765" d="M563.736,141.364v1.614l-2.734,1.974l5.283,5.338c1.627-0.701,2.686-1.611,3.307-3.28L563.736,141.364z"/>
		<polygon fill="#FFFFFF" points="566.914,144.146 564.131,141.364 564.131,142.997 561.201,142.997 561.201,144.099 
			561.201,144.952 564.131,144.952 564.131,146.929 		"/>
	</g>
	<g>
		<rect x="52" y="184" fill="none" width="850" height="104"/>
		<text transform="matrix(1 0 0 1 51.9995 195.2842)"><tspan x="0" y="0" fill="#141414" font-family="'FuturaStd-Medium'" font-size="13">Lorem ipsum dolor sit amet, consectetur adipiscing elit. Nullam quis fringilla dolor. Praesent ornare, libero ut vestibulum sodales, dolor lacus laoreet </tspan><tspan x="0" y="18" fill="#141414" font-family="'FuturaStd-Medium'" font-size="13">ante, nec faucibus neque libero quis sapien. Nullam id orci et elit dignissim vestibulum nec nec metus. Curabitur vehicula erat eu cursus hendrerit. </tspan><tspan x="0" y="36" fill="#141414" font-family="'FuturaStd-Medium'" font-size="13">Morbi vitae mi bibendum, cursus sem id, eleifend orci. Nam pulvinar et justo nec ultrices. Quisque iaculis lobortis ultrices. Fusce imperdiet blandit </tspan><tspan x="0" y="54" fill="#141414" font-family="'FuturaStd-Medium'" font-size="13">tortor congue tempor. Pellentesque tempor porta sapien eu dictum. Suspendisse non tellus massa. Duis blandit sed nulla vel suscipit. Sed laoreet </tspan><tspan x="0" y="72" fill="#141414" font-family="'FuturaStd-Medium'" font-size="13">mattis nunc fermentum adipiscing.</tspan></text>
	</g>
	<g>
		<rect x="52" y="421" fill="none" width="850" height="104"/>
		<text transform="matrix(1 0 0 1 51.9995 432.2842)"><tspan x="0" y="0" fill="#141414" font-family="'FuturaStd-Medium'" font-size="13">Lorem ipsum dolor sit amet, consectetur adipiscing elit. Nullam quis fringilla dolor. Praesent ornare, libero ut vestibulum sodales, dolor lacus laoreet </tspan><tspan x="0" y="18" fill="#141414" font-family="'FuturaStd-Medium'" font-size="13">ante, nec faucibus neque libero quis sapien. Nullam id orci et elit dignissim vestibulum nec nec metus. Curabitur vehicula erat eu cursus hendrerit. </tspan><tspan x="0" y="36" fill="#141414" font-family="'FuturaStd-Medium'" font-size="13">Morbi vitae mi bibendum, cursus sem id, eleifend orci. Nam pulvinar et justo nec ultrices. Quisque iaculis lobortis ultrices. Fusce imperdiet blandit </tspan><tspan x="0" y="54" fill="#141414" font-family="'FuturaStd-Medium'" font-size="13">tortor congue tempor. Pellentesque tempor porta sapien eu dictum. Suspendisse non tellus massa. Duis blandit sed nulla vel suscipit. Sed laoreet </tspan><tspan x="0" y="72" fill="#141414" font-family="'FuturaStd-Medium'" font-size="13">mattis nunc fermentum adipiscing.</tspan></text>
	</g>
	<g>
		<rect x="49.625" y="694.994" fill="none" width="850" height="104"/>
		<text transform="matrix(1 0 0 1 49.6255 706.2783)"><tspan x="0" y="0" fill="#141414" font-family="'FuturaStd-Medium'" font-size="13">Lorem ipsum dolor sit amet, consectetur adipiscing elit. Nullam quis fringilla dolor. Praesent ornare, libero ut vestibulum sodales, dolor lacus laoreet </tspan><tspan x="0" y="18" fill="#141414" font-family="'FuturaStd-Medium'" font-size="13">ante, nec faucibus neque libero quis sapien. Nullam id orci et elit dignissim vestibulum nec nec metus. Curabitur vehicula erat eu cursus hendrerit. </tspan><tspan x="0" y="36" fill="#141414" font-family="'FuturaStd-Medium'" font-size="13">Morbi vitae mi bibendum, cursus sem id, eleifend orci. Nam pulvinar et justo nec ultrices. Quisque iaculis lobortis ultrices. Fusce imperdiet blandit </tspan><tspan x="0" y="54" fill="#141414" font-family="'FuturaStd-Medium'" font-size="13">tortor congue tempor. Pellentesque tempor porta sapien eu dictum. Suspendisse non tellus massa. Duis blandit sed nulla vel suscipit. Sed laoreet </tspan><tspan x="0" y="72" fill="#141414" font-family="'FuturaStd-Medium'" font-size="13">mattis nunc fermentum adipiscing.</tspan></text>
	</g>
	<line fill="none" stroke="#92EAB0" stroke-width="1.2829" stroke-miterlimit="10" x1="49.717" y1="405" x2="892" y2="405"/>
	<line fill="none" stroke="#92EAB0" stroke-width="1.2829" stroke-miterlimit="10" x1="49.717" y1="680.5" x2="892" y2="680.5"/>
	<text transform="matrix(1 0 0 1 406.8169 652.2832)" fill="#323232" font-family="'MyriadPro-Regular'" font-size="14">Aprendizagem</text>
	<g>
		<circle fill="#39B373" cx="393.516" cy="646.206" r="6.5"/>
		<path fill="#21A765" d="M393.317,643.304v1.614l-2.733,1.974l5.282,5.338c1.627-0.701,2.687-1.611,3.307-3.28L393.317,643.304z"/>
		<polygon fill="#FFFFFF" points="396.495,646.085 393.712,643.304 393.712,644.937 390.782,644.937 390.782,646.038 
			390.782,646.892 393.712,646.892 393.712,648.868 		"/>
	</g>
	<text transform="matrix(1 0 0 1 230.2954 630.001)" fill="#323232" font-family="'MyriadPro-Regular'" font-size="14">Pitch</text>
	<g>
		<circle fill="#39B373" cx="216.995" cy="624.338" r="6.5"/>
		<path fill="#21A765" d="M216.795,621.436v1.614l-2.733,1.974l5.282,5.338c1.627-0.701,2.687-1.611,3.307-3.28L216.795,621.436z"/>
		<polygon fill="#FFFFFF" points="219.973,624.217 217.191,621.436 217.191,623.068 214.26,623.068 214.26,624.17 214.26,625.023 
			217.191,625.023 217.191,627 		"/>
	</g>
	<text transform="matrix(1 0 0 1 406.8169 629.8809)" fill="#323232" font-family="'MyriadPro-Regular'" font-size="14">Resultados</text>
	<g>
		<circle fill="#39B373" cx="393.516" cy="624.338" r="6.5"/>
		<path fill="#21A765" d="M393.317,621.436v1.614l-2.733,1.974l5.282,5.338c1.627-0.701,2.687-1.611,3.307-3.28L393.317,621.436z"/>
		<polygon fill="#FFFFFF" points="396.495,624.217 393.712,621.436 393.712,623.068 390.782,623.068 390.782,624.17 
			390.782,625.023 393.712,625.023 393.712,627 		"/>
	</g>
</g>
<g id="Layer_1">
</g>
</svg>
