<?xml version="1.0" encoding="utf-8"?>
<!-- Generator: Adobe Illustrator 16.0.0, SVG Export Plug-In . SVG Version: 6.00 Build 0)  -->
<!DOCTYPE svg PUBLIC "-//W3C//DTD SVG 1.1//EN" "http://www.w3.org/Graphics/SVG/1.1/DTD/svg11.dtd">
<svg version="1.1" id="Layer_1" xmlns="http://www.w3.org/2000/svg" xmlns:xlink="http://www.w3.org/1999/xlink" x="0px" y="0px"
	 width="940px" height="800px" viewBox="0 0 940 800" enable-background="new 0 0 940 800" xml:space="preserve">
<polyline fill="none" stroke="#406FB5" stroke-width="5" stroke-miterlimit="10" points="508.924,678.239 534.297,678.239 
	534.297,153.239 508.924,153.239 "/>
<polygon fill="#406FB5" points="471.732,678.239 97.198,678.239 167.198,153.239 401.733,153.239 "/>
<g>
	<rect x="183.301" y="220.469" fill="none" width="202.329" height="27.474"/>
	<text transform="matrix(1 0 0 1 208.4287 228.9893)"><tspan x="0" y="0" fill="#FFFFFF" font-family="'MyriadPro-Regular'" font-size="12">Faturamento anual de R$360 mil</tspan><tspan x="34.956" y="14.4" fill="#FFFFFF" font-family="'MyriadPro-Regular'" font-size="12">até R$3,6 milhões</tspan></text>
</g>
<g>
	<text transform="matrix(1 0 0 1 176.5308 209.5361)" fill="#FFFFFF" font-family="'MyriadPro-Regular'" font-size="18">Empresa de Pequeno Porte</text>
</g>
<text transform="matrix(1 0 0 1 174.2173 146.2393)" fill="#406FB5" font-family="'MyriadPro-Regular'" font-size="18">Médias e grandes empresas</text>
<g>
	<rect x="183.301" y="424.982" fill="none" width="202.329" height="13.737"/>
	<text transform="matrix(1 0 0 1 207.1147 433.5029)" fill="#FFFFFF" font-family="'MyriadPro-Regular'" font-size="12">Faturamento anual até R$360 mil</text>
</g>
<g>
	<text transform="matrix(1 0 0 1 226.2993 414.0498)" fill="#FFFFFF" font-family="'MyriadPro-Regular'" font-size="18">Microempresa</text>
</g>
<g>
	<rect x="183.301" y="627.172" fill="none" width="202.329" height="11.514"/>
	<text transform="matrix(1 0 0 1 210.0127 635.6924)" fill="#FFFFFF" font-family="'MyriadPro-Regular'" font-size="12">Faturamento anual até R$60 mil</text>
</g>
<g>
	<text transform="matrix(1 0 0 1 156.1724 616.2393)" fill="#FFFFFF" font-family="'MyriadPro-Regular'" font-size="18">Microempreendedor Individual</text>
</g>
<line fill="none" stroke="#406FB5" stroke-width="5" stroke-miterlimit="10" x1="569.924" y1="420.253" x2="534.297" y2="420.253"/>
<g>
	<rect x="595.42" y="153.239" fill="#FFFFF0" width="239" height="131"/>
	<path fill="#51BE7A" d="M834.42,153.239v131h-239v-131H834.42z M836.42,151.239h-243v135h243V151.239L836.42,151.239z"/>
	<rect x="595.42" y="300.239" fill="#FFFFF0" width="239" height="131"/>
	<path fill="#51BE7A" d="M834.42,300.239v131h-239v-131H834.42z M836.42,298.239h-243v135h243V298.239L836.42,298.239z"/>
	<rect x="595.42" y="447.239" fill="#FFFFF0" width="239" height="131"/>
	<path fill="#51BE7A" d="M834.42,447.239v131h-239v-131H834.42z M836.42,445.239h-243v135h243V445.239L836.42,445.239z"/>
	<g>
		<rect x="611.959" y="207.9" fill="none" width="204.458" height="69.188"/>
		<text transform="matrix(1 0 0 1 611.959 219.1841)"><tspan x="0" y="0" fill="#141414" font-family="'FuturaStd-Medium'" font-size="13">99% das empresas</tspan><tspan x="0" y="28" fill="#141414" font-family="'FuturaStd-Medium'" font-size="13">51,6% dos empregos </tspan><tspan x="0" y="56" fill="#141414" font-family="'FuturaStd-Medium'" font-size="13">39,7% da massa de remuneração</tspan></text>
	</g>
	<g>
		<rect x="611.959" y="328.973" fill="none" width="204.458" height="98.593"/>
		<text transform="matrix(1 0 0 1 611.959 340.2573)"><tspan x="0" y="0" fill="#141414" font-family="'FuturaStd-Medium'" font-size="13">Comércio	51,5%</tspan><tspan x="0" y="28" fill="#141414" font-family="'FuturaStd-Medium'" font-size="13">Serviços	33,3%</tspan><tspan x="0" y="56" fill="#141414" font-family="'FuturaStd-Medium'" font-size="13">Indústria	10,7%</tspan><tspan x="0" y="84" fill="#141414" font-family="'FuturaStd-Medium'" font-size="13">Construção C.	4,5%</tspan></text>
	</g>
	<g>
		<rect x="611.959" y="476.646" fill="none" width="204.458" height="98.594"/>
		<text transform="matrix(1 0 0 1 611.959 487.9297)"><tspan x="0" y="0" fill="#141414" font-family="'FuturaStd-Medium'" font-size="13">Comércio	77,7%</tspan><tspan x="0" y="28" fill="#141414" font-family="'FuturaStd-Medium'" font-size="13">Serviços	72,2%</tspan><tspan x="0" y="56" fill="#141414" font-family="'FuturaStd-Medium'" font-size="13">Indústria	79,9%</tspan><tspan x="0" y="84" fill="#141414" font-family="'FuturaStd-Medium'" font-size="13">Construção C.	72,5%</tspan></text>
	</g>
	<rect x="595.42" y="598.239" fill="#FFFFF0" width="239" height="78"/>
	<path fill="#51BE7A" d="M834.42,598.239v78h-239v-78H834.42z M836.42,596.239h-243v82h243V596.239L836.42,596.239z"/>
	<g>
		<rect x="611.959" y="627.677" fill="none" width="204.458" height="44.124"/>
		<text transform="matrix(1 0 0 1 611.959 638.9609)"><tspan x="0" y="0" fill="#141414" font-family="'FuturaStd-Medium'" font-size="13">Por oportunidade	58%</tspan><tspan x="0" y="28" fill="#141414" font-family="'FuturaStd-Medium'" font-size="13">Por necessidade	42%</tspan></text>
	</g>
	<text transform="matrix(1 0 0 1 609.2578 615.1602)" fill="#51BE7A" font-family="'FuturaStd-Bold'" font-size="13">Tipo de Empreendedorismo***</text>
	<text transform="matrix(1 0 0 1 659.1836 465.1602)" fill="#51BE7A" font-family="'FuturaStd-Bold'" font-size="13">Sobrevivência**</text>
	<text transform="matrix(1 0 0 1 689.1543 317.1602)" fill="#51BE7A" font-family="'FuturaStd-Bold'" font-size="13">Setores</text>
	<text transform="matrix(1 0 0 1 621.9912 170.4727)"><tspan x="0" y="0" fill="#51BE7A" font-family="'FuturaStd-Bold'" font-size="13">Participação na Economia </tspan><tspan x="58.231" y="28" fill="#51BE7A" font-family="'FuturaStd-Bold'" font-size="13">Nacional*</tspan></text>
</g>
</svg>
