<?xml version="1.0" encoding="utf-8"?>
<!-- Generator: Adobe Illustrator 16.0.0, SVG Export Plug-In . SVG Version: 6.00 Build 0)  -->
<!DOCTYPE svg PUBLIC "-//W3C//DTD SVG 1.1//EN" "http://www.w3.org/Graphics/SVG/1.1/DTD/svg11.dtd">
<svg version="1.1" id="Layer_1" xmlns="http://www.w3.org/2000/svg" xmlns:xlink="http://www.w3.org/1999/xlink" x="0px" y="0px"
	 width="940px" height="800px" viewBox="0 0 940 800" enable-background="new 0 0 940 800" xml:space="preserve">
<polygon fill="#406FB5" points="644.525,349 630.445,334.919 630.445,343.187 608.603,343.187 608.603,348.763 608.603,353.083 
	630.445,353.084 630.445,363.092 "/>
<g>
	<rect x="235.542" y="620.963" fill="none" width="159.105" height="42.074"/>
	<text transform="matrix(1 0 0 1 243.6079 632.248)"><tspan x="0" y="0" fill="#141414" font-family="'FuturaStd-Medium'" font-size="13">Captação e aquisição de </tspan><tspan x="16.38" y="18" fill="#141414" font-family="'FuturaStd-Medium'" font-size="13">recursos produtivos</tspan></text>
</g>
<g>
	<rect x="527.339" y="620.963" fill="none" width="192.406" height="33.074"/>
	<text transform="matrix(1 0 0 1 532.1855 632.248)"><tspan x="0" y="0" fill="#141414" font-family="'FuturaStd-Medium'" font-size="13">Comercialização (transação) de </tspan><tspan x="10.849" y="18" fill="#141414" font-family="'FuturaStd-Medium'" font-size="13">produtos e serviços fnais***</tspan></text>
</g>
<g>
	<rect x="562.352" y="90.693" fill="none" width="162.457" height="13"/>
	<text transform="matrix(1 0 0 1 562.9033 101.9775)" fill="#141414" font-family="'FuturaStd-Medium'" font-size="13">Receitas (Entradas de caixa)</text>
</g>
<g>
	<rect x="250.365" y="677.695" fill="none" width="129.458" height="31.537"/>
	<text transform="matrix(1 0 0 1 263.0171 688.9795)"><tspan x="0" y="0" fill="#141414" font-family="'FuturaStd-Medium'" font-size="13">Custos e Despesas </tspan><tspan x="4.881" y="18" fill="#141414" font-family="'FuturaStd-Medium'" font-size="13">(Saída de caixa)</tspan></text>
</g>
<g>
	<rect x="10" y="259.03" fill="#51A27A" width="279.458" height="179.951"/>
	<polygon fill="#51BE7A" points="10,285.211 10,259.211 32,259.211 	"/>
	<g>
		<text transform="matrix(1 0 0 1 35.4546 285.2114)" fill="#FFFFFF" font-family="'MyriadPro-Regular'" font-size="18">Fornecedores</text>
	</g>
	<g opacity="0.7">
		<text transform="matrix(1 0 0 1 35.4546 299.9341)" fill="#FFFFFF" font-family="'MyriadPro-Regular'" font-size="12">(Fontes de recursos)</text>
	</g>
	<g>
		<rect x="61.873" y="323.5" fill="none" width="196.421" height="101"/>
		<text transform="matrix(1 0 0 1 61.873 334.7842)"><tspan x="0" y="0" fill="#FFFFFF" font-family="'FuturaStd-Medium'" font-size="13">Capital</tspan><tspan x="0" y="40" fill="#FFFFFF" font-family="'FuturaStd-Medium'" font-size="13">Insumos, matér.-primas* e outros</tspan><tspan x="0" y="80" fill="#FFFFFF" font-family="'FuturaStd-Medium'" font-size="13">Clientes**</tspan></text>
	</g>
	<g>
		<circle fill="#FFFFFF" cx="50.874" cy="330" r="6.5"/>
		<path opacity="0.2" d="M50.674,327.098v1.613l-2.535,1.975l5.398,5.243c0.997-0.292,2.394-1.369,3.266-3.267L50.674,327.098z"/>
		<polygon fill="#39B373" points="53.852,329.879 51.071,327.098 51.071,328.73 48.139,328.73 48.139,329.832 48.139,330.686 
			51.071,330.686 51.071,332.662 		"/>
	</g>
	<g>
		<circle fill="#FFFFFF" cx="50.874" cy="369.5" r="6.5"/>
		<path opacity="0.2" d="M50.674,366.598v1.613l-2.535,1.975l5.398,5.243c0.997-0.292,2.394-1.369,3.266-3.267L50.674,366.598z"/>
		<polygon fill="#39B373" points="53.852,369.379 51.071,366.598 51.071,368.23 48.139,368.23 48.139,369.332 48.139,370.186 
			51.071,370.186 51.071,372.162 		"/>
	</g>
	<g>
		<circle fill="#FFFFFF" cx="50.874" cy="409.615" r="6.5"/>
		<path opacity="0.2" d="M50.674,406.713v1.613l-2.535,1.975l5.398,5.243c0.997-0.292,2.394-1.369,3.266-3.267L50.674,406.713z"/>
		<polygon fill="#39B373" points="53.852,409.494 51.071,406.713 51.071,408.346 48.139,408.346 48.139,409.447 48.139,410.301 
			51.071,410.301 51.071,412.277 		"/>
	</g>
</g>
<g>
	<rect x="650.542" y="259.03" fill="#51A27A" width="279.458" height="179.951"/>
	<polygon fill="#51BE7A" points="650.542,285.211 650.542,259.211 672.542,259.211 	"/>
	<g>
		<text transform="matrix(1 0 0 1 675.9961 285.2114)" fill="#FFFFFF" font-family="'MyriadPro-Regular'" font-size="18">Público-Alvo</text>
	</g>
	<g opacity="0.7">
		<text transform="matrix(1 0 0 1 675.9961 299.9341)" fill="#FFFFFF" font-family="'MyriadPro-Regular'" font-size="12">(Clientes atuais e potenciais)</text>
	</g>
	<g>
		<rect x="755.093" y="322.5" fill="none" width="87.856" height="101"/>
		<text transform="matrix(1 0 0 1 755.0928 333.7842)"><tspan x="0" y="0" fill="#FFFFFF" font-family="'FuturaStd-Medium'" font-size="13">Necessidades </tspan><tspan x="0" y="40" fill="#FFFFFF" font-family="'FuturaStd-Medium'" font-size="13">Demandas</tspan><tspan x="0" y="80" fill="#FFFFFF" font-family="'FuturaStd-Medium'" font-size="13">Desejos</tspan></text>
	</g>
	<g>
		<circle fill="#FFFFFF" cx="742.094" cy="330" r="6.5"/>
		<path opacity="0.2" d="M741.895,327.098v1.613l-2.535,1.975l5.398,5.243c0.996-0.292,2.393-1.369,3.266-3.267L741.895,327.098z"/>
		<polygon fill="#39B373" points="745.072,329.879 742.291,327.098 742.291,328.73 739.359,328.73 739.359,329.832 739.359,330.686 
			742.291,330.686 742.291,332.662 		"/>
	</g>
	<g>
		<circle fill="#FFFFFF" cx="742.094" cy="369.5" r="6.5"/>
		<path opacity="0.2" d="M741.895,366.598v1.613l-2.535,1.975l5.398,5.243c0.996-0.292,2.393-1.369,3.266-3.267L741.895,366.598z"/>
		<polygon fill="#39B373" points="745.072,369.379 742.291,366.598 742.291,368.23 739.359,368.23 739.359,369.332 739.359,370.186 
			742.291,370.186 742.291,372.162 		"/>
	</g>
	<g>
		<circle fill="#FFFFFF" cx="742.094" cy="409.615" r="6.5"/>
		<path opacity="0.2" d="M741.895,406.713v1.613l-2.535,1.975l5.398,5.243c0.996-0.292,2.393-1.369,3.266-3.267L741.895,406.713z"/>
		<polygon fill="#39B373" points="745.072,409.494 742.291,406.713 742.291,408.346 739.359,408.346 739.359,409.447 
			739.359,410.301 742.291,410.301 742.291,412.277 		"/>
	</g>
</g>
<g>
	<rect x="330" y="172.887" fill="#406FB5" width="280" height="419.11"/>
	<rect x="330" y="357.663" fill="#003259" width="280" height="123.333"/>
	<polygon fill="#003259" points="331,199.887 331,173.887 353,173.887 	"/>
	<g>
		<text transform="matrix(1 0 0 1 352.9995 205.772)" fill="#FFFFFF" font-family="'MyriadPro-Regular'" font-size="18">EMPRESA</text>
	</g>
	<g opacity="0.7">
		<text transform="matrix(1 0 0 1 352.9995 224.146)" fill="#FFFFFF" font-family="'MyriadPro-Regular'" font-size="12">Objetivo: LUCRO</text>
	</g>
	<g>
		<rect x="394.415" y="248.005" fill="none" width="173.503" height="101"/>
		<text transform="matrix(1 0 0 1 394.415 259.2896)"><tspan x="0" y="0" fill="#FFFFFF" font-family="'FuturaStd-Medium'" font-size="13">Conhecimentos e habilidades</tspan><tspan x="0" y="40" fill="#FFFFFF" font-family="'FuturaStd-Medium'" font-size="13">Mão-de-obra</tspan><tspan x="0" y="80" fill="#FFFFFF" font-family="'FuturaStd-Medium'" font-size="13">Recursos produtivos</tspan></text>
	</g>
	<g>
		<rect x="345.535" y="498.672" fill="none" width="248.968" height="72.662"/>
		<text transform="matrix(1 0 0 1 345.5347 509.9561)"><tspan x="0" y="0" fill="#FFFFFF" font-family="'FuturaStd-Medium'" font-size="13">Utilização de conhecimentos, habilidades e </tspan><tspan x="0" y="18" fill="#FFFFFF" font-family="'FuturaStd-Medium'" font-size="13">recursos produtivos para a transformação </tspan><tspan x="0" y="36" fill="#FFFFFF" font-family="'FuturaStd-Medium'" font-size="13">de insumos, matérias-primas, conhecimen-</tspan><tspan x="0" y="54" fill="#FFFFFF" font-family="'FuturaStd-Medium'" font-size="13">tos em produtos e serviços fnais.</tspan></text>
	</g>
	<g>
		<rect x="428.042" y="401.002" fill="none" width="83.915" height="36.654"/>
		<text transform="matrix(1 0 0 1 435.1597 412.2861)"><tspan x="0" y="0" fill="#FFFFFF" font-family="'FuturaStd-Medium'" font-size="13">Capacidade </tspan><tspan x="7.177" y="18" fill="#FFFFFF" font-family="'FuturaStd-Medium'" font-size="13">de gestão</tspan></text>
	</g>
	<g>
		<circle fill="#FFFFFF" cx="383.416" cy="254.505" r="6.5"/>
		<path opacity="0.2" d="M383.217,251.603v1.613l-2.535,1.975l5.398,5.243c0.997-0.292,2.394-1.369,3.266-3.267L383.217,251.603z"/>
		<polygon fill="#39B373" points="386.395,254.384 383.613,251.603 383.613,253.236 380.682,253.236 380.682,254.337 
			380.682,255.191 383.613,255.191 383.613,257.167 		"/>
	</g>
	<g>
		<circle fill="#FFFFFF" cx="383.416" cy="294.005" r="6.5"/>
		<path opacity="0.2" d="M383.217,291.103v1.613l-2.535,1.975l5.398,5.243c0.997-0.292,2.394-1.369,3.266-3.267L383.217,291.103z"/>
		<polygon fill="#39B373" points="386.395,293.884 383.613,291.103 383.613,292.736 380.682,292.736 380.682,293.837 
			380.682,294.691 383.613,294.691 383.613,296.667 		"/>
	</g>
	<g>
		<circle fill="#FFFFFF" cx="383.416" cy="334.121" r="6.5"/>
		<path opacity="0.2" d="M383.217,331.218v1.613l-2.535,1.975l5.398,5.243c0.997-0.292,2.394-1.369,3.266-3.267L383.217,331.218z"/>
		<polygon fill="#39B373" points="386.395,334 383.613,331.218 383.613,332.851 380.682,332.851 380.682,333.953 380.682,334.806 
			383.613,334.806 383.613,336.783 		"/>
	</g>
	<polygon fill="#39B373" points="483.704,437.664 483.704,457.577 489.55,451.731 500.045,462.227 503.988,458.283 507.043,455.229 
		496.548,444.732 503.625,437.656 	"/>
	
		<rect x="513.972" y="416.019" transform="matrix(0.7071 0.7072 -0.7072 0.7071 465.2133 -237.2015)" fill="#39B373" width="9.867" height="53.773"/>
	
		<rect x="517.126" y="381.905" transform="matrix(-0.7071 0.7071 -0.7071 -0.7071 1179.906 328.8489)" fill="#39B373" width="9.44" height="53.773"/>
	<polygon fill="#39B373" points="455.625,394.781 455.625,374.868 449.779,380.714 439.284,370.219 435.341,374.162 
		432.286,377.217 442.781,387.713 435.704,394.789 	"/>
	
		<rect x="415.49" y="362.653" transform="matrix(-0.7071 -0.7072 0.7072 -0.7071 442.2213 962.2714)" fill="#39B373" width="9.867" height="53.773"/>
	
		<rect x="412.763" y="396.768" transform="matrix(0.7071 -0.7071 0.7071 0.7071 -177.2909 419.2905)" fill="#39B373" width="9.44" height="53.773"/>
</g>
<polygon fill="#51A27A" points="323.232,349 309.151,334.919 309.151,343.187 287.309,343.187 287.309,348.763 287.309,353.083 
	309.151,353.084 309.151,363.092 "/>
<polyline fill="none" stroke="#406FB5" stroke-width="5" stroke-miterlimit="10" points="470.019,591.997 470.019,663.037 
	149.729,663.037 149.729,441.656 "/>
<line fill="none" stroke="#406FB5" stroke-width="5" stroke-miterlimit="10" x1="628.564" y1="610.329" x2="628.564" y2="382.442"/>
<polyline fill="none" stroke="#406FB5" stroke-width="5" stroke-miterlimit="10" points="136.294,452.721 149.729,439.285 
	163.164,452.721 "/>
<polyline fill="none" stroke="#51A27A" stroke-width="5" stroke-miterlimit="10" points="803.725,261.09 803.725,112.051 
	483.436,112.051 483.436,163.431 "/>
<polyline fill="none" stroke="#51A27A" stroke-width="5" stroke-miterlimit="10" points="470,152.367 483.436,165.802 
	496.871,152.367 "/>
<polyline fill="none" stroke="#406FB5" stroke-width="5" stroke-miterlimit="10" points="615.129,394.789 628.564,381.354 
	642,394.789 "/>
</svg>
