<?xml version="1.0" encoding="utf-8"?>
<!-- Generator: Adobe Illustrator 16.0.0, SVG Export Plug-In . SVG Version: 6.00 Build 0)  -->
<!DOCTYPE svg PUBLIC "-//W3C//DTD SVG 1.1//EN" "http://www.w3.org/Graphics/SVG/1.1/DTD/svg11.dtd">
<svg version="1.1" id="Layer_1" xmlns="http://www.w3.org/2000/svg" xmlns:xlink="http://www.w3.org/1999/xlink" x="0px" y="0px"
	 width="416.684px" height="422.044px" viewBox="0 0 416.684 422.044" enable-background="new 0 0 416.684 422.044"
	 xml:space="preserve">
<g>
	<path d="M13.617,326.238c-2.139,0-3.813-0.574-5.023-1.723s-1.815-2.631-1.815-4.447c0-1.189,0.284-2.262,0.853-3.217
		s1.361-1.683,2.377-2.185c1.017-0.5,2.169-0.751,3.458-0.751c1.307,0,2.476,0.264,3.507,0.791s1.812,1.274,2.342,2.241
		s0.795,2.01,0.795,3.129c0,1.213-0.293,2.297-0.879,3.252s-1.386,1.679-2.399,2.171S14.748,326.238,13.617,326.238z M13.643,324.48
		c1.553,0,2.776-0.417,3.669-1.253c0.894-0.834,1.34-1.882,1.34-3.142c0-1.283-0.451-2.339-1.354-3.169
		c-0.902-0.828-2.183-1.243-3.841-1.243c-1.049,0-1.964,0.177-2.747,0.532c-0.782,0.354-1.389,0.873-1.819,1.555
		c-0.431,0.684-0.646,1.449-0.646,2.299c0,1.207,0.415,2.246,1.244,3.115C10.319,324.045,11.704,324.48,13.643,324.48z"/>
	<path d="M19.892,311.938h-9.334v-1.424h1.415c-0.662-0.363-1.099-0.699-1.31-1.006c-0.211-0.309-0.316-0.646-0.316-1.016
		c0-0.533,0.17-1.075,0.51-1.626l1.468,0.545c-0.229,0.387-0.343,0.773-0.343,1.16c0,0.346,0.104,0.656,0.312,0.932
		s0.497,0.472,0.866,0.589c0.563,0.176,1.178,0.264,1.846,0.264h4.887V311.938z"/>
	<path d="M8.827,305.917H7.007v-1.582h1.819V305.917z M19.892,305.917h-9.334v-1.582h9.334V305.917z"/>
	<path d="M20.666,302.217l0.229-1.538c0.475-0.064,0.82-0.243,1.037-0.536c0.293-0.393,0.439-0.929,0.439-1.608
		c0-0.732-0.146-1.298-0.439-1.696s-0.703-0.668-1.23-0.809c-0.322-0.082-0.999-0.12-2.03-0.114
		c0.814,0.691,1.222,1.553,1.222,2.584c0,1.283-0.463,2.276-1.389,2.979s-2.036,1.055-3.331,1.055c-0.891,0-1.712-0.161-2.465-0.483
		s-1.334-0.79-1.745-1.401c-0.41-0.613-0.615-1.332-0.615-2.158c0-1.102,0.445-2.01,1.336-2.725h-1.125v-1.459h8.068
		c1.453,0,2.483,0.148,3.089,0.443c0.606,0.297,1.085,0.766,1.437,1.406c0.352,0.643,0.527,1.432,0.527,2.369
		c0,1.113-0.25,2.013-0.751,2.698S21.673,302.241,20.666,302.217z M15.058,300.908c1.225,0,2.118-0.243,2.681-0.729
		s0.844-1.096,0.844-1.828c0-0.727-0.28-1.336-0.839-1.828s-1.437-0.738-2.632-0.738c-1.143,0-2.004,0.254-2.584,0.76
		c-0.58,0.508-0.87,1.118-0.87,1.833c0,0.703,0.286,1.301,0.857,1.793S13.933,300.908,15.058,300.908z"/>
	<path d="M16.886,285.527l0.202-1.635c0.955,0.258,1.696,0.735,2.224,1.433s0.791,1.588,0.791,2.672c0,1.365-0.42,2.447-1.261,3.248
		c-0.841,0.799-2.02,1.199-3.538,1.199c-1.57,0-2.789-0.404-3.656-1.213s-1.301-1.857-1.301-3.146c0-1.248,0.425-2.268,1.274-3.059
		s2.045-1.187,3.586-1.187c0.094,0,0.234,0.003,0.422,0.009v6.961c1.025-0.059,1.811-0.349,2.355-0.87s0.817-1.172,0.817-1.951
		c0-0.58-0.152-1.075-0.457-1.485S17.554,285.767,16.886,285.527z M14.329,290.721v-5.212c-0.785,0.07-1.374,0.27-1.767,0.598
		c-0.609,0.504-0.914,1.157-0.914,1.96c0,0.727,0.243,1.338,0.729,1.832C12.864,290.395,13.514,290.668,14.329,290.721z"/>
	<path d="M19.892,281.906h-9.334v-1.415h1.31c-0.457-0.293-0.825-0.683-1.103-1.169s-0.417-1.04-0.417-1.661
		c0-0.691,0.144-1.258,0.431-1.701c0.287-0.441,0.688-0.754,1.204-0.936c-1.09-0.738-1.635-1.699-1.635-2.883
		c0-0.926,0.256-1.638,0.769-2.136s1.302-0.747,2.369-0.747h6.407v1.573h-5.88c-0.633,0-1.088,0.052-1.367,0.153
		c-0.278,0.104-0.502,0.289-0.672,0.559s-0.255,0.586-0.255,0.949c0,0.656,0.218,1.201,0.655,1.635s1.135,0.65,2.096,0.65h5.423
		v1.582h-6.064c-0.703,0-1.23,0.129-1.582,0.387s-0.527,0.68-0.527,1.266c0,0.445,0.117,0.857,0.352,1.234
		c0.234,0.379,0.577,0.652,1.028,0.822s1.102,0.255,1.951,0.255h4.843V281.906z"/>
	<path d="M19.892,255.855h-1.178c0.926,0.592,1.389,1.462,1.389,2.61c0,0.744-0.205,1.428-0.615,2.052s-0.983,1.107-1.718,1.45
		s-1.581,0.514-2.536,0.514c-0.932,0-1.777-0.155-2.536-0.466s-1.34-0.776-1.745-1.397s-0.606-1.315-0.606-2.083
		c0-0.563,0.119-1.063,0.356-1.503s0.546-0.797,0.927-1.072H7.007v-1.573h12.885V255.855z M15.234,260.856
		c1.195,0,2.089-0.252,2.681-0.756s0.888-1.099,0.888-1.784c0-0.691-0.283-1.279-0.848-1.762s-1.428-0.725-2.588-0.725
		c-1.277,0-2.215,0.246-2.813,0.738s-0.896,1.099-0.896,1.819c0,0.703,0.287,1.291,0.861,1.762S13.998,260.856,15.234,260.856z"/>
	<path d="M15.225,252.489c-1.729,0-3.009-0.48-3.841-1.441c-0.691-0.803-1.037-1.781-1.037-2.936c0-1.283,0.42-2.332,1.261-3.146
		s2.002-1.222,3.485-1.222c1.201,0,2.146,0.18,2.834,0.541s1.223,0.885,1.604,1.573s0.571,1.44,0.571,2.254
		c0,1.307-0.419,2.363-1.257,3.168S16.801,252.489,15.225,252.489z M15.225,250.863c1.195,0,2.09-0.261,2.685-0.782
		s0.892-1.178,0.892-1.969c0-0.785-0.299-1.438-0.896-1.96s-1.509-0.782-2.733-0.782c-1.154,0-2.029,0.262-2.624,0.787
		s-0.892,1.176-0.892,1.956c0,0.791,0.296,1.447,0.888,1.969S14.03,250.863,15.225,250.863z"/>
	<path d="M19.892,236.51h-8.104v1.397h-1.23v-1.397H9.565c-0.627,0-1.093-0.056-1.397-0.167c-0.41-0.152-0.743-0.42-0.998-0.804
		s-0.382-0.921-0.382-1.613c0-0.445,0.053-0.938,0.158-1.477l1.38,0.237c-0.059,0.328-0.088,0.639-0.088,0.932
		c0,0.48,0.103,0.82,0.308,1.02s0.589,0.299,1.151,0.299h0.861v-1.819h1.23v1.819h8.104V236.51z"/>
	<path d="M18.741,225.796c0.498,0.586,0.85,1.15,1.055,1.692s0.308,1.124,0.308,1.745c0,1.025-0.25,1.813-0.751,2.364
		s-1.141,0.826-1.92,0.826c-0.457,0-0.875-0.104-1.252-0.312s-0.681-0.48-0.91-0.817s-0.401-0.716-0.519-1.138
		c-0.082-0.311-0.161-0.779-0.237-1.406c-0.152-1.277-0.334-2.218-0.545-2.821c-0.217-0.006-0.354-0.009-0.413-0.009
		c-0.645,0-1.099,0.149-1.362,0.448c-0.357,0.404-0.536,1.005-0.536,1.802c0,0.744,0.13,1.293,0.391,1.648s0.722,0.617,1.384,0.787
		l-0.211,1.547c-0.662-0.141-1.197-0.372-1.604-0.694s-0.721-0.788-0.94-1.397s-0.33-1.315-0.33-2.118
		c0-0.797,0.094-1.444,0.281-1.942s0.423-0.864,0.708-1.099s0.643-0.398,1.077-0.492c0.27-0.053,0.756-0.079,1.459-0.079h2.109
		c1.471,0,2.401-0.034,2.791-0.101s0.763-0.201,1.121-0.4v1.652C19.564,225.644,19.18,225.75,18.741,225.796z M15.208,225.928
		c0.234,0.574,0.434,1.436,0.598,2.584c0.094,0.65,0.199,1.11,0.316,1.38s0.289,0.478,0.514,0.624s0.476,0.22,0.751,0.22
		c0.422,0,0.773-0.16,1.055-0.479s0.422-0.787,0.422-1.402c0-0.609-0.133-1.151-0.4-1.626s-0.631-0.823-1.094-1.046
		c-0.357-0.17-0.885-0.255-1.582-0.255H15.208z"/>
	<path d="M18.477,218.422l1.397-0.229c0.094,0.445,0.141,0.844,0.141,1.195c0,0.574-0.091,1.02-0.272,1.336s-0.42,0.539-0.716,0.668
		s-0.918,0.193-1.868,0.193h-5.37v1.16h-1.23v-1.16H8.247l-0.949-1.573h3.261v-1.591h1.23v1.591h5.458
		c0.451,0,0.741-0.028,0.87-0.083s0.231-0.146,0.308-0.272s0.114-0.306,0.114-0.541C18.539,218.941,18.518,218.709,18.477,218.422z"
		/>
	<path d="M15.225,217.464c-1.729,0-3.009-0.48-3.841-1.441c-0.691-0.803-1.037-1.781-1.037-2.936c0-1.283,0.42-2.332,1.261-3.146
		s2.002-1.222,3.485-1.222c1.201,0,2.146,0.18,2.834,0.541c0.688,0.359,1.223,0.885,1.604,1.572c0.381,0.689,0.571,1.44,0.571,2.255
		c0,1.307-0.419,2.363-1.257,3.169C18.008,217.062,16.801,217.464,15.225,217.464z M15.225,215.838c1.195,0,2.09-0.261,2.685-0.782
		s0.892-1.178,0.892-1.969c0-0.785-0.299-1.438-0.896-1.96s-1.509-0.782-2.733-0.782c-1.154,0-2.029,0.263-2.624,0.786
		c-0.595,0.525-0.892,1.177-0.892,1.956c0,0.791,0.296,1.447,0.888,1.969S14.03,215.838,15.225,215.838z"/>
	<path d="M19.892,206.882h-9.334v-1.424h1.415c-0.662-0.363-1.099-0.698-1.31-1.007c-0.211-0.307-0.316-0.646-0.316-1.015
		c0-0.533,0.17-1.075,0.51-1.626l1.468,0.545c-0.229,0.387-0.343,0.773-0.343,1.16c0,0.346,0.104,0.656,0.312,0.932
		s0.497,0.472,0.866,0.589c0.563,0.176,1.178,0.264,1.846,0.264h4.887V206.882z"/>
</g>
<g>
	<rect x="123.171" y="10.171" fill="none" width="270.731" height="41.463"/>
	<path d="M180.033,27.354l6.598-17.18h2.449l7.031,17.18h-2.59l-2.004-5.203h-7.184l-1.887,5.203H180.033z M184.99,20.3h5.824
		l-1.793-4.758c-0.547-1.445-0.953-2.633-1.219-3.563c-0.219,1.102-0.527,2.195-0.926,3.281L184.99,20.3z"/>
	<path d="M197.658,27.354V14.909h1.898v1.77c0.914-1.367,2.234-2.051,3.961-2.051c0.75,0,1.439,0.135,2.068,0.404
		s1.1,0.623,1.412,1.061s0.531,0.957,0.656,1.559c0.078,0.391,0.117,1.074,0.117,2.051v7.652h-2.109v-7.57
		c0-0.859-0.082-1.502-0.246-1.928s-0.455-0.766-0.873-1.02s-0.908-0.381-1.471-0.381c-0.898,0-1.674,0.285-2.326,0.855
		s-0.979,1.652-0.979,3.246v6.797H197.658z"/>
	<path d="M219.126,25.819c-0.781,0.664-1.533,1.133-2.256,1.406s-1.498,0.41-2.326,0.41c-1.367,0-2.418-0.334-3.152-1.002
		s-1.102-1.521-1.102-2.561c0-0.609,0.139-1.166,0.416-1.67s0.641-0.908,1.09-1.213s0.955-0.535,1.518-0.691
		c0.414-0.109,1.039-0.215,1.875-0.316c1.703-0.203,2.957-0.445,3.762-0.727c0.008-0.289,0.012-0.473,0.012-0.551
		c0-0.859-0.199-1.465-0.598-1.816c-0.539-0.477-1.34-0.715-2.402-0.715c-0.992,0-1.725,0.174-2.197,0.521s-0.822,0.963-1.049,1.846
		l-2.063-0.281c0.188-0.883,0.496-1.596,0.926-2.139s1.051-0.961,1.863-1.254s1.754-0.439,2.824-0.439
		c1.063,0,1.926,0.125,2.59,0.375s1.152,0.564,1.465,0.943s0.531,0.857,0.656,1.436c0.07,0.359,0.105,1.008,0.105,1.945v2.813
		c0,1.961,0.045,3.201,0.135,3.721s0.268,1.018,0.533,1.494h-2.203C219.33,26.917,219.189,26.405,219.126,25.819z M218.951,21.108
		c-0.766,0.313-1.914,0.578-3.445,0.797c-0.867,0.125-1.48,0.266-1.84,0.422s-0.637,0.385-0.832,0.686s-0.293,0.635-0.293,1.002
		c0,0.563,0.213,1.031,0.639,1.406s1.049,0.563,1.869,0.563c0.813,0,1.535-0.178,2.168-0.533s1.098-0.842,1.395-1.459
		c0.227-0.477,0.34-1.18,0.34-2.109V21.108z M214.849,13.362l1.559-3.281h2.766l-2.578,3.281H214.849z"/>
	<path d="M224.306,27.354v-17.18h2.109v17.18H224.306z"/>
	<path d="M229.697,12.601v-2.426h2.109v2.426H229.697z M229.697,27.354V14.909h2.109v12.445H229.697z"/>
	<path d="M234.173,23.64l2.086-0.328c0.117,0.836,0.443,1.477,0.979,1.922s1.283,0.668,2.244,0.668c0.969,0,1.688-0.197,2.156-0.592
		s0.703-0.857,0.703-1.389c0-0.477-0.207-0.852-0.621-1.125c-0.289-0.188-1.008-0.426-2.156-0.715
		c-1.547-0.391-2.619-0.729-3.217-1.014s-1.051-0.68-1.359-1.184s-0.463-1.061-0.463-1.67c0-0.555,0.127-1.068,0.381-1.541
		s0.6-0.865,1.037-1.178c0.328-0.242,0.775-0.447,1.342-0.615s1.174-0.252,1.822-0.252c0.977,0,1.834,0.141,2.572,0.422
		s1.283,0.662,1.635,1.143s0.594,1.123,0.727,1.928l-2.063,0.281c-0.094-0.641-0.365-1.141-0.814-1.5s-1.084-0.539-1.904-0.539
		c-0.969,0-1.66,0.16-2.074,0.48s-0.621,0.695-0.621,1.125c0,0.273,0.086,0.52,0.258,0.738c0.172,0.227,0.441,0.414,0.809,0.563
		c0.211,0.078,0.832,0.258,1.863,0.539c1.492,0.398,2.533,0.725,3.123,0.979s1.053,0.623,1.389,1.107s0.504,1.086,0.504,1.805
		c0,0.703-0.205,1.365-0.615,1.986s-1.002,1.102-1.775,1.441s-1.648,0.51-2.625,0.51c-1.617,0-2.85-0.336-3.697-1.008
		S234.408,24.96,234.173,23.64z"/>
	<path d="M255.537,23.347l2.18,0.27c-0.344,1.273-0.98,2.262-1.91,2.965s-2.118,1.055-3.563,1.055c-1.82,0-3.264-0.561-4.33-1.682
		s-1.6-2.693-1.6-4.717c0-2.094,0.539-3.719,1.617-4.875s2.477-1.734,4.195-1.734c1.664,0,3.024,0.566,4.079,1.699
		s1.582,2.727,1.582,4.781c0,0.125-0.004,0.313-0.012,0.563h-9.282c0.078,1.367,0.465,2.414,1.16,3.141s1.563,1.09,2.602,1.09
		c0.773,0,1.434-0.203,1.981-0.609C254.783,24.886,255.217,24.237,255.537,23.347z M248.611,19.937h6.95
		c-0.094-1.047-0.359-1.832-0.797-2.355c-0.672-0.813-1.543-1.219-2.614-1.219c-0.969,0-1.783,0.324-2.443,0.973
		S248.681,18.851,248.611,19.937z"/>
	<path d="M266.529,21.835l2.145-0.188c0.102,0.859,0.338,1.564,0.709,2.115s0.947,0.996,1.729,1.336s1.66,0.51,2.637,0.51
		c0.867,0,1.633-0.129,2.297-0.387s1.158-0.611,1.482-1.061s0.486-0.939,0.486-1.471c0-0.539-0.156-1.01-0.469-1.412
		s-0.828-0.74-1.547-1.014c-0.461-0.18-1.48-0.459-3.059-0.838s-2.684-0.736-3.316-1.072c-0.82-0.43-1.432-0.963-1.834-1.6
		s-0.604-1.35-0.604-2.139c0-0.867,0.246-1.678,0.738-2.432s1.211-1.326,2.156-1.717s1.996-0.586,3.152-0.586
		c1.273,0,2.396,0.205,3.369,0.615s1.721,1.014,2.244,1.811s0.805,1.699,0.844,2.707l-2.18,0.164
		c-0.117-1.086-0.514-1.906-1.189-2.461s-1.674-0.832-2.994-0.832c-1.375,0-2.377,0.252-3.006,0.756s-0.943,1.111-0.943,1.822
		c0,0.617,0.223,1.125,0.668,1.523c0.438,0.398,1.58,0.807,3.428,1.225s3.115,0.783,3.803,1.096c1,0.461,1.738,1.045,2.215,1.752
		s0.715,1.521,0.715,2.443c0,0.914-0.262,1.775-0.785,2.584s-1.275,1.438-2.256,1.887s-2.084,0.674-3.311,0.674
		c-1.555,0-2.857-0.227-3.908-0.68s-1.875-1.135-2.473-2.045S266.561,22.983,266.529,21.835z"/>
	<path d="M286.311,27.354l-4.559-17.18h2.332l2.613,11.262c0.281,1.18,0.523,2.352,0.727,3.516c0.438-1.836,0.695-2.895,0.773-3.176
		l3.27-11.602h2.742l2.461,8.695c0.617,2.156,1.063,4.184,1.336,6.082c0.219-1.086,0.504-2.332,0.855-3.738l2.695-11.039h2.285
		l-4.711,17.18h-2.191l-3.621-13.09c-0.305-1.094-0.484-1.766-0.539-2.016c-0.18,0.789-0.348,1.461-0.504,2.016l-3.645,13.09
		H286.311z"/>
	<path d="M305.271,18.987c0-2.852,0.766-5.084,2.297-6.697s3.508-2.42,5.93-2.42c1.586,0,3.016,0.379,4.289,1.137
		s2.244,1.814,2.912,3.17s1.002,2.893,1.002,4.611c0,1.742-0.352,3.301-1.055,4.676s-1.699,2.416-2.988,3.123
		s-2.68,1.061-4.172,1.061c-1.617,0-3.063-0.391-4.336-1.172s-2.238-1.848-2.895-3.199S305.271,20.495,305.271,18.987z
		 M307.615,19.022c0,2.07,0.557,3.701,1.67,4.893s2.51,1.787,4.189,1.787c1.711,0,3.119-0.602,4.225-1.805s1.658-2.91,1.658-5.121
		c0-1.398-0.236-2.619-0.709-3.662s-1.164-1.852-2.074-2.426s-1.932-0.861-3.064-0.861c-1.609,0-2.994,0.553-4.154,1.658
		S307.615,16.437,307.615,19.022z"/>
	<path d="M329.002,27.354V12.202h-5.66v-2.027h13.617v2.027h-5.684v15.152H329.002z"/>
	<path d="M162.653,48.955v-9.334h1.424v1.327c0.686-1.025,1.676-1.538,2.971-1.538c0.563,0,1.08,0.101,1.551,0.303
		s0.825,0.467,1.059,0.795s0.398,0.718,0.492,1.169c0.059,0.293,0.088,0.806,0.088,1.538v5.739h-1.582v-5.678
		c0-0.645-0.062-1.126-0.185-1.446s-0.341-0.574-0.655-0.765s-0.681-0.286-1.103-0.286c-0.674,0-1.255,0.214-1.745,0.642
		s-0.734,1.239-0.734,2.435v5.098H162.653z"/>
	<path d="M178.754,47.803c-0.586,0.498-1.15,0.85-1.692,1.055s-1.124,0.308-1.745,0.308c-1.025,0-1.813-0.25-2.364-0.751
		s-0.826-1.141-0.826-1.92c0-0.457,0.104-0.875,0.312-1.252s0.48-0.681,0.817-0.91s0.716-0.401,1.138-0.519
		c0.311-0.082,0.779-0.161,1.406-0.237c1.277-0.152,2.218-0.334,2.821-0.545c0.006-0.217,0.009-0.354,0.009-0.413
		c0-0.645-0.149-1.099-0.448-1.362c-0.404-0.357-1.005-0.536-1.802-0.536c-0.744,0-1.293,0.13-1.648,0.391s-0.617,0.722-0.787,1.384
		l-1.547-0.211c0.141-0.662,0.372-1.197,0.694-1.604s0.788-0.721,1.397-0.94s1.315-0.33,2.118-0.33c0.797,0,1.444,0.094,1.942,0.281
		s0.864,0.423,1.099,0.708s0.398,0.643,0.492,1.077c0.053,0.27,0.079,0.756,0.079,1.459v2.109c0,1.471,0.034,2.401,0.101,2.791
		s0.201,0.763,0.4,1.121h-1.652C178.907,48.626,178.801,48.243,178.754,47.803z M178.623,44.27
		c-0.574,0.234-1.436,0.434-2.584,0.598c-0.65,0.094-1.11,0.199-1.38,0.316s-0.478,0.289-0.624,0.514s-0.22,0.476-0.22,0.751
		c0,0.422,0.16,0.773,0.479,1.055s0.787,0.422,1.402,0.422c0.609,0,1.151-0.133,1.626-0.4s0.823-0.631,1.046-1.094
		c0.17-0.357,0.255-0.885,0.255-1.582V44.27z"/>
	<path d="M193.766,45.536l1.556,0.202c-0.17,1.072-0.605,1.912-1.305,2.518s-1.56,0.91-2.58,0.91c-1.277,0-2.304-0.417-3.081-1.252
		s-1.165-2.032-1.165-3.59c0-1.008,0.167-1.89,0.501-2.646s0.842-1.323,1.525-1.701s1.425-0.567,2.228-0.567
		c1.014,0,1.843,0.256,2.487,0.769s1.058,1.241,1.239,2.184l-1.538,0.237c-0.146-0.627-0.406-1.099-0.778-1.415
		s-0.822-0.475-1.349-0.475c-0.797,0-1.444,0.286-1.942,0.857s-0.747,1.475-0.747,2.711c0,1.254,0.24,2.165,0.721,2.733
		s1.107,0.853,1.881,0.853c0.621,0,1.14-0.19,1.556-0.571S193.655,46.327,193.766,45.536z"/>
	<path d="M196.086,44.288c0-1.729,0.48-3.009,1.441-3.841c0.803-0.691,1.781-1.037,2.936-1.037c1.283,0,2.332,0.42,3.146,1.261
		s1.222,2.002,1.222,3.485c0,1.201-0.18,2.146-0.541,2.834s-0.885,1.223-1.573,1.604s-1.44,0.571-2.254,0.571
		c-1.307,0-2.363-0.419-3.168-1.257S196.086,45.864,196.086,44.288z M197.712,44.288c0,1.195,0.261,2.09,0.782,2.685
		s1.178,0.892,1.969,0.892c0.785,0,1.438-0.299,1.96-0.896s0.782-1.509,0.782-2.733c0-1.154-0.262-2.029-0.787-2.624
		s-1.176-0.892-1.956-0.892c-0.791,0-1.447,0.296-1.969,0.888S197.712,43.092,197.712,44.288z"/>
	<path d="M206.686,48.955v-9.334h1.424v1.327c0.686-1.025,1.676-1.538,2.971-1.538c0.563,0,1.08,0.101,1.551,0.303
		s0.825,0.467,1.059,0.795s0.398,0.718,0.492,1.169c0.059,0.293,0.088,0.806,0.088,1.538v5.739h-1.582v-5.678
		c0-0.645-0.062-1.126-0.185-1.446s-0.341-0.574-0.655-0.765s-0.681-0.286-1.103-0.286c-0.674,0-1.255,0.214-1.745,0.642
		s-0.734,1.239-0.734,2.435v5.098H206.686z"/>
	<path d="M222.647,52.532v-4.57c-0.246,0.346-0.59,0.633-1.033,0.861s-0.913,0.343-1.411,0.343c-1.107,0-2.061-0.442-2.861-1.327
		s-1.2-2.098-1.2-3.639c0-0.938,0.163-1.778,0.488-2.522s0.797-1.308,1.415-1.692s1.296-0.576,2.035-0.576
		c1.154,0,2.063,0.486,2.725,1.459v-1.248h1.424v12.911H222.647z M217.769,44.261c0,1.201,0.252,2.102,0.756,2.703
		s1.107,0.901,1.811,0.901c0.674,0,1.254-0.286,1.74-0.857s0.729-1.44,0.729-2.606c0-1.242-0.256-2.177-0.769-2.804
		s-1.115-0.94-1.806-0.94c-0.686,0-1.267,0.292-1.745,0.875S217.769,43.025,217.769,44.261z"/>
	<path d="M232.825,48.955v-1.371c-0.727,1.055-1.714,1.582-2.962,1.582c-0.551,0-1.065-0.105-1.542-0.316s-0.832-0.476-1.063-0.795
		s-0.394-0.71-0.488-1.173c-0.064-0.311-0.097-0.803-0.097-1.477v-5.783h1.582v5.177c0,0.826,0.032,1.383,0.097,1.67
		c0.1,0.416,0.311,0.743,0.633,0.98s0.721,0.356,1.195,0.356s0.92-0.122,1.336-0.365s0.71-0.574,0.883-0.993
		s0.259-1.027,0.259-1.824v-5.001h1.582v9.334H232.825z"/>
	<path d="M236.727,37.889V36.07h1.582v1.819H236.727z M236.727,48.955v-9.334h1.582v9.334H236.727z"/>
	<path d="M240.084,46.168l1.564-0.246c0.088,0.627,0.333,1.107,0.734,1.441s0.962,0.501,1.683,0.501
		c0.727,0,1.266-0.148,1.617-0.444s0.527-0.643,0.527-1.042c0-0.357-0.155-0.639-0.466-0.844c-0.217-0.141-0.756-0.319-1.617-0.536
		c-1.16-0.293-1.964-0.546-2.413-0.76s-0.788-0.51-1.02-0.888s-0.347-0.795-0.347-1.252c0-0.416,0.095-0.801,0.286-1.156
		s0.45-0.649,0.778-0.883c0.246-0.182,0.582-0.335,1.006-0.461s0.88-0.189,1.367-0.189c0.732,0,1.375,0.105,1.929,0.316
		s0.962,0.497,1.226,0.857s0.445,0.842,0.545,1.446l-1.547,0.211c-0.07-0.48-0.274-0.855-0.611-1.125s-0.813-0.404-1.428-0.404
		c-0.727,0-1.245,0.12-1.556,0.36s-0.466,0.521-0.466,0.844c0,0.205,0.064,0.39,0.193,0.554c0.129,0.17,0.331,0.311,0.606,0.422
		c0.158,0.059,0.624,0.193,1.397,0.404c1.119,0.299,1.9,0.543,2.342,0.734s0.79,0.467,1.042,0.831s0.378,0.814,0.378,1.354
		c0,0.527-0.154,1.024-0.461,1.49s-0.751,0.826-1.332,1.081s-1.236,0.382-1.969,0.382c-1.213,0-2.137-0.252-2.773-0.756
		S240.26,47.159,240.084,46.168z"/>
	<path d="M253.171,47.54l0.229,1.397c-0.445,0.094-0.844,0.141-1.195,0.141c-0.574,0-1.02-0.091-1.336-0.272
		s-0.539-0.42-0.668-0.716s-0.193-0.918-0.193-1.868v-5.37h-1.16v-1.23h1.16v-2.312l1.573-0.949v3.261h1.591v1.23h-1.591v5.458
		c0,0.451,0.028,0.741,0.083,0.87s0.146,0.231,0.272,0.308s0.306,0.114,0.541,0.114C252.653,47.601,252.884,47.581,253.171,47.54z"
		/>
	<path d="M260.809,47.803c-0.586,0.498-1.15,0.85-1.691,1.055c-0.542,0.205-1.123,0.308-1.744,0.308
		c-1.025,0-1.814-0.25-2.365-0.751s-0.826-1.141-0.826-1.92c0-0.457,0.104-0.875,0.313-1.252s0.48-0.681,0.817-0.91
		s0.716-0.401,1.138-0.519c0.311-0.082,0.779-0.161,1.406-0.237c1.277-0.152,2.219-0.334,2.822-0.545
		c0.006-0.217,0.008-0.354,0.008-0.413c0-0.645-0.148-1.099-0.447-1.362c-0.404-0.357-1.006-0.536-1.803-0.536
		c-0.744,0-1.293,0.13-1.647,0.391s-0.616,0.722-0.786,1.384l-1.547-0.211c0.141-0.662,0.371-1.197,0.693-1.604
		s0.789-0.721,1.398-0.94s1.314-0.33,2.117-0.33c0.797,0,1.445,0.094,1.943,0.281s0.863,0.423,1.098,0.708s0.398,0.643,0.492,1.077
		c0.053,0.27,0.08,0.756,0.08,1.459v2.109c0,1.471,0.033,2.401,0.102,2.791c0.066,0.39,0.199,0.763,0.398,1.121h-1.652
		C260.961,48.626,260.855,48.243,260.809,47.803z M260.678,44.27c-0.574,0.234-1.436,0.434-2.584,0.598
		c-0.65,0.094-1.111,0.199-1.381,0.316s-0.477,0.289-0.623,0.514s-0.221,0.476-0.221,0.751c0,0.422,0.16,0.773,0.479,1.055
		s0.786,0.422,1.401,0.422c0.609,0,1.152-0.133,1.627-0.4s0.822-0.631,1.045-1.094c0.17-0.357,0.256-0.885,0.256-1.582V44.27z"/>
	<path d="M275.785,48.955v-1.178c-0.592,0.926-1.461,1.389-2.609,1.389c-0.744,0-1.428-0.205-2.053-0.615
		c-0.623-0.41-1.107-0.983-1.449-1.718c-0.344-0.735-0.516-1.581-0.516-2.536c0-0.932,0.156-1.777,0.467-2.536
		s0.775-1.34,1.396-1.745s1.316-0.606,2.084-0.606c0.563,0,1.063,0.119,1.502,0.356s0.797,0.546,1.072,0.927V36.07h1.574v12.885
		H275.785z M270.785,44.296c0,1.195,0.252,2.089,0.756,2.681s1.098,0.888,1.783,0.888c0.691,0,1.279-0.283,1.764-0.848
		c0.482-0.565,0.725-1.428,0.725-2.588c0-1.277-0.246-2.215-0.738-2.813s-1.1-0.896-1.82-0.896c-0.703,0-1.291,0.287-1.762,0.861
		C271.02,42.155,270.785,43.06,270.785,44.296z"/>
	<path d="M279.152,44.288c0-1.729,0.48-3.009,1.441-3.841c0.803-0.691,1.781-1.037,2.936-1.037c1.283,0,2.332,0.42,3.146,1.261
		s1.221,2.002,1.221,3.485c0,1.201-0.18,2.146-0.539,2.834c-0.361,0.688-0.887,1.223-1.574,1.604
		c-0.689,0.381-1.439,0.571-2.254,0.571c-1.307,0-2.363-0.419-3.168-1.257C279.555,47.071,279.152,45.864,279.152,44.288z
		 M280.777,44.288c0,1.195,0.262,2.09,0.783,2.685s1.178,0.892,1.969,0.892c0.785,0,1.438-0.299,1.959-0.896
		s0.783-1.509,0.783-2.733c0-1.154-0.264-2.029-0.787-2.624c-0.525-0.595-1.176-0.892-1.955-0.892c-0.791,0-1.447,0.296-1.969,0.888
		S280.777,43.092,280.777,44.288z"/>
	<path d="M294.164,44.288c0-1.729,0.48-3.009,1.441-3.841c0.803-0.691,1.781-1.037,2.936-1.037c1.283,0,2.332,0.42,3.146,1.261
		s1.221,2.002,1.221,3.485c0,1.201-0.18,2.146-0.539,2.834c-0.361,0.688-0.887,1.223-1.574,1.604
		c-0.689,0.381-1.439,0.571-2.254,0.571c-1.307,0-2.363-0.419-3.168-1.257C294.566,47.071,294.164,45.864,294.164,44.288z
		 M295.789,44.288c0,1.195,0.262,2.09,0.783,2.685s1.178,0.892,1.969,0.892c0.785,0,1.438-0.299,1.959-0.896
		s0.783-1.509,0.783-2.733c0-1.154-0.264-2.029-0.787-2.624c-0.525-0.595-1.176-0.892-1.955-0.892c-0.791,0-1.447,0.296-1.969,0.888
		S295.789,43.092,295.789,44.288z"/>
	<path d="M306.223,48.955h-1.469V36.07h1.582v4.597c0.668-0.838,1.521-1.257,2.559-1.257c0.574,0,1.117,0.116,1.631,0.347
		c0.512,0.231,0.934,0.557,1.266,0.976c0.33,0.419,0.59,0.924,0.777,1.516s0.281,1.225,0.281,1.898c0,1.6-0.396,2.836-1.188,3.709
		s-1.74,1.31-2.848,1.31c-1.102,0-1.965-0.46-2.592-1.38V48.955z M306.205,44.217c0,1.119,0.152,1.928,0.457,2.426
		c0.498,0.814,1.172,1.222,2.021,1.222c0.691,0,1.289-0.3,1.793-0.901s0.756-1.496,0.756-2.685c0-1.219-0.242-2.118-0.725-2.698
		c-0.484-0.58-1.068-0.87-1.754-0.87c-0.691,0-1.289,0.3-1.793,0.901S306.205,43.081,306.205,44.217z"/>
	<path d="M312.762,52.576l0.299-1.345c0.316,0.082,0.564,0.123,0.746,0.123c0.322,0,0.563-0.107,0.721-0.321
		s0.238-0.749,0.238-1.604v-9.809h1.582v9.844c0,1.148-0.15,1.948-0.449,2.399c-0.381,0.586-1.014,0.879-1.898,0.879
		C313.572,52.743,313.16,52.687,312.762,52.576z M314.766,37.907V36.07h1.582v1.837H314.766z"/>
	<path d="M325.162,45.949l1.635,0.202c-0.258,0.955-0.734,1.696-1.432,2.224s-1.588,0.791-2.672,0.791
		c-1.365,0-2.447-0.42-3.248-1.261c-0.799-0.841-1.199-2.02-1.199-3.538c0-1.57,0.404-2.789,1.213-3.656s1.857-1.301,3.146-1.301
		c1.248,0,2.268,0.425,3.059,1.274s1.186,2.045,1.186,3.586c0,0.094-0.002,0.234-0.008,0.422h-6.961
		c0.059,1.025,0.348,1.811,0.869,2.355s1.172,0.817,1.951,0.817c0.58,0,1.076-0.152,1.486-0.457S324.922,46.617,325.162,45.949z
		 M319.969,43.391h5.211c-0.07-0.785-0.27-1.374-0.598-1.767c-0.504-0.609-1.156-0.914-1.959-0.914
		c-0.727,0-1.338,0.243-1.832,0.729C320.295,41.926,320.021,42.577,319.969,43.391z"/>
	<path d="M332.238,47.54l0.229,1.397c-0.445,0.094-0.844,0.141-1.195,0.141c-0.574,0-1.02-0.091-1.336-0.272
		s-0.539-0.42-0.668-0.716s-0.193-0.918-0.193-1.868v-5.37h-1.16v-1.23h1.16v-2.312l1.572-0.949v3.261h1.592v1.23h-1.592v5.458
		c0,0.451,0.027,0.741,0.084,0.87c0.055,0.129,0.146,0.231,0.273,0.308c0.125,0.076,0.305,0.114,0.539,0.114
		C331.719,47.601,331.951,47.581,332.238,47.54z"/>
	<path d="M333.793,37.889V36.07h1.582v1.819H333.793z M333.793,48.955v-9.334h1.582v9.334H333.793z"/>
	<path d="M340.377,48.955l-3.551-9.334h1.67l2.004,5.59c0.217,0.604,0.416,1.23,0.598,1.881c0.141-0.492,0.336-1.084,0.588-1.775
		l2.074-5.695h1.627l-3.533,9.334H340.377z"/>
	<path d="M346.195,44.288c0-1.729,0.48-3.009,1.441-3.841c0.803-0.691,1.781-1.037,2.936-1.037c1.283,0,2.332,0.42,3.146,1.261
		s1.221,2.002,1.221,3.485c0,1.201-0.18,2.146-0.539,2.834c-0.361,0.688-0.887,1.223-1.574,1.604
		c-0.689,0.381-1.439,0.571-2.254,0.571c-1.307,0-2.363-0.419-3.168-1.257C346.598,47.071,346.195,45.864,346.195,44.288z
		 M347.82,44.288c0,1.195,0.262,2.09,0.783,2.685s1.178,0.892,1.969,0.892c0.785,0,1.438-0.299,1.959-0.896s0.783-1.509,0.783-2.733
		c0-1.154-0.264-2.029-0.787-2.624c-0.525-0.595-1.176-0.892-1.955-0.892c-0.791,0-1.447,0.296-1.969,0.888
		S347.82,43.092,347.82,44.288z"/>
</g>
<rect x="103.073" y="111.284" fill="#449047" width="144" height="144.002"/>
<rect x="103.073" y="64.634" fill="#50A17A" width="144" height="37.432"/>
<rect x="272.684" y="111.284" fill="#426FB4" width="144" height="144.002"/>
<rect x="103.073" y="277.628" fill="#883F95" width="144" height="144.002"/>
<rect x="38.878" y="111.284" fill="#50A17A" width="56.196" height="144.002"/>
<rect x="38.878" y="278.042" fill="#50A17A" width="56.196" height="144.002"/>
<rect x="272.684" y="277.628" fill="#DB5428" width="144" height="144.002"/>
<g>
	<g>
		<path fill="#FFFFFF" d="M149.045,217.972v-12.885h8.692v1.521h-6.987v3.99h6.047v1.521h-6.047v5.854H149.045z"/>
		<path fill="#FFFFFF" d="M159.161,213.305c0-1.729,0.48-3.009,1.441-3.841c0.803-0.691,1.781-1.037,2.936-1.037
			c1.283,0,2.332,0.421,3.146,1.261c0.814,0.842,1.222,2.003,1.222,3.485c0,1.201-0.18,2.146-0.541,2.835s-0.885,1.223-1.573,1.604
			s-1.44,0.571-2.254,0.571c-1.307,0-2.363-0.419-3.168-1.257S159.161,214.881,159.161,213.305z M160.787,213.305
			c0,1.195,0.261,2.091,0.782,2.686s1.178,0.892,1.969,0.892c0.785,0,1.438-0.299,1.96-0.896s0.782-1.509,0.782-2.733
			c0-1.154-0.262-2.028-0.787-2.623s-1.176-0.893-1.956-0.893c-0.791,0-1.447,0.296-1.969,0.888S160.787,212.109,160.787,213.305z"
			/>
		<path fill="#FFFFFF" d="M169.743,217.972v-9.334h1.424v1.415c0.363-0.662,0.699-1.099,1.006-1.31s0.646-0.316,1.015-0.316
			c0.533,0,1.075,0.17,1.626,0.51l-0.545,1.468c-0.387-0.229-0.773-0.343-1.16-0.343c-0.346,0-0.656,0.104-0.932,0.312
			c-0.275,0.209-0.472,0.497-0.589,0.866c-0.176,0.563-0.264,1.178-0.264,1.846v4.887H169.743z"/>
		<path fill="#FFFFFF" d="M181.846,214.553l1.556,0.202c-0.17,1.072-0.605,1.911-1.305,2.519c-0.7,0.605-1.56,0.909-2.58,0.909
			c-1.277,0-2.304-0.417-3.081-1.253c-0.776-0.834-1.165-2.031-1.165-3.59c0-1.008,0.167-1.89,0.501-2.646s0.842-1.323,1.525-1.7
			c0.683-0.379,1.425-0.567,2.228-0.567c1.014,0,1.843,0.257,2.487,0.769c0.645,0.514,1.058,1.241,1.239,2.185l-1.538,0.237
			c-0.146-0.627-0.406-1.099-0.778-1.415s-0.822-0.475-1.349-0.475c-0.797,0-1.444,0.286-1.942,0.856
			c-0.498,0.572-0.747,1.476-0.747,2.712c0,1.254,0.24,2.165,0.721,2.733s1.107,0.853,1.881,0.853c0.621,0,1.14-0.19,1.556-0.571
			S181.734,215.344,181.846,214.553z M178.181,219.149l0.457-1.556h1.178l-0.29,0.94c0.498,0.059,0.873,0.212,1.125,0.462
			c0.252,0.248,0.378,0.525,0.378,0.83c0,0.439-0.211,0.827-0.633,1.164s-1.058,0.506-1.907,0.506c-0.48,0-0.902-0.035-1.266-0.105
			l0.097-1.028c0.375,0.023,0.65,0.035,0.826,0.035c0.551,0,0.938-0.076,1.16-0.229c0.17-0.117,0.255-0.261,0.255-0.431
			c0-0.105-0.034-0.199-0.101-0.281s-0.192-0.152-0.374-0.211S178.603,219.155,178.181,219.149z"/>
		<path fill="#FFFFFF" d="M190.845,216.82c-0.586,0.498-1.149,0.85-1.691,1.055s-1.124,0.308-1.744,0.308
			c-1.026,0-1.814-0.251-2.365-0.751c-0.551-0.502-0.826-1.142-0.826-1.921c0-0.457,0.104-0.874,0.312-1.253
			c0.208-0.377,0.48-0.681,0.817-0.909s0.716-0.401,1.138-0.519c0.311-0.082,0.779-0.161,1.406-0.237
			c1.277-0.152,2.218-0.334,2.822-0.545c0.005-0.217,0.008-0.354,0.008-0.413c0-0.645-0.148-1.099-0.447-1.362
			c-0.404-0.357-1.006-0.536-1.803-0.536c-0.744,0-1.293,0.131-1.647,0.391c-0.354,0.262-0.617,0.723-0.786,1.385l-1.547-0.211
			c0.141-0.662,0.372-1.196,0.694-1.604c0.322-0.407,0.788-0.721,1.398-0.941c0.608-0.219,1.314-0.329,2.117-0.329
			c0.797,0,1.444,0.094,1.943,0.281c0.497,0.188,0.863,0.424,1.098,0.708s0.398,0.643,0.492,1.076c0.053,0.27,0.08,0.756,0.08,1.459
			v2.109c0,1.471,0.033,2.401,0.101,2.791s0.2,0.763,0.399,1.12h-1.652C190.998,217.644,190.892,217.26,190.845,216.82z
			 M190.714,213.287c-0.575,0.234-1.437,0.434-2.584,0.598c-0.65,0.094-1.111,0.199-1.381,0.316s-0.478,0.289-0.623,0.514
			c-0.147,0.227-0.221,0.477-0.221,0.752c0,0.422,0.16,0.773,0.479,1.055s0.786,0.422,1.401,0.422c0.609,0,1.152-0.133,1.627-0.4
			c0.475-0.266,0.822-0.631,1.045-1.094c0.17-0.357,0.256-0.885,0.256-1.582V213.287z"/>
		<path fill="#FFFFFF" d="M194.133,215.186l1.564-0.246c0.088,0.627,0.332,1.107,0.733,1.441s0.963,0.501,1.684,0.501
			c0.727,0,1.266-0.147,1.617-0.444c0.352-0.295,0.527-0.643,0.527-1.041c0-0.357-0.155-0.639-0.466-0.844
			c-0.217-0.141-0.756-0.319-1.617-0.536c-1.16-0.293-1.964-0.546-2.413-0.761c-0.447-0.213-0.788-0.51-1.02-0.887
			c-0.231-0.379-0.347-0.796-0.347-1.253c0-0.416,0.095-0.801,0.286-1.155c0.189-0.354,0.449-0.649,0.777-0.884
			c0.246-0.182,0.581-0.335,1.006-0.462c0.425-0.125,0.881-0.188,1.367-0.188c0.732,0,1.375,0.105,1.93,0.316
			c0.553,0.211,0.962,0.497,1.226,0.856c0.264,0.361,0.445,0.843,0.545,1.446l-1.547,0.211c-0.07-0.48-0.274-0.855-0.61-1.125
			c-0.338-0.27-0.813-0.404-1.429-0.404c-0.727,0-1.245,0.12-1.556,0.36s-0.466,0.521-0.466,0.844c0,0.205,0.064,0.39,0.193,0.554
			c0.129,0.17,0.331,0.311,0.606,0.422c0.158,0.059,0.624,0.193,1.397,0.404c1.119,0.299,1.899,0.544,2.343,0.733
			c0.441,0.191,0.789,0.468,1.041,0.831s0.378,0.814,0.378,1.354c0,0.527-0.153,1.024-0.462,1.489
			c-0.307,0.467-0.751,0.826-1.331,1.082c-0.58,0.254-1.236,0.382-1.969,0.382c-1.213,0-2.138-0.252-2.772-0.756
			C194.714,216.923,194.309,216.176,194.133,215.186z"/>
	</g>
	<g>
		<path fill="#FFFFFF" d="M161.222,172.906l4.289-0.375c0.203,1.719,0.676,3.129,1.418,4.23s1.895,1.992,3.457,2.672
			s3.32,1.02,5.273,1.02c1.734,0,3.266-0.258,4.594-0.773s2.316-1.223,2.965-2.121s0.973-1.879,0.973-2.941
			c0-1.078-0.313-2.02-0.938-2.824s-1.656-1.48-3.094-2.027c-0.922-0.359-2.961-0.918-6.117-1.676s-5.367-1.473-6.633-2.145
			c-1.641-0.859-2.863-1.926-3.668-3.199s-1.207-2.699-1.207-4.277c0-1.734,0.492-3.355,1.477-4.863s2.422-2.652,4.313-3.434
			s3.992-1.172,6.305-1.172c2.547,0,4.793,0.41,6.738,1.23s3.441,2.027,4.488,3.621s1.609,3.398,1.688,5.414l-4.359,0.328
			c-0.234-2.172-1.027-3.813-2.379-4.922s-3.348-1.664-5.988-1.664c-2.75,0-4.754,0.504-6.012,1.512s-1.887,2.223-1.887,3.645
			c0,1.234,0.445,2.25,1.336,3.047c0.875,0.797,3.16,1.613,6.855,2.449s6.23,1.566,7.605,2.191c2,0.922,3.477,2.09,4.43,3.504
			s1.43,3.043,1.43,4.887c0,1.828-0.523,3.551-1.57,5.168s-2.551,2.875-4.512,3.773s-4.168,1.348-6.621,1.348
			c-3.109,0-5.715-0.453-7.816-1.359s-3.75-2.27-4.945-4.09S161.284,175.203,161.222,172.906z"/>
	</g>
</g>
<g>
	<g>
		<path fill="#FFFFFF" d="M303.639,217.972v-12.885h8.692v1.521h-6.987v3.99h6.047v1.521h-6.047v5.854H303.639z"/>
		<path fill="#FFFFFF" d="M314.326,217.972v-9.334h1.424v1.415c0.363-0.662,0.699-1.099,1.006-1.31
			c0.309-0.211,0.646-0.316,1.016-0.316c0.533,0,1.075,0.17,1.626,0.51l-0.545,1.468c-0.387-0.229-0.773-0.343-1.16-0.343
			c-0.346,0-0.656,0.104-0.932,0.312c-0.275,0.209-0.472,0.497-0.589,0.866c-0.176,0.563-0.264,1.178-0.264,1.846v4.887H314.326z"/>
		<path fill="#FFFFFF" d="M326.429,216.82c-0.586,0.498-1.149,0.85-1.692,1.055c-0.541,0.205-1.123,0.308-1.744,0.308
			c-1.025,0-1.813-0.251-2.364-0.751c-0.551-0.502-0.826-1.142-0.826-1.921c0-0.457,0.104-0.874,0.312-1.253
			c0.209-0.377,0.48-0.681,0.818-0.909c0.336-0.229,0.716-0.401,1.138-0.519c0.311-0.082,0.779-0.161,1.406-0.237
			c1.277-0.152,2.218-0.334,2.821-0.545c0.006-0.217,0.009-0.354,0.009-0.413c0-0.645-0.149-1.099-0.448-1.362
			c-0.404-0.357-1.005-0.536-1.802-0.536c-0.744,0-1.294,0.131-1.647,0.391c-0.355,0.262-0.617,0.723-0.787,1.385l-1.547-0.211
			c0.141-0.662,0.372-1.196,0.694-1.604s0.788-0.721,1.397-0.941c0.609-0.219,1.315-0.329,2.118-0.329
			c0.797,0,1.444,0.094,1.942,0.281s0.864,0.424,1.099,0.708s0.398,0.643,0.492,1.076c0.053,0.27,0.079,0.756,0.079,1.459v2.109
			c0,1.471,0.033,2.401,0.102,2.791c0.066,0.39,0.2,0.763,0.399,1.12h-1.652C326.581,217.644,326.476,217.26,326.429,216.82z
			 M326.297,213.287c-0.574,0.234-1.436,0.434-2.584,0.598c-0.65,0.094-1.11,0.199-1.38,0.316s-0.478,0.289-0.624,0.514
			c-0.146,0.227-0.22,0.477-0.22,0.752c0,0.422,0.159,0.773,0.479,1.055c0.318,0.281,0.786,0.422,1.401,0.422
			c0.609,0,1.151-0.133,1.626-0.4c0.475-0.266,0.823-0.631,1.046-1.094c0.17-0.357,0.255-0.885,0.255-1.582V213.287z"/>
		<path fill="#FFFFFF" d="M336.299,221.549v-4.57c-0.246,0.346-0.59,0.633-1.033,0.861c-0.441,0.229-0.912,0.343-1.41,0.343
			c-1.107,0-2.061-0.442-2.861-1.327c-0.799-0.885-1.199-2.098-1.199-3.639c0-0.938,0.162-1.778,0.488-2.522
			c0.324-0.744,0.797-1.308,1.414-1.692c0.619-0.383,1.297-0.575,2.035-0.575c1.154,0,2.063,0.486,2.725,1.459v-1.248h1.424v12.911
			H336.299z M331.421,213.278c0,1.201,0.252,2.103,0.756,2.702c0.504,0.602,1.107,0.901,1.811,0.901c0.674,0,1.254-0.286,1.74-0.856
			c0.486-0.572,0.729-1.44,0.729-2.606c0-1.242-0.256-2.177-0.77-2.804c-0.512-0.627-1.114-0.94-1.806-0.94
			c-0.686,0-1.267,0.292-1.745,0.874C331.66,211.133,331.421,212.042,331.421,213.278z"/>
		<path fill="#FFFFFF" d="M346.477,217.972v-1.371c-0.727,1.055-1.714,1.582-2.962,1.582c-0.551,0-1.065-0.105-1.542-0.316
			c-0.479-0.211-0.832-0.476-1.064-0.796c-0.23-0.318-0.394-0.71-0.487-1.173c-0.064-0.311-0.097-0.803-0.097-1.477v-5.783h1.582
			v5.177c0,0.826,0.032,1.383,0.097,1.67c0.1,0.416,0.311,0.742,0.633,0.98c0.322,0.236,0.721,0.355,1.195,0.355
			s0.92-0.121,1.336-0.365c0.416-0.242,0.71-0.573,0.884-0.992c0.172-0.419,0.259-1.027,0.259-1.824v-5.001h1.582v9.334H346.477z"/>
		<path fill="#FFFFFF" d="M356.76,214.966l1.635,0.202c-0.258,0.955-0.735,1.696-1.433,2.224s-1.588,0.791-2.672,0.791
			c-1.365,0-2.448-0.42-3.247-1.261c-0.801-0.841-1.2-2.021-1.2-3.538c0-1.57,0.404-2.789,1.213-3.656s1.857-1.301,3.146-1.301
			c1.248,0,2.268,0.425,3.059,1.274s1.187,2.045,1.187,3.586c0,0.094-0.003,0.234-0.009,0.422h-6.961
			c0.059,1.025,0.349,1.811,0.87,2.355s1.172,0.817,1.951,0.817c0.58,0,1.075-0.152,1.485-0.457S356.52,215.634,356.76,214.966z
			 M351.565,212.408h5.212c-0.07-0.785-0.27-1.374-0.598-1.767c-0.504-0.609-1.157-0.914-1.96-0.914
			c-0.727,0-1.337,0.243-1.833,0.729C351.893,210.943,351.618,211.594,351.565,212.408z"/>
		<path fill="#FFFFFF" d="M359.546,217.972v-1.283l5.941-6.82c-0.674,0.035-1.269,0.053-1.784,0.053h-3.806v-1.283h7.629v1.046
			l-5.054,5.924l-0.976,1.081c0.709-0.053,1.374-0.079,1.995-0.079h4.315v1.362H359.546z"/>
		<path fill="#FFFFFF" d="M375.472,216.82c-0.586,0.498-1.15,0.85-1.692,1.055s-1.123,0.308-1.744,0.308
			c-1.025,0-1.813-0.251-2.364-0.751c-0.551-0.502-0.826-1.142-0.826-1.921c0-0.457,0.104-0.874,0.312-1.253
			c0.208-0.377,0.48-0.681,0.818-0.909c0.336-0.229,0.716-0.401,1.138-0.519c0.311-0.082,0.779-0.161,1.406-0.237
			c1.277-0.152,2.218-0.334,2.821-0.545c0.006-0.217,0.009-0.354,0.009-0.413c0-0.645-0.149-1.099-0.448-1.362
			c-0.404-0.357-1.005-0.536-1.802-0.536c-0.744,0-1.294,0.131-1.647,0.391c-0.355,0.262-0.617,0.723-0.787,1.385l-1.547-0.211
			c0.141-0.662,0.372-1.196,0.694-1.604s0.788-0.721,1.397-0.941c0.609-0.219,1.315-0.329,2.118-0.329
			c0.797,0,1.444,0.094,1.942,0.281s0.864,0.424,1.099,0.708s0.398,0.643,0.492,1.076c0.053,0.27,0.079,0.756,0.079,1.459v2.109
			c0,1.471,0.033,2.401,0.102,2.791c0.066,0.39,0.2,0.763,0.399,1.12h-1.652C375.624,217.644,375.519,217.26,375.472,216.82z
			 M375.34,213.287c-0.574,0.234-1.436,0.434-2.584,0.598c-0.65,0.094-1.11,0.199-1.38,0.316s-0.478,0.289-0.624,0.514
			c-0.146,0.227-0.22,0.477-0.22,0.752c0,0.422,0.159,0.773,0.479,1.055c0.318,0.281,0.786,0.422,1.401,0.422
			c0.609,0,1.151-0.133,1.626-0.4c0.475-0.266,0.823-0.631,1.046-1.094c0.17-0.357,0.255-0.885,0.255-1.582V213.287z"/>
		<path fill="#FFFFFF" d="M378.759,215.186l1.564-0.246c0.088,0.627,0.332,1.107,0.733,1.441s0.963,0.501,1.684,0.501
			c0.727,0,1.266-0.147,1.617-0.444c0.352-0.295,0.527-0.643,0.527-1.041c0-0.357-0.155-0.639-0.466-0.844
			c-0.217-0.141-0.756-0.319-1.617-0.536c-1.16-0.293-1.964-0.546-2.413-0.761c-0.447-0.213-0.788-0.51-1.02-0.887
			c-0.231-0.379-0.347-0.796-0.347-1.253c0-0.416,0.095-0.801,0.286-1.155c0.189-0.354,0.449-0.649,0.777-0.884
			c0.246-0.182,0.581-0.335,1.006-0.462c0.425-0.125,0.881-0.188,1.367-0.188c0.732,0,1.375,0.105,1.93,0.316
			c0.553,0.211,0.962,0.497,1.226,0.856c0.264,0.361,0.445,0.843,0.545,1.446l-1.547,0.211c-0.07-0.48-0.274-0.855-0.61-1.125
			c-0.338-0.27-0.813-0.404-1.429-0.404c-0.727,0-1.245,0.12-1.556,0.36s-0.466,0.521-0.466,0.844c0,0.205,0.064,0.39,0.193,0.554
			c0.129,0.17,0.331,0.311,0.606,0.422c0.158,0.059,0.624,0.193,1.397,0.404c1.119,0.299,1.899,0.544,2.343,0.733
			c0.441,0.191,0.789,0.468,1.041,0.831s0.378,0.814,0.378,1.354c0,0.527-0.153,1.024-0.462,1.489
			c-0.307,0.467-0.751,0.826-1.331,1.082c-0.58,0.254-1.236,0.382-1.969,0.382c-1.213,0-2.138-0.252-2.772-0.756
			C379.34,216.923,378.935,216.176,378.759,215.186z"/>
	</g>
	<g>
		<path fill="#FFFFFF" d="M331.733,183.945l-9.117-34.359h4.664l5.227,22.523c0.563,2.359,1.047,4.703,1.453,7.031
			c0.875-3.672,1.391-5.789,1.547-6.352l6.539-23.203h5.484l4.922,17.391c1.234,4.313,2.125,8.367,2.672,12.164
			c0.438-2.172,1.008-4.664,1.711-7.477l5.391-22.078h4.57l-9.422,34.359h-4.383l-7.242-26.18c-0.609-2.188-0.969-3.531-1.078-4.031
			c-0.359,1.578-0.695,2.922-1.008,4.031l-7.289,26.18H331.733z"/>
	</g>
</g>
<g>
	<g>
		<path fill="#FFFFFF" d="M116.903,378.287c0-2.139,0.574-3.813,1.723-5.022s2.631-1.815,4.447-1.815
			c1.189,0,2.262,0.284,3.217,0.853s1.683,1.361,2.184,2.377c0.501,1.018,0.751,2.17,0.751,3.459c0,1.307-0.264,2.476-0.791,3.507
			s-1.274,1.813-2.241,2.343s-2.01,0.795-3.129,0.795c-1.213,0-2.297-0.293-3.252-0.879s-1.679-1.386-2.171-2.399
			S116.903,379.417,116.903,378.287z M118.661,378.313c0,1.553,0.417,2.776,1.252,3.67s1.882,1.34,3.142,1.34
			c1.283,0,2.339-0.451,3.168-1.354s1.244-2.183,1.244-3.841c0-1.049-0.177-1.964-0.532-2.747c-0.354-0.781-0.873-1.389-1.556-1.818
			c-0.683-0.432-1.449-0.646-2.298-0.646c-1.207,0-2.246,0.415-3.116,1.244S118.661,376.374,118.661,378.313z"/>
		<path fill="#FFFFFF" d="M131.221,388.139v-12.911h1.441v1.213c0.34-0.475,0.724-0.831,1.151-1.067
			c0.428-0.238,0.946-0.356,1.556-0.356c0.797,0,1.5,0.205,2.109,0.615s1.069,0.989,1.38,1.735c0.311,0.748,0.466,1.566,0.466,2.457
			c0,0.955-0.171,1.814-0.514,2.58c-0.343,0.764-0.841,1.351-1.494,1.758c-0.653,0.406-1.34,0.61-2.061,0.61
			c-0.527,0-1-0.111-1.419-0.334s-0.763-0.504-1.033-0.844v4.544H131.221z M132.653,379.948c0,1.201,0.243,2.089,0.729,2.663
			s1.075,0.861,1.767,0.861c0.703,0,1.305-0.297,1.806-0.892s0.751-1.517,0.751-2.765c0-1.189-0.245-2.08-0.734-2.672
			s-1.074-0.888-1.753-0.888c-0.674,0-1.27,0.315-1.789,0.945S132.653,378.747,132.653,379.948z"/>
		<path fill="#FFFFFF" d="M140.643,379.895c0-1.729,0.48-3.009,1.441-3.841c0.803-0.691,1.781-1.037,2.936-1.037
			c1.283,0,2.332,0.421,3.146,1.261c0.814,0.842,1.222,2.003,1.222,3.485c0,1.201-0.18,2.146-0.541,2.835s-0.885,1.223-1.573,1.604
			s-1.44,0.571-2.254,0.571c-1.307,0-2.363-0.419-3.168-1.257S140.643,381.471,140.643,379.895z M142.269,379.895
			c0,1.195,0.261,2.091,0.782,2.686s1.178,0.892,1.969,0.892c0.785,0,1.438-0.299,1.96-0.896s0.782-1.509,0.782-2.733
			c0-1.154-0.262-2.028-0.787-2.623s-1.176-0.893-1.956-0.893c-0.791,0-1.447,0.296-1.969,0.888S142.269,378.7,142.269,379.895z"/>
		<path fill="#FFFFFF" d="M151.225,384.562v-9.334h1.424v1.415c0.363-0.662,0.699-1.099,1.006-1.31s0.646-0.316,1.015-0.316
			c0.533,0,1.075,0.17,1.626,0.51l-0.545,1.468c-0.387-0.229-0.773-0.343-1.16-0.343c-0.346,0-0.656,0.104-0.932,0.312
			c-0.275,0.209-0.472,0.497-0.589,0.866c-0.176,0.563-0.264,1.178-0.264,1.846v4.887H151.225z"/>
		<path fill="#FFFFFF" d="M160.69,383.147l0.229,1.397c-0.445,0.094-0.844,0.141-1.195,0.141c-0.574,0-1.02-0.091-1.336-0.272
			s-0.539-0.42-0.668-0.717c-0.129-0.295-0.193-0.918-0.193-1.867v-5.37h-1.16v-1.23h1.16v-2.312l1.573-0.949v3.261h1.591v1.23
			H159.1v5.458c0,0.451,0.028,0.741,0.083,0.87s0.146,0.231,0.272,0.308s0.306,0.114,0.541,0.114
			C160.172,383.208,160.403,383.188,160.69,383.147z"/>
		<path fill="#FFFFFF" d="M168.354,384.562v-1.371c-0.727,1.055-1.714,1.582-2.962,1.582c-0.551,0-1.065-0.105-1.542-0.316
			s-0.832-0.476-1.063-0.796c-0.231-0.318-0.394-0.71-0.488-1.173c-0.064-0.311-0.097-0.803-0.097-1.477v-5.783h1.582v5.177
			c0,0.826,0.032,1.383,0.097,1.67c0.1,0.416,0.311,0.742,0.633,0.98c0.322,0.236,0.721,0.355,1.195,0.355s0.92-0.121,1.336-0.365
			c0.416-0.242,0.71-0.573,0.883-0.992s0.259-1.027,0.259-1.824v-5.001h1.582v9.334H168.354z"/>
		<path fill="#FFFFFF" d="M172.248,384.562v-9.334h1.424v1.327c0.686-1.025,1.676-1.538,2.971-1.538c0.563,0,1.08,0.101,1.551,0.304
			c0.472,0.201,0.825,0.467,1.059,0.795s0.398,0.718,0.492,1.169c0.059,0.293,0.088,0.806,0.088,1.538v5.739h-1.582v-5.678
			c0-0.645-0.062-1.126-0.185-1.446c-0.123-0.318-0.341-0.573-0.655-0.764s-0.681-0.286-1.103-0.286
			c-0.674,0-1.255,0.214-1.745,0.642s-0.734,1.239-0.734,2.435v5.098H172.248z"/>
		<path fill="#FFFFFF" d="M182.268,373.497v-1.819h1.582v1.819H182.268z M182.268,384.562v-9.334h1.582v9.334H182.268z"/>
		<path fill="#FFFFFF" d="M192.314,384.562v-1.178c-0.593,0.926-1.463,1.389-2.611,1.389c-0.744,0-1.428-0.205-2.052-0.615
			s-1.107-0.982-1.45-1.718s-0.514-1.581-0.514-2.536c0-0.932,0.154-1.776,0.465-2.536c0.311-0.758,0.776-1.34,1.398-1.744
			c0.62-0.404,1.314-0.606,2.082-0.606c0.563,0,1.064,0.118,1.504,0.356c0.439,0.236,0.796,0.546,1.072,0.927v-4.623h1.572v12.885
			H192.314z M187.312,379.904c0,1.195,0.252,2.089,0.756,2.681s1.1,0.888,1.785,0.888c0.69,0,1.278-0.282,1.762-0.849
			c0.483-0.564,0.725-1.428,0.725-2.588c0-1.277-0.246-2.215-0.738-2.813s-1.098-0.896-1.818-0.896
			c-0.703,0-1.291,0.287-1.763,0.861S187.312,378.667,187.312,379.904z"/>
		<path fill="#FFFFFF" d="M202.359,383.411c-0.586,0.498-1.15,0.85-1.691,1.055c-0.543,0.205-1.124,0.308-1.745,0.308
			c-1.025,0-1.813-0.251-2.364-0.751c-0.551-0.502-0.826-1.142-0.826-1.921c0-0.457,0.104-0.874,0.313-1.253
			c0.207-0.377,0.479-0.681,0.816-0.909s0.717-0.401,1.139-0.519c0.311-0.082,0.779-0.161,1.406-0.237
			c1.277-0.152,2.218-0.334,2.821-0.545c0.006-0.217,0.009-0.354,0.009-0.413c0-0.645-0.149-1.099-0.448-1.362
			c-0.404-0.357-1.005-0.536-1.802-0.536c-0.744,0-1.294,0.131-1.648,0.391c-0.354,0.262-0.616,0.723-0.786,1.385l-1.547-0.211
			c0.141-0.662,0.372-1.196,0.694-1.604s0.788-0.721,1.397-0.941c0.609-0.219,1.315-0.329,2.118-0.329
			c0.797,0,1.444,0.094,1.942,0.281s0.864,0.424,1.099,0.708s0.398,0.643,0.492,1.076c0.053,0.27,0.079,0.756,0.079,1.459v2.109
			c0,1.471,0.033,2.401,0.101,2.791s0.201,0.763,0.4,1.12h-1.652C202.511,384.234,202.406,383.85,202.359,383.411z M202.227,379.877
			c-0.574,0.234-1.436,0.434-2.584,0.598c-0.65,0.094-1.11,0.199-1.38,0.316s-0.478,0.289-0.624,0.514
			c-0.146,0.227-0.22,0.477-0.22,0.752c0,0.422,0.159,0.773,0.479,1.055s0.787,0.422,1.402,0.422c0.609,0,1.151-0.133,1.626-0.4
			c0.475-0.266,0.823-0.631,1.046-1.094c0.17-0.357,0.255-0.885,0.255-1.582V379.877z"/>
		<path fill="#FFFFFF" d="M212.335,384.562v-1.178c-0.592,0.926-1.462,1.389-2.61,1.389c-0.744,0-1.429-0.205-2.052-0.615
			c-0.625-0.41-1.107-0.982-1.451-1.718c-0.342-0.735-0.514-1.581-0.514-2.536c0-0.932,0.155-1.776,0.466-2.536
			c0.311-0.758,0.776-1.34,1.397-1.744s1.315-0.606,2.083-0.606c0.563,0,1.063,0.118,1.503,0.356
			c0.439,0.236,0.797,0.546,1.072,0.927v-4.623h1.573v12.885H212.335z M207.334,379.904c0,1.195,0.252,2.089,0.756,2.681
			s1.099,0.888,1.784,0.888c0.691,0,1.279-0.282,1.762-0.849c0.484-0.564,0.726-1.428,0.726-2.588c0-1.277-0.246-2.215-0.738-2.813
			s-1.099-0.896-1.819-0.896c-0.703,0-1.291,0.287-1.762,0.861C207.57,377.762,207.334,378.667,207.334,379.904z"/>
		<path fill="#FFFFFF" d="M222.679,381.556l1.635,0.202c-0.258,0.955-0.735,1.696-1.433,2.224s-1.588,0.791-2.672,0.791
			c-1.365,0-2.448-0.42-3.247-1.261c-0.801-0.841-1.2-2.021-1.2-3.538c0-1.57,0.404-2.789,1.213-3.656s1.857-1.301,3.146-1.301
			c1.248,0,2.268,0.425,3.059,1.274s1.187,2.045,1.187,3.586c0,0.094-0.003,0.234-0.009,0.422h-6.961
			c0.059,1.025,0.349,1.811,0.87,2.355s1.172,0.817,1.951,0.817c0.58,0,1.075-0.152,1.485-0.457S222.439,382.224,222.679,381.556z
			 M217.485,378.999h5.212c-0.07-0.785-0.27-1.374-0.598-1.767c-0.504-0.609-1.157-0.914-1.96-0.914
			c-0.727,0-1.338,0.243-1.833,0.729S217.538,378.184,217.485,378.999z"/>
		<path fill="#FFFFFF" d="M225.668,381.776l1.564-0.246c0.088,0.627,0.332,1.107,0.733,1.441s0.963,0.501,1.684,0.501
			c0.727,0,1.266-0.147,1.617-0.444c0.352-0.295,0.527-0.643,0.527-1.041c0-0.357-0.155-0.639-0.466-0.844
			c-0.217-0.141-0.756-0.319-1.617-0.536c-1.16-0.293-1.964-0.546-2.413-0.761c-0.447-0.213-0.788-0.51-1.02-0.887
			c-0.231-0.379-0.347-0.796-0.347-1.253c0-0.416,0.095-0.801,0.286-1.155c0.189-0.354,0.449-0.649,0.777-0.884
			c0.246-0.182,0.581-0.335,1.006-0.462c0.425-0.125,0.881-0.188,1.367-0.188c0.732,0,1.375,0.105,1.93,0.316
			c0.553,0.211,0.962,0.497,1.226,0.856c0.264,0.361,0.445,0.843,0.545,1.446l-1.547,0.211c-0.07-0.48-0.274-0.855-0.61-1.125
			c-0.338-0.27-0.813-0.404-1.429-0.404c-0.727,0-1.245,0.12-1.556,0.36s-0.466,0.521-0.466,0.844c0,0.205,0.064,0.39,0.193,0.554
			c0.129,0.17,0.331,0.311,0.606,0.422c0.158,0.059,0.624,0.193,1.397,0.404c1.119,0.299,1.899,0.544,2.343,0.733
			c0.441,0.191,0.789,0.468,1.041,0.831s0.378,0.814,0.378,1.354c0,0.527-0.153,1.024-0.462,1.489
			c-0.307,0.467-0.751,0.826-1.331,1.082c-0.58,0.254-1.236,0.382-1.969,0.382c-1.213,0-2.138-0.252-2.772-0.756
			C226.25,383.513,225.844,382.766,225.668,381.776z"/>
	</g>
	<g>
		<path fill="#FFFFFF" d="M158.726,333.309c0-5.703,1.531-10.168,4.594-13.395s7.016-4.84,11.859-4.84
			c3.172,0,6.031,0.758,8.578,2.273s4.488,3.629,5.824,6.34s2.004,5.785,2.004,9.223c0,3.484-0.703,6.602-2.109,9.352
			s-3.398,4.832-5.977,6.246s-5.359,2.121-8.344,2.121c-3.234,0-6.125-0.781-8.672-2.344s-4.477-3.695-5.789-6.398
			S158.726,336.325,158.726,333.309z M163.413,333.379c0,4.141,1.113,7.402,3.34,9.785s5.02,3.574,8.379,3.574
			c3.422,0,6.238-1.203,8.449-3.609s3.316-5.82,3.316-10.242c0-2.797-0.473-5.238-1.418-7.324s-2.328-3.703-4.148-4.852
			s-3.863-1.723-6.129-1.723c-3.219,0-5.988,1.105-8.309,3.316S163.413,328.208,163.413,333.379z"/>
	</g>
</g>
<g>
	<g>
		<path fill="#FFFFFF" d="M307.141,384.562l4.949-12.885h1.836l5.273,12.885h-1.941l-1.504-3.902h-5.387l-1.416,3.902H307.141z
			 M310.859,379.271h4.367l-1.344-3.568c-0.41-1.084-0.715-1.975-0.914-2.672c-0.164,0.826-0.396,1.646-0.695,2.461L310.859,379.271
			z"/>
		<path fill="#FFFFFF" d="M320.359,384.562v-9.334h1.416v1.31c0.293-0.457,0.682-0.824,1.168-1.104
			c0.486-0.277,1.041-0.417,1.662-0.417c0.691,0,1.258,0.144,1.7,0.431s0.755,0.688,0.937,1.204c0.738-1.09,1.699-1.635,2.883-1.635
			c0.926,0,1.637,0.257,2.135,0.769c0.498,0.514,0.748,1.303,0.748,2.369v6.407h-1.574v-5.88c0-0.633-0.051-1.088-0.153-1.367
			c-0.103-0.277-0.288-0.502-0.558-0.672s-0.586-0.255-0.949-0.255c-0.656,0-1.201,0.219-1.635,0.655s-0.65,1.135-0.65,2.096v5.423
			h-1.582v-6.064c0-0.703-0.129-1.23-0.387-1.582s-0.68-0.527-1.266-0.527c-0.445,0-0.857,0.117-1.235,0.352
			s-0.651,0.577-0.821,1.028s-0.256,1.102-0.256,1.951v4.843H320.359z"/>
		<path fill="#FFFFFF" d="M341.744,381.556l1.635,0.202c-0.258,0.955-0.736,1.696-1.434,2.224s-1.588,0.791-2.672,0.791
			c-1.365,0-2.447-0.42-3.247-1.261s-1.2-2.021-1.2-3.538c0-1.57,0.404-2.789,1.213-3.656s1.857-1.301,3.146-1.301
			c1.248,0,2.268,0.425,3.059,1.274s1.188,2.045,1.188,3.586c0,0.094-0.004,0.234-0.01,0.422h-6.961
			c0.059,1.025,0.35,1.811,0.871,2.355s1.172,0.817,1.951,0.817c0.58,0,1.074-0.152,1.484-0.457S341.504,382.224,341.744,381.556z
			 M336.549,378.999h5.213c-0.07-0.785-0.27-1.374-0.598-1.767c-0.504-0.609-1.158-0.914-1.961-0.914
			c-0.727,0-1.337,0.243-1.832,0.729S336.602,378.184,336.549,378.999z"/>
		<path fill="#FFFFFF" d="M351.455,383.411c-0.586,0.498-1.149,0.85-1.691,1.055s-1.123,0.308-1.744,0.308
			c-1.025,0-1.814-0.251-2.365-0.751c-0.551-0.502-0.826-1.142-0.826-1.921c0-0.457,0.104-0.874,0.313-1.253
			c0.208-0.377,0.48-0.681,0.817-0.909s0.716-0.401,1.138-0.519c0.311-0.082,0.779-0.161,1.406-0.237
			c1.277-0.152,2.219-0.334,2.822-0.545c0.006-0.217,0.008-0.354,0.008-0.413c0-0.645-0.148-1.099-0.447-1.362
			c-0.404-0.357-1.006-0.536-1.803-0.536c-0.744,0-1.293,0.131-1.647,0.391c-0.354,0.262-0.616,0.723-0.786,1.385l-1.547-0.211
			c0.141-0.662,0.371-1.196,0.693-1.604s0.789-0.721,1.398-0.941c0.609-0.219,1.314-0.329,2.117-0.329
			c0.797,0,1.445,0.094,1.943,0.281s0.863,0.424,1.098,0.708s0.398,0.643,0.492,1.076c0.053,0.27,0.08,0.756,0.08,1.459v2.109
			c0,1.471,0.033,2.401,0.101,2.791s0.2,0.763,0.399,1.12h-1.652C351.607,384.234,351.502,383.85,351.455,383.411z M351.324,379.877
			c-0.574,0.234-1.436,0.434-2.584,0.598c-0.65,0.094-1.111,0.199-1.381,0.316s-0.477,0.289-0.623,0.514
			c-0.146,0.227-0.221,0.477-0.221,0.752c0,0.422,0.16,0.773,0.479,1.055s0.786,0.422,1.401,0.422c0.609,0,1.152-0.133,1.627-0.4
			c0.475-0.266,0.822-0.631,1.045-1.094c0.17-0.357,0.256-0.885,0.256-1.582V379.877z"/>
		<path fill="#FFFFFF" d="M361.467,381.143l1.555,0.202c-0.17,1.072-0.604,1.911-1.305,2.519c-0.7,0.605-1.561,0.909-2.58,0.909
			c-1.277,0-2.304-0.417-3.08-1.253c-0.776-0.834-1.164-2.031-1.164-3.59c0-1.008,0.166-1.89,0.5-2.646s0.843-1.323,1.525-1.7
			c0.683-0.379,1.425-0.567,2.229-0.567c1.013,0,1.842,0.257,2.486,0.769c0.645,0.514,1.058,1.241,1.24,2.185l-1.539,0.237
			c-0.146-0.627-0.405-1.099-0.777-1.415s-0.822-0.475-1.35-0.475c-0.797,0-1.444,0.286-1.941,0.856
			c-0.499,0.572-0.748,1.476-0.748,2.712c0,1.254,0.24,2.165,0.721,2.733s1.107,0.853,1.881,0.853c0.621,0,1.14-0.19,1.557-0.571
			C361.091,382.52,361.354,381.934,361.467,381.143z M357.801,385.74l0.457-1.556h1.178l-0.289,0.94
			c0.497,0.059,0.872,0.212,1.125,0.462c0.251,0.248,0.377,0.525,0.377,0.83c0,0.439-0.211,0.827-0.633,1.164
			s-1.058,0.506-1.906,0.506c-0.481,0-0.903-0.035-1.266-0.105l0.096-1.028c0.375,0.023,0.65,0.035,0.826,0.035
			c0.551,0,0.938-0.076,1.16-0.229c0.17-0.117,0.256-0.261,0.256-0.431c0-0.105-0.034-0.199-0.102-0.281s-0.192-0.152-0.373-0.211
			C358.524,385.778,358.223,385.746,357.801,385.74z"/>
		<path fill="#FFFFFF" d="M370.467,383.411c-0.586,0.498-1.15,0.85-1.691,1.055c-0.543,0.205-1.124,0.308-1.745,0.308
			c-1.025,0-1.813-0.251-2.364-0.751c-0.551-0.502-0.826-1.142-0.826-1.921c0-0.457,0.104-0.874,0.313-1.253
			c0.207-0.377,0.479-0.681,0.816-0.909s0.717-0.401,1.139-0.519c0.311-0.082,0.779-0.161,1.406-0.237
			c1.277-0.152,2.218-0.334,2.821-0.545c0.006-0.217,0.009-0.354,0.009-0.413c0-0.645-0.149-1.099-0.448-1.362
			c-0.404-0.357-1.005-0.536-1.802-0.536c-0.744,0-1.294,0.131-1.648,0.391c-0.354,0.262-0.616,0.723-0.786,1.385l-1.547-0.211
			c0.141-0.662,0.372-1.196,0.694-1.604s0.788-0.721,1.397-0.941c0.609-0.219,1.315-0.329,2.118-0.329
			c0.797,0,1.444,0.094,1.942,0.281s0.864,0.424,1.099,0.708s0.398,0.643,0.492,1.076c0.053,0.27,0.079,0.756,0.079,1.459v2.109
			c0,1.471,0.033,2.401,0.101,2.791s0.201,0.763,0.4,1.12h-1.652C370.619,384.234,370.514,383.85,370.467,383.411z M370.335,379.877
			c-0.574,0.234-1.436,0.434-2.584,0.598c-0.65,0.094-1.11,0.199-1.38,0.316s-0.478,0.289-0.624,0.514
			c-0.146,0.227-0.22,0.477-0.22,0.752c0,0.422,0.159,0.773,0.479,1.055s0.787,0.422,1.402,0.422c0.609,0,1.151-0.133,1.626-0.4
			c0.475-0.266,0.823-0.631,1.046-1.094c0.17-0.357,0.255-0.885,0.255-1.582V379.877z"/>
		<path fill="#FFFFFF" d="M373.753,381.776l1.564-0.246c0.088,0.627,0.332,1.107,0.733,1.441s0.963,0.501,1.684,0.501
			c0.727,0,1.266-0.147,1.617-0.444c0.352-0.295,0.527-0.643,0.527-1.041c0-0.357-0.155-0.639-0.466-0.844
			c-0.217-0.141-0.756-0.319-1.617-0.536c-1.16-0.293-1.964-0.546-2.413-0.761c-0.447-0.213-0.788-0.51-1.02-0.887
			c-0.231-0.379-0.347-0.796-0.347-1.253c0-0.416,0.095-0.801,0.286-1.155c0.189-0.354,0.449-0.649,0.777-0.884
			c0.246-0.182,0.581-0.335,1.006-0.462c0.425-0.125,0.881-0.188,1.367-0.188c0.732,0,1.375,0.105,1.93,0.316
			c0.553,0.211,0.962,0.497,1.226,0.856c0.264,0.361,0.445,0.843,0.545,1.446l-1.547,0.211c-0.07-0.48-0.274-0.855-0.61-1.125
			c-0.338-0.27-0.813-0.404-1.429-0.404c-0.727,0-1.245,0.12-1.556,0.36s-0.466,0.521-0.466,0.844c0,0.205,0.064,0.39,0.193,0.554
			c0.129,0.17,0.331,0.311,0.606,0.422c0.158,0.059,0.624,0.193,1.397,0.404c1.119,0.299,1.899,0.544,2.343,0.733
			c0.441,0.191,0.789,0.468,1.041,0.831s0.378,0.814,0.378,1.354c0,0.527-0.153,1.024-0.462,1.489
			c-0.307,0.467-0.751,0.826-1.331,1.082c-0.58,0.254-1.236,0.382-1.969,0.382c-1.213,0-2.138-0.252-2.772-0.756
			C374.334,383.513,373.929,382.766,373.753,381.776z"/>
	</g>
	<g>
		<path fill="#FFFFFF" d="M342.901,350.043v-30.305h-11.32v-4.055h27.234v4.055h-11.367v30.305H342.901z"/>
	</g>
</g>
<g>
	<path fill="#FFFFFF" d="M152.028,88.151l4.948-12.885h1.837l5.273,12.885h-1.942l-1.503-3.902h-5.388l-1.415,3.902H152.028z
		 M155.746,82.86h4.368l-1.345-3.568c-0.41-1.084-0.715-1.975-0.914-2.672c-0.164,0.826-0.396,1.646-0.694,2.461L155.746,82.86z"/>
	<path fill="#FFFFFF" d="M163.234,91.772l0.299-1.345c0.316,0.082,0.565,0.123,0.747,0.123c0.322,0,0.563-0.107,0.721-0.32
		c0.158-0.215,0.237-0.749,0.237-1.604v-9.809h1.582v9.844c0,1.148-0.149,1.948-0.448,2.399c-0.381,0.586-1.014,0.879-1.898,0.879
		C164.046,91.939,163.633,91.883,163.234,91.772z M165.238,77.103v-1.837h1.582v1.837H165.238z"/>
	<path fill="#FFFFFF" d="M175.363,88.151V86.78c-0.727,1.055-1.714,1.582-2.962,1.582c-0.551,0-1.065-0.105-1.542-0.316
		s-0.832-0.476-1.063-0.796c-0.231-0.318-0.394-0.71-0.488-1.173c-0.064-0.311-0.097-0.803-0.097-1.477v-5.783h1.582v5.177
		c0,0.826,0.032,1.383,0.097,1.67c0.1,0.416,0.311,0.742,0.633,0.98c0.322,0.236,0.721,0.355,1.195,0.355s0.92-0.121,1.336-0.365
		c0.416-0.242,0.71-0.573,0.883-0.992s0.259-1.027,0.259-1.824v-5.001h1.582v9.334H175.363z"/>
	<path fill="#FFFFFF" d="M185.313,88.151v-1.178c-0.592,0.926-1.462,1.389-2.61,1.389c-0.744,0-1.428-0.205-2.052-0.615
		s-1.107-0.982-1.45-1.718s-0.514-1.581-0.514-2.536c0-0.932,0.155-1.776,0.466-2.536c0.311-0.758,0.776-1.34,1.397-1.744
		s1.315-0.606,2.083-0.606c0.563,0,1.063,0.118,1.503,0.356c0.439,0.236,0.797,0.546,1.072,0.927v-4.623h1.573v12.885H185.313z
		 M180.312,83.493c0,1.195,0.252,2.089,0.756,2.681s1.099,0.888,1.784,0.888c0.691,0,1.279-0.282,1.762-0.849
		c0.483-0.564,0.725-1.428,0.725-2.588c0-1.277-0.246-2.215-0.738-2.813s-1.099-0.896-1.819-0.896c-0.703,0-1.291,0.287-1.762,0.861
		S180.312,82.256,180.312,83.493z"/>
	<path fill="#FFFFFF" d="M195.358,87c-0.586,0.498-1.15,0.85-1.691,1.055c-0.543,0.205-1.124,0.308-1.745,0.308
		c-1.025,0-1.813-0.251-2.364-0.751c-0.551-0.502-0.826-1.142-0.826-1.921c0-0.457,0.104-0.874,0.313-1.253
		c0.207-0.377,0.479-0.681,0.816-0.909s0.717-0.401,1.139-0.519c0.311-0.082,0.779-0.161,1.406-0.237
		c1.277-0.152,2.218-0.334,2.821-0.545c0.006-0.217,0.009-0.354,0.009-0.413c0-0.645-0.149-1.099-0.448-1.362
		c-0.404-0.357-1.005-0.536-1.802-0.536c-0.744,0-1.294,0.131-1.648,0.391c-0.354,0.262-0.616,0.723-0.786,1.385l-1.547-0.211
		c0.141-0.662,0.372-1.196,0.694-1.604s0.788-0.721,1.397-0.941c0.609-0.219,1.315-0.329,2.118-0.329
		c0.797,0,1.444,0.094,1.942,0.281s0.864,0.424,1.099,0.708s0.398,0.643,0.492,1.076c0.053,0.27,0.079,0.756,0.079,1.459v2.109
		c0,1.471,0.033,2.401,0.101,2.791s0.201,0.763,0.4,1.12h-1.652C195.511,87.823,195.405,87.439,195.358,87z M195.227,83.466
		c-0.574,0.234-1.436,0.434-2.584,0.598c-0.65,0.094-1.11,0.199-1.38,0.316s-0.478,0.289-0.624,0.514
		c-0.146,0.227-0.22,0.477-0.22,0.752c0,0.422,0.159,0.773,0.479,1.055s0.787,0.422,1.402,0.422c0.609,0,1.151-0.133,1.626-0.4
		c0.475-0.266,0.823-0.631,1.046-1.094c0.17-0.357,0.255-0.885,0.255-1.582V83.466z"/>
</g>
<rect x="272.682" y="64.634" fill="#50A17A" width="144.002" height="37.432"/>
<g>
	<path fill="#FFFFFF" d="M306.129,88.151l4.948-12.885h1.837l5.273,12.885h-1.942l-1.503-3.902h-5.388l-1.415,3.902H306.129z
		 M309.847,82.86h4.368l-1.345-3.568c-0.41-1.084-0.715-1.975-0.914-2.672c-0.164,0.826-0.396,1.646-0.694,2.461L309.847,82.86z"/>
	<path fill="#FFFFFF" d="M322.802,86.736l0.229,1.397c-0.445,0.094-0.844,0.141-1.195,0.141c-0.574,0-1.02-0.091-1.336-0.272
		s-0.539-0.42-0.668-0.717c-0.129-0.295-0.193-0.918-0.193-1.867v-5.37h-1.16v-1.23h1.16v-2.312l1.573-0.949v3.261h1.591v1.23
		h-1.591v5.458c0,0.451,0.027,0.741,0.084,0.87c0.055,0.129,0.146,0.231,0.271,0.308c0.127,0.076,0.307,0.114,0.541,0.114
		C322.283,86.797,322.515,86.777,322.802,86.736z"/>
	<path fill="#FFFFFF" d="M324.331,88.151v-9.334h1.424v1.415c0.363-0.662,0.698-1.099,1.007-1.31
		c0.307-0.211,0.646-0.316,1.015-0.316c0.533,0,1.075,0.17,1.626,0.51l-0.545,1.468c-0.387-0.229-0.773-0.343-1.16-0.343
		c-0.346,0-0.656,0.104-0.932,0.312c-0.275,0.209-0.472,0.497-0.589,0.866c-0.176,0.563-0.264,1.178-0.264,1.846v4.887H324.331z"/>
	<path fill="#FFFFFF" d="M336.434,87c-0.586,0.498-1.15,0.85-1.691,1.055c-0.543,0.205-1.124,0.308-1.745,0.308
		c-1.025,0-1.813-0.251-2.364-0.751c-0.551-0.502-0.826-1.142-0.826-1.921c0-0.457,0.104-0.874,0.313-1.253
		c0.207-0.377,0.48-0.681,0.816-0.909c0.338-0.229,0.717-0.401,1.139-0.519c0.311-0.082,0.779-0.161,1.406-0.237
		c1.277-0.152,2.218-0.334,2.821-0.545c0.006-0.217,0.009-0.354,0.009-0.413c0-0.645-0.149-1.099-0.448-1.362
		c-0.404-0.357-1.005-0.536-1.802-0.536c-0.744,0-1.293,0.131-1.648,0.391c-0.354,0.262-0.616,0.723-0.786,1.385l-1.547-0.211
		c0.141-0.662,0.372-1.196,0.694-1.604s0.788-0.721,1.397-0.941c0.609-0.219,1.315-0.329,2.118-0.329
		c0.797,0,1.444,0.094,1.942,0.281s0.864,0.424,1.099,0.708s0.398,0.643,0.492,1.076c0.053,0.27,0.079,0.756,0.079,1.459v2.109
		c0,1.471,0.034,2.401,0.101,2.791c0.068,0.39,0.201,0.763,0.4,1.12h-1.652C336.586,87.823,336.48,87.439,336.434,87z
		 M336.302,83.466c-0.574,0.234-1.436,0.434-2.584,0.598c-0.65,0.094-1.11,0.199-1.38,0.316s-0.478,0.289-0.624,0.514
		c-0.146,0.227-0.22,0.477-0.22,0.752c0,0.422,0.16,0.773,0.479,1.055c0.32,0.281,0.787,0.422,1.402,0.422
		c0.609,0,1.151-0.133,1.626-0.4c0.475-0.266,0.823-0.631,1.046-1.094c0.17-0.357,0.255-0.885,0.255-1.582V83.466z"/>
	<path fill="#FFFFFF" d="M340.354,91.728V78.817h1.441v1.213c0.34-0.475,0.724-0.831,1.151-1.067
		c0.428-0.238,0.946-0.356,1.556-0.356c0.797,0,1.5,0.205,2.109,0.615s1.069,0.989,1.38,1.735c0.311,0.748,0.466,1.566,0.466,2.457
		c0,0.955-0.172,1.814-0.514,2.58c-0.344,0.764-0.842,1.351-1.494,1.758c-0.654,0.406-1.341,0.61-2.062,0.61
		c-0.527,0-1.001-0.111-1.419-0.334c-0.42-0.223-0.764-0.504-1.033-0.844v4.544H340.354z M341.786,83.537
		c0,1.201,0.243,2.089,0.729,2.663s1.075,0.861,1.767,0.861c0.703,0,1.306-0.297,1.806-0.892c0.502-0.595,0.752-1.517,0.752-2.765
		c0-1.189-0.244-2.08-0.734-2.672c-0.488-0.592-1.073-0.888-1.753-0.888c-0.674,0-1.271,0.315-1.788,0.945
		C342.045,81.42,341.786,82.335,341.786,83.537z"/>
	<path fill="#FFFFFF" d="M356.455,87c-0.586,0.498-1.15,0.85-1.691,1.055c-0.543,0.205-1.124,0.308-1.745,0.308
		c-1.025,0-1.813-0.251-2.364-0.751c-0.551-0.502-0.826-1.142-0.826-1.921c0-0.457,0.104-0.874,0.313-1.253
		c0.207-0.377,0.48-0.681,0.816-0.909c0.338-0.229,0.717-0.401,1.139-0.519c0.311-0.082,0.779-0.161,1.406-0.237
		c1.277-0.152,2.217-0.334,2.82-0.545c0.006-0.217,0.01-0.354,0.01-0.413c0-0.645-0.15-1.099-0.449-1.362
		c-0.404-0.357-1.004-0.536-1.801-0.536c-0.744,0-1.293,0.131-1.648,0.391c-0.354,0.262-0.616,0.723-0.786,1.385l-1.547-0.211
		c0.141-0.662,0.372-1.196,0.694-1.604s0.788-0.721,1.397-0.941c0.609-0.219,1.315-0.329,2.118-0.329
		c0.797,0,1.443,0.094,1.941,0.281s0.865,0.424,1.1,0.708s0.398,0.643,0.492,1.076c0.053,0.27,0.078,0.756,0.078,1.459v2.109
		c0,1.471,0.035,2.401,0.102,2.791c0.068,0.39,0.201,0.763,0.4,1.12h-1.652C356.607,87.823,356.502,87.439,356.455,87z
		 M356.322,83.466c-0.574,0.234-1.436,0.434-2.583,0.598c-0.65,0.094-1.11,0.199-1.38,0.316s-0.478,0.289-0.624,0.514
		c-0.146,0.227-0.22,0.477-0.22,0.752c0,0.422,0.16,0.773,0.479,1.055c0.32,0.281,0.787,0.422,1.402,0.422
		c0.609,0,1.151-0.133,1.625-0.4c0.475-0.266,0.824-0.631,1.047-1.094c0.17-0.357,0.254-0.885,0.254-1.582V83.466z"/>
	<path fill="#FFFFFF" d="M360.34,88.151V75.266h1.582v12.885H360.34z"/>
	<path fill="#FFFFFF" d="M364.375,88.151V75.266h1.582v4.623c0.738-0.855,1.67-1.283,2.795-1.283c0.691,0,1.291,0.136,1.801,0.409
		c0.51,0.271,0.875,0.648,1.094,1.129c0.221,0.48,0.33,1.178,0.33,2.092v5.915h-1.582v-5.915c0-0.791-0.172-1.367-0.514-1.727
		c-0.344-0.361-0.828-0.541-1.455-0.541c-0.469,0-0.91,0.122-1.322,0.365c-0.414,0.243-0.707,0.572-0.883,0.988
		s-0.264,0.99-0.264,1.723v5.106H364.375z"/>
	<path fill="#FFFFFF" d="M380.475,87c-0.586,0.498-1.15,0.85-1.691,1.055c-0.543,0.205-1.123,0.308-1.744,0.308
		c-1.025,0-1.814-0.251-2.365-0.751c-0.551-0.502-0.826-1.142-0.826-1.921c0-0.457,0.104-0.874,0.313-1.253
		c0.207-0.377,0.48-0.681,0.816-0.909c0.338-0.229,0.717-0.401,1.139-0.519c0.311-0.082,0.779-0.161,1.406-0.237
		c1.277-0.152,2.219-0.334,2.822-0.545c0.006-0.217,0.008-0.354,0.008-0.413c0-0.645-0.148-1.099-0.447-1.362
		c-0.404-0.357-1.006-0.536-1.803-0.536c-0.744,0-1.293,0.131-1.648,0.391c-0.354,0.262-0.615,0.723-0.785,1.385l-1.547-0.211
		c0.141-0.662,0.371-1.196,0.693-1.604s0.789-0.721,1.398-0.941c0.609-0.219,1.314-0.329,2.117-0.329
		c0.797,0,1.445,0.094,1.943,0.281s0.863,0.424,1.098,0.708s0.398,0.643,0.492,1.076c0.053,0.27,0.08,0.756,0.08,1.459v2.109
		c0,1.471,0.033,2.401,0.1,2.791c0.068,0.39,0.201,0.763,0.4,1.12h-1.652C380.627,87.823,380.521,87.439,380.475,87z
		 M380.344,83.466c-0.574,0.234-1.436,0.434-2.584,0.598c-0.65,0.094-1.111,0.199-1.381,0.316s-0.477,0.289-0.623,0.514
		c-0.146,0.227-0.221,0.477-0.221,0.752c0,0.422,0.16,0.773,0.479,1.055c0.32,0.281,0.787,0.422,1.402,0.422
		c0.609,0,1.152-0.133,1.627-0.4c0.475-0.266,0.822-0.631,1.045-1.094c0.17-0.357,0.256-0.885,0.256-1.582V83.466z"/>
</g>
<g>
	<path fill="#FFFFFF" d="M60.977,379.636H48.092v-9.316h1.521v7.611h3.946v-7.128h1.512v7.128h4.386v-7.91h1.521V379.636z"/>
	<path fill="#FFFFFF" d="M60.977,368.922l-4.852-3.41l-4.482,3.155v-1.978l2.188-1.433c0.416-0.27,0.765-0.486,1.046-0.65
		c-0.387-0.258-0.729-0.495-1.028-0.712l-2.206-1.573v-1.89l4.395,3.226l4.939-3.472v1.942l-2.9,1.916l-0.782,0.51l3.683,2.452
		V368.922z"/>
	<path fill="#FFFFFF" d="M59.562,355.414l1.397-0.229c0.094,0.445,0.141,0.844,0.141,1.195c0,0.574-0.091,1.02-0.272,1.336
		s-0.42,0.539-0.716,0.668s-0.918,0.193-1.868,0.193h-5.37v1.16h-1.23v-1.16h-2.312l-0.949-1.573h3.261v-1.591h1.23v1.591h5.458
		c0.451,0,0.741-0.027,0.87-0.084c0.129-0.055,0.231-0.146,0.308-0.271c0.076-0.127,0.114-0.307,0.114-0.541
		C59.624,355.932,59.603,355.701,59.562,355.414z"/>
	<path fill="#FFFFFF" d="M57.971,347.477l0.202-1.635c0.955,0.258,1.696,0.735,2.224,1.433s0.791,1.588,0.791,2.672
		c0,1.365-0.42,2.448-1.261,3.247c-0.841,0.801-2.02,1.2-3.538,1.2c-1.57,0-2.789-0.404-3.656-1.213s-1.301-1.857-1.301-3.146
		c0-1.248,0.425-2.268,1.274-3.059s2.045-1.187,3.586-1.187c0.094,0,0.234,0.003,0.422,0.009v6.961
		c1.025-0.059,1.811-0.349,2.355-0.87s0.817-1.172,0.817-1.951c0-0.58-0.152-1.075-0.457-1.485S58.639,347.717,57.971,347.477z
		 M55.414,352.671v-5.212c-0.785,0.07-1.374,0.27-1.767,0.598c-0.609,0.504-0.914,1.157-0.914,1.96c0,0.727,0.243,1.337,0.729,1.833
		C53.949,352.344,54.599,352.619,55.414,352.671z"/>
	<path fill="#FFFFFF" d="M60.977,343.874h-9.334v-1.424h1.415c-0.662-0.363-1.099-0.699-1.31-1.006
		c-0.211-0.309-0.316-0.646-0.316-1.016c0-0.533,0.17-1.075,0.51-1.626l1.468,0.545c-0.229,0.387-0.343,0.773-0.343,1.16
		c0,0.346,0.104,0.656,0.312,0.932s0.497,0.472,0.866,0.589c0.563,0.176,1.178,0.264,1.846,0.264h4.887V343.874z"/>
	<path fill="#FFFFFF" d="M60.977,337.862h-9.334v-1.424h1.327c-1.025-0.686-1.538-1.676-1.538-2.971c0-0.563,0.101-1.08,0.303-1.551
		c0.202-0.473,0.467-0.825,0.795-1.06s0.718-0.398,1.169-0.492c0.293-0.059,0.806-0.088,1.538-0.088h5.739v1.582h-5.678
		c-0.645,0-1.126,0.062-1.446,0.185s-0.574,0.342-0.765,0.654c-0.19,0.314-0.286,0.682-0.286,1.104c0,0.674,0.214,1.256,0.642,1.744
		c0.428,0.49,1.239,0.734,2.435,0.734h5.098V337.862z"/>
	<path fill="#FFFFFF" d="M59.826,321.76c0.498,0.586,0.85,1.15,1.055,1.691c0.205,0.543,0.308,1.124,0.308,1.745
		c0,1.025-0.25,1.813-0.751,2.364s-1.141,0.826-1.92,0.826c-0.457,0-0.875-0.104-1.252-0.313c-0.378-0.207-0.681-0.48-0.91-0.816
		c-0.229-0.338-0.401-0.717-0.519-1.139c-0.082-0.311-0.161-0.779-0.237-1.406c-0.152-1.277-0.334-2.218-0.545-2.821
		c-0.217-0.006-0.354-0.009-0.413-0.009c-0.645,0-1.099,0.149-1.362,0.448c-0.357,0.404-0.536,1.005-0.536,1.802
		c0,0.744,0.13,1.293,0.391,1.648c0.261,0.354,0.722,0.616,1.384,0.786l-0.211,1.547c-0.662-0.141-1.197-0.372-1.604-0.694
		s-0.721-0.788-0.94-1.397s-0.33-1.315-0.33-2.118c0-0.797,0.094-1.444,0.281-1.942s0.423-0.864,0.708-1.099
		s0.643-0.398,1.077-0.492c0.27-0.053,0.756-0.079,1.459-0.079h2.109c1.471,0,2.401-0.034,2.791-0.101
		c0.39-0.068,0.763-0.201,1.121-0.4v1.652C60.649,321.608,60.265,321.713,59.826,321.76z M56.292,321.892
		c0.234,0.574,0.434,1.436,0.598,2.584c0.094,0.65,0.199,1.11,0.316,1.38s0.289,0.478,0.514,0.624s0.476,0.22,0.751,0.22
		c0.422,0,0.773-0.16,1.055-0.479c0.281-0.32,0.422-0.787,0.422-1.402c0-0.609-0.133-1.151-0.4-1.626s-0.631-0.823-1.094-1.046
		c-0.357-0.17-0.885-0.255-1.582-0.255H56.292z"/>
	<path fill="#FFFFFF" d="M86.365,389.849c-1.102,0.873-2.391,1.611-3.867,2.215s-3.006,0.905-4.588,0.905
		c-1.395,0-2.73-0.226-4.008-0.677c-1.482-0.527-2.959-1.342-4.43-2.443v-1.134c1.219,0.709,2.089,1.178,2.61,1.406
		c0.809,0.357,1.652,0.639,2.531,0.844c1.096,0.252,2.197,0.378,3.305,0.378c2.818,0,5.634-0.876,8.446-2.628V389.849z"/>
	<path fill="#FFFFFF" d="M82.577,388.091l-12.885-4.948v-1.837l12.885-5.273v1.942l-3.902,1.503v5.388l3.902,1.415V388.091z
		 M77.286,384.374v-4.368l-3.568,1.345c-1.084,0.41-1.975,0.715-2.672,0.914c0.826,0.164,1.646,0.396,2.461,0.694L77.286,384.374z"
		/>
	<path fill="#FFFFFF" d="M82.577,374.873h-9.334v-1.415h1.31c-0.457-0.293-0.825-0.683-1.103-1.169s-0.417-1.04-0.417-1.661
		c0-0.691,0.144-1.258,0.431-1.701c0.287-0.441,0.688-0.754,1.204-0.936c-1.09-0.738-1.635-1.699-1.635-2.883
		c0-0.926,0.256-1.638,0.769-2.136s1.302-0.747,2.369-0.747h6.407v1.573h-5.88c-0.633,0-1.088,0.052-1.367,0.153
		c-0.278,0.104-0.502,0.289-0.672,0.559s-0.255,0.586-0.255,0.949c0,0.656,0.218,1.201,0.655,1.635s1.135,0.65,2.096,0.65h5.423
		v1.582h-6.064c-0.703,0-1.23,0.129-1.582,0.387s-0.527,0.68-0.527,1.266c0,0.445,0.117,0.857,0.352,1.234
		c0.234,0.379,0.577,0.652,1.028,0.822s1.102,0.255,1.951,0.255h4.843V374.873z"/>
	<path fill="#FFFFFF" d="M82.577,358.419v1.468H69.692v-1.582h4.597c-0.838-0.668-1.257-1.521-1.257-2.558
		c0-0.574,0.116-1.118,0.347-1.63c0.231-0.514,0.557-0.936,0.976-1.266c0.419-0.332,0.924-0.591,1.516-0.778
		s1.225-0.281,1.898-0.281c1.6,0,2.836,0.396,3.709,1.187s1.31,1.74,1.31,2.848c0,1.102-0.46,1.966-1.38,2.593H82.577z
		 M77.84,358.437c1.119,0,1.928-0.152,2.426-0.457c0.814-0.498,1.222-1.172,1.222-2.021c0-0.691-0.3-1.289-0.901-1.793
		s-1.496-0.756-2.685-0.756c-1.219,0-2.118,0.241-2.698,0.726c-0.58,0.482-0.87,1.067-0.87,1.753c0,0.691,0.3,1.289,0.901,1.793
		S76.703,358.437,77.84,358.437z"/>
	<path fill="#FFFFFF" d="M71.512,349.859h-1.819v-1.582h1.819V349.859z M82.577,349.859h-9.334v-1.582h9.334V349.859z"/>
	<path fill="#FFFFFF" d="M79.571,339.479l0.202-1.635c0.955,0.258,1.696,0.735,2.224,1.433s0.791,1.588,0.791,2.672
		c0,1.365-0.42,2.448-1.261,3.247c-0.841,0.801-2.02,1.2-3.538,1.2c-1.57,0-2.789-0.404-3.656-1.213s-1.301-1.857-1.301-3.146
		c0-1.248,0.425-2.268,1.274-3.059s2.045-1.187,3.586-1.187c0.094,0,0.234,0.003,0.422,0.009v6.961
		c1.025-0.059,1.811-0.349,2.355-0.87s0.817-1.172,0.817-1.951c0-0.58-0.152-1.075-0.457-1.485S80.239,339.719,79.571,339.479z
		 M77.014,344.673v-5.212c-0.785,0.07-1.374,0.27-1.767,0.598c-0.609,0.504-0.914,1.157-0.914,1.96c0,0.727,0.243,1.337,0.729,1.833
		C75.549,344.346,76.199,344.621,77.014,344.673z"/>
	<path fill="#FFFFFF" d="M82.577,335.858h-9.334v-1.424h1.327c-1.025-0.686-1.538-1.676-1.538-2.971c0-0.563,0.101-1.08,0.303-1.551
		c0.202-0.473,0.467-0.825,0.795-1.06s0.718-0.398,1.169-0.492c0.293-0.059,0.806-0.088,1.538-0.088h5.739v1.582h-5.678
		c-0.645,0-1.126,0.062-1.446,0.185s-0.574,0.342-0.765,0.654c-0.19,0.314-0.286,0.682-0.286,1.104c0,0.674,0.214,1.256,0.642,1.744
		c0.428,0.49,1.239,0.734,2.435,0.734h5.098V335.858z"/>
	<path fill="#FFFFFF" d="M81.162,322.393l1.397-0.229c0.094,0.445,0.141,0.844,0.141,1.195c0,0.574-0.091,1.02-0.272,1.336
		s-0.42,0.539-0.716,0.668s-0.918,0.193-1.868,0.193h-5.37v1.16h-1.23v-1.16h-2.312l-0.949-1.573h3.261v-1.591h1.23v1.591h5.458
		c0.451,0,0.741-0.028,0.87-0.083c0.129-0.057,0.231-0.146,0.308-0.273c0.076-0.125,0.114-0.306,0.114-0.54
		C81.224,322.912,81.203,322.68,81.162,322.393z"/>
	<path fill="#FFFFFF" d="M79.571,314.457l0.202-1.635c0.955,0.258,1.696,0.735,2.224,1.433s0.791,1.588,0.791,2.672
		c0,1.365-0.42,2.447-1.261,3.248c-0.841,0.799-2.02,1.199-3.538,1.199c-1.57,0-2.789-0.404-3.656-1.213s-1.301-1.857-1.301-3.146
		c0-1.248,0.425-2.268,1.274-3.059s2.045-1.187,3.586-1.187c0.094,0,0.234,0.003,0.422,0.009v6.961
		c1.025-0.059,1.811-0.349,2.355-0.87s0.817-1.172,0.817-1.951c0-0.58-0.152-1.075-0.457-1.485S80.239,314.697,79.571,314.457z
		 M77.014,319.651v-5.212c-0.785,0.07-1.374,0.27-1.767,0.598c-0.609,0.504-0.914,1.157-0.914,1.96c0,0.727,0.243,1.338,0.729,1.832
		C75.549,319.325,76.199,319.598,77.014,319.651z"/>
	<path fill="#FFFFFF" d="M86.365,309.798v1.134c-2.813-1.752-5.628-2.628-8.446-2.628c-1.102,0-2.194,0.126-3.278,0.378
		c-0.879,0.199-1.723,0.478-2.531,0.835c-0.527,0.229-1.406,0.7-2.637,1.415v-1.134c1.471-1.102,2.947-1.916,4.43-2.443
		c1.277-0.451,2.613-0.677,4.008-0.677c1.582,0,3.111,0.303,4.588,0.91C83.975,308.194,85.264,308.931,86.365,309.798z"/>
</g>
<g>
	<path fill="#FFFFFF" d="M60.977,209.625H48.092v-1.705h12.885V209.625z"/>
	<path fill="#FFFFFF" d="M60.977,205.117h-9.334v-1.424h1.327c-1.025-0.686-1.538-1.676-1.538-2.971c0-0.563,0.101-1.08,0.303-1.551
		s0.467-0.825,0.795-1.059s0.718-0.398,1.169-0.492c0.293-0.059,0.806-0.088,1.538-0.088h5.739v1.582h-5.678
		c-0.645,0-1.126,0.062-1.446,0.185s-0.574,0.341-0.765,0.655s-0.286,0.681-0.286,1.103c0,0.674,0.214,1.255,0.642,1.745
		s1.239,0.734,2.435,0.734h5.098V205.117z"/>
	<path fill="#FFFFFF" d="M59.562,191.652l1.397-0.229c0.094,0.445,0.141,0.844,0.141,1.195c0,0.574-0.091,1.02-0.272,1.336
		s-0.42,0.539-0.716,0.668s-0.918,0.193-1.868,0.193h-5.37v1.16h-1.23v-1.16h-2.312l-0.949-1.573h3.261v-1.591h1.23v1.591h5.458
		c0.451,0,0.741-0.028,0.87-0.083s0.231-0.146,0.308-0.272s0.114-0.306,0.114-0.541C59.624,192.17,59.603,191.939,59.562,191.652z"
		/>
	<path fill="#FFFFFF" d="M57.971,183.715l0.202-1.635c0.955,0.258,1.696,0.735,2.224,1.433s0.791,1.588,0.791,2.672
		c0,1.365-0.42,2.448-1.261,3.248s-2.02,1.2-3.538,1.2c-1.57,0-2.789-0.404-3.656-1.213s-1.301-1.857-1.301-3.146
		c0-1.248,0.425-2.268,1.274-3.059s2.045-1.187,3.586-1.187c0.094,0,0.234,0.003,0.422,0.009v6.961
		c1.025-0.059,1.811-0.349,2.355-0.87s0.817-1.172,0.817-1.951c0-0.58-0.152-1.075-0.457-1.485S58.639,183.956,57.971,183.715z
		 M55.414,188.91v-5.212c-0.785,0.07-1.374,0.27-1.767,0.598c-0.609,0.504-0.914,1.157-0.914,1.96c0,0.727,0.243,1.337,0.729,1.833
		S54.599,188.857,55.414,188.91z"/>
	<path fill="#FFFFFF" d="M60.977,180.112h-9.334v-1.424h1.415c-0.662-0.363-1.099-0.699-1.31-1.006s-0.316-0.646-0.316-1.015
		c0-0.533,0.17-1.075,0.51-1.626l1.468,0.545c-0.229,0.387-0.343,0.773-0.343,1.16c0,0.346,0.104,0.656,0.312,0.932
		s0.497,0.472,0.866,0.589c0.563,0.176,1.178,0.264,1.846,0.264h4.887V180.112z"/>
	<path fill="#FFFFFF" d="M60.977,174.1h-9.334v-1.424h1.327c-1.025-0.686-1.538-1.676-1.538-2.971c0-0.563,0.101-1.08,0.303-1.551
		s0.467-0.825,0.795-1.059s0.718-0.398,1.169-0.492c0.293-0.059,0.806-0.088,1.538-0.088h5.739v1.582h-5.678
		c-0.645,0-1.126,0.062-1.446,0.185s-0.574,0.341-0.765,0.655s-0.286,0.681-0.286,1.103c0,0.674,0.214,1.255,0.642,1.745
		s1.239,0.734,2.435,0.734h5.098V174.1z"/>
	<path fill="#FFFFFF" d="M59.826,157.999c0.498,0.586,0.85,1.15,1.055,1.692s0.308,1.124,0.308,1.745
		c0,1.025-0.25,1.813-0.751,2.364s-1.141,0.826-1.92,0.826c-0.457,0-0.875-0.104-1.252-0.312s-0.681-0.48-0.91-0.817
		s-0.401-0.716-0.519-1.138c-0.082-0.311-0.161-0.779-0.237-1.406c-0.152-1.277-0.334-2.218-0.545-2.821
		c-0.217-0.006-0.354-0.009-0.413-0.009c-0.645,0-1.099,0.149-1.362,0.448c-0.357,0.404-0.536,1.005-0.536,1.802
		c0,0.744,0.13,1.293,0.391,1.648s0.722,0.617,1.384,0.787l-0.211,1.547c-0.662-0.141-1.197-0.372-1.604-0.694
		s-0.721-0.788-0.94-1.397s-0.33-1.315-0.33-2.118c0-0.797,0.094-1.444,0.281-1.942s0.423-0.864,0.708-1.099
		s0.643-0.398,1.077-0.492c0.27-0.053,0.756-0.079,1.459-0.079h2.109c1.471,0,2.401-0.034,2.791-0.101s0.763-0.201,1.121-0.4v1.652
		C60.649,157.846,60.265,157.952,59.826,157.999z M56.292,158.13c0.234,0.574,0.434,1.436,0.598,2.584
		c0.094,0.65,0.199,1.11,0.316,1.38s0.289,0.478,0.514,0.624s0.476,0.22,0.751,0.22c0.422,0,0.773-0.16,1.055-0.479
		s0.422-0.787,0.422-1.402c0-0.609-0.133-1.151-0.4-1.626s-0.631-0.823-1.094-1.046c-0.357-0.17-0.885-0.255-1.582-0.255H56.292z"/>
	<path fill="#FFFFFF" d="M86.365,236.098c-1.102,0.873-2.391,1.611-3.867,2.215s-3.006,0.905-4.588,0.905
		c-1.395,0-2.73-0.226-4.008-0.677c-1.482-0.527-2.959-1.342-4.43-2.443v-1.134c1.219,0.709,2.089,1.178,2.61,1.406
		c0.809,0.357,1.652,0.639,2.531,0.844c1.096,0.252,2.197,0.378,3.305,0.378c2.818,0,5.634-0.876,8.446-2.628V236.098z"/>
	<path fill="#FFFFFF" d="M76.302,233.444c-2.139,0-3.813-0.574-5.023-1.723s-1.815-2.631-1.815-4.447
		c0-1.189,0.284-2.262,0.853-3.217s1.361-1.683,2.377-2.184s2.169-0.751,3.458-0.751c1.307,0,2.476,0.264,3.507,0.791
		s1.812,1.274,2.342,2.241s0.795,2.01,0.795,3.129c0,1.213-0.293,2.297-0.879,3.252s-1.386,1.679-2.399,2.171
		S77.433,233.444,76.302,233.444z M76.328,231.686c1.553,0,2.776-0.417,3.669-1.252s1.34-1.882,1.34-3.142
		c0-1.283-0.451-2.339-1.354-3.168s-2.183-1.244-3.841-1.244c-1.049,0-1.964,0.177-2.747,0.532s-1.389,0.873-1.819,1.556
		s-0.646,1.449-0.646,2.298c0,1.207,0.415,2.246,1.244,3.116S74.389,231.686,76.328,231.686z"/>
	<path fill="#FFFFFF" d="M82.577,219.144h-9.334v-1.424h1.415c-0.662-0.363-1.099-0.699-1.31-1.006s-0.316-0.646-0.316-1.015
		c0-0.533,0.17-1.075,0.51-1.626l1.468,0.545c-0.229,0.387-0.343,0.773-0.343,1.16c0,0.346,0.104,0.656,0.312,0.932
		s0.497,0.472,0.866,0.589c0.563,0.176,1.178,0.264,1.846,0.264h4.887V219.144z"/>
	<path fill="#FFFFFF" d="M83.351,213.422l0.229-1.538c0.475-0.064,0.82-0.243,1.037-0.536c0.293-0.393,0.439-0.929,0.439-1.608
		c0-0.732-0.146-1.298-0.439-1.696s-0.703-0.668-1.23-0.809c-0.322-0.082-0.999-0.12-2.03-0.114
		c0.814,0.691,1.222,1.553,1.222,2.584c0,1.283-0.463,2.276-1.389,2.979s-2.036,1.055-3.331,1.055c-0.891,0-1.712-0.161-2.465-0.483
		s-1.334-0.79-1.745-1.402s-0.615-1.332-0.615-2.158c0-1.102,0.445-2.01,1.336-2.725h-1.125v-1.459h8.068
		c1.453,0,2.483,0.148,3.089,0.444s1.085,0.765,1.437,1.406s0.527,1.431,0.527,2.369c0,1.113-0.25,2.013-0.751,2.698
		S84.358,213.446,83.351,213.422z M77.743,212.113c1.225,0,2.118-0.243,2.681-0.729s0.844-1.096,0.844-1.828
		c0-0.727-0.28-1.336-0.839-1.828s-1.437-0.738-2.632-0.738c-1.143,0-2.004,0.253-2.584,0.76s-0.87,1.118-0.87,1.833
		c0,0.703,0.286,1.301,0.857,1.793S76.618,212.113,77.743,212.113z"/>
	<path fill="#FFFFFF" d="M81.426,197.031c0.498,0.586,0.85,1.15,1.055,1.692s0.308,1.124,0.308,1.745
		c0,1.025-0.25,1.813-0.751,2.364s-1.141,0.826-1.92,0.826c-0.457,0-0.875-0.104-1.252-0.312s-0.681-0.48-0.91-0.817
		s-0.401-0.716-0.519-1.138c-0.082-0.311-0.161-0.779-0.237-1.406c-0.152-1.277-0.334-2.218-0.545-2.821
		c-0.217-0.006-0.354-0.009-0.413-0.009c-0.645,0-1.099,0.149-1.362,0.448c-0.357,0.404-0.536,1.005-0.536,1.802
		c0,0.744,0.13,1.293,0.391,1.648s0.722,0.617,1.384,0.787l-0.211,1.547c-0.662-0.141-1.197-0.372-1.604-0.694
		s-0.721-0.788-0.94-1.397s-0.33-1.315-0.33-2.118c0-0.797,0.094-1.444,0.281-1.942s0.423-0.864,0.708-1.099
		s0.643-0.398,1.077-0.492c0.27-0.053,0.756-0.079,1.459-0.079h2.109c1.471,0,2.401-0.034,2.791-0.101s0.763-0.201,1.121-0.4v1.652
		C82.249,196.878,81.865,196.984,81.426,197.031z M77.893,197.163c0.234,0.574,0.434,1.436,0.598,2.584
		c0.094,0.65,0.199,1.11,0.316,1.38s0.289,0.478,0.514,0.624s0.476,0.22,0.751,0.22c0.422,0,0.773-0.16,1.055-0.479
		s0.422-0.787,0.422-1.402c0-0.609-0.133-1.151-0.4-1.626s-0.631-0.823-1.094-1.046c-0.357-0.17-0.885-0.255-1.582-0.255H77.893z"/>
	<path fill="#FFFFFF" d="M82.577,193.111h-9.334v-1.424h1.327c-1.025-0.686-1.538-1.676-1.538-2.971c0-0.563,0.101-1.08,0.303-1.551
		s0.467-0.825,0.795-1.059s0.718-0.398,1.169-0.492c0.293-0.059,0.806-0.088,1.538-0.088h5.739v1.582h-5.678
		c-0.645,0-1.126,0.062-1.446,0.185s-0.574,0.341-0.765,0.655s-0.286,0.681-0.286,1.103c0,0.674,0.214,1.255,0.642,1.745
		s1.239,0.734,2.435,0.734h5.098V193.111z"/>
	<path fill="#FFFFFF" d="M71.512,183.091h-1.819v-1.582h1.819V183.091z M82.577,183.091h-9.334v-1.582h9.334V183.091z"/>
	<path fill="#FFFFFF" d="M82.577,179.936h-1.283l-6.82-5.941c0.035,0.674,0.053,1.269,0.053,1.784v3.806h-1.283v-7.629h1.046
		l5.924,5.054l1.081,0.976c-0.053-0.709-0.079-1.374-0.079-1.995v-4.315h1.362V179.936z"/>
	<path fill="#FFFFFF" d="M81.426,164.01c0.498,0.586,0.85,1.15,1.055,1.692s0.308,1.124,0.308,1.745c0,1.025-0.25,1.813-0.751,2.364
		s-1.141,0.826-1.92,0.826c-0.457,0-0.875-0.104-1.252-0.312s-0.681-0.48-0.91-0.817s-0.401-0.716-0.519-1.138
		c-0.082-0.311-0.161-0.779-0.237-1.406c-0.152-1.277-0.334-2.218-0.545-2.821c-0.217-0.006-0.354-0.009-0.413-0.009
		c-0.645,0-1.099,0.149-1.362,0.448c-0.357,0.404-0.536,1.005-0.536,1.802c0,0.744,0.13,1.293,0.391,1.648s0.722,0.617,1.384,0.787
		l-0.211,1.547c-0.662-0.141-1.197-0.372-1.604-0.694s-0.721-0.788-0.94-1.397s-0.33-1.315-0.33-2.118
		c0-0.797,0.094-1.444,0.281-1.942s0.423-0.864,0.708-1.099s0.643-0.398,1.077-0.492c0.27-0.053,0.756-0.079,1.459-0.079h2.109
		c1.471,0,2.401-0.034,2.791-0.101s0.763-0.201,1.121-0.4v1.652C82.249,163.858,81.865,163.963,81.426,164.01z M77.893,164.142
		c0.234,0.574,0.434,1.436,0.598,2.584c0.094,0.65,0.199,1.11,0.316,1.38s0.289,0.478,0.514,0.624s0.476,0.22,0.751,0.22
		c0.422,0,0.773-0.16,1.055-0.479s0.422-0.787,0.422-1.402c0-0.609-0.133-1.151-0.4-1.626s-0.631-0.823-1.094-1.046
		c-0.357-0.17-0.885-0.255-1.582-0.255H77.893z"/>
	<path fill="#FFFFFF" d="M79.158,154l0.202-1.556c1.072,0.17,1.912,0.605,2.518,1.305s0.91,1.56,0.91,2.58
		c0,1.277-0.417,2.304-1.252,3.081s-2.032,1.165-3.59,1.165c-1.008,0-1.89-0.167-2.646-0.501s-1.323-0.842-1.701-1.525
		s-0.567-1.425-0.567-2.228c0-1.014,0.256-1.843,0.769-2.487s1.241-1.058,2.184-1.239l0.237,1.538
		c-0.627,0.146-1.099,0.406-1.415,0.778s-0.475,0.822-0.475,1.349c0,0.797,0.286,1.444,0.857,1.942s1.475,0.747,2.711,0.747
		c1.254,0,2.165-0.24,2.733-0.721s0.853-1.107,0.853-1.881c0-0.621-0.19-1.14-0.571-1.556S79.949,154.111,79.158,154z
		 M83.755,157.665l-1.556-0.457v-1.178l0.94,0.29c0.059-0.498,0.212-0.873,0.461-1.125s0.526-0.378,0.831-0.378
		c0.439,0,0.828,0.211,1.165,0.633s0.505,1.058,0.505,1.907c0,0.48-0.035,0.902-0.105,1.266l-1.028-0.097
		c0.023-0.375,0.035-0.65,0.035-0.826c0-0.551-0.076-0.938-0.229-1.16c-0.117-0.17-0.261-0.255-0.431-0.255
		c-0.105,0-0.199,0.034-0.281,0.101s-0.152,0.192-0.211,0.374S83.761,157.243,83.755,157.665z"/>
	<path fill="#FFFFFF" d="M71.863,150.264c-0.609,0.006-1.096-0.161-1.459-0.501c-0.363-0.334-0.545-0.762-0.545-1.283
		c0-0.363,0.158-0.858,0.475-1.485c0.176-0.346,0.264-0.621,0.264-0.826c0-0.188-0.051-0.331-0.154-0.431s-0.306-0.17-0.611-0.211
		v-1.143c0.668,0.018,1.169,0.186,1.503,0.505s0.501,0.725,0.501,1.217c0,0.369-0.164,0.855-0.492,1.459
		c-0.211,0.393-0.316,0.68-0.316,0.861c0,0.199,0.07,0.36,0.211,0.483c0.141,0.129,0.349,0.19,0.624,0.185V150.264z M81.426,145
		c0.498,0.586,0.85,1.15,1.055,1.692s0.308,1.124,0.308,1.745c0,1.025-0.25,1.813-0.751,2.364s-1.141,0.826-1.92,0.826
		c-0.457,0-0.875-0.104-1.252-0.312s-0.681-0.48-0.91-0.817s-0.401-0.716-0.519-1.138c-0.082-0.311-0.161-0.779-0.237-1.406
		c-0.152-1.277-0.334-2.218-0.545-2.821c-0.217-0.006-0.354-0.009-0.413-0.009c-0.645,0-1.099,0.149-1.362,0.448
		c-0.357,0.404-0.536,1.005-0.536,1.802c0,0.744,0.13,1.293,0.391,1.648s0.722,0.617,1.384,0.787l-0.211,1.547
		c-0.662-0.141-1.197-0.372-1.604-0.694s-0.721-0.788-0.94-1.397s-0.33-1.315-0.33-2.118c0-0.797,0.094-1.444,0.281-1.942
		s0.423-0.864,0.708-1.099s0.643-0.398,1.077-0.492c0.27-0.053,0.756-0.079,1.459-0.079h2.109c1.471,0,2.401-0.034,2.791-0.101
		s0.763-0.201,1.121-0.4v1.652C82.249,144.847,81.865,144.953,81.426,145z M77.893,145.131c0.234,0.574,0.434,1.436,0.598,2.584
		c0.094,0.65,0.199,1.11,0.316,1.38s0.289,0.478,0.514,0.624s0.476,0.22,0.751,0.22c0.422,0,0.773-0.16,1.055-0.479
		s0.422-0.787,0.422-1.402c0-0.609-0.133-1.151-0.4-1.626s-0.631-0.823-1.094-1.046c-0.357-0.17-0.885-0.255-1.582-0.255H77.893z"/>
	<path fill="#FFFFFF" d="M77.91,141.668c-1.729,0-3.009-0.48-3.841-1.441c-0.691-0.803-1.037-1.781-1.037-2.936
		c0-1.283,0.42-2.332,1.261-3.146s2.002-1.222,3.485-1.222c1.201,0,2.146,0.18,2.834,0.541s1.223,0.885,1.604,1.573
		s0.571,1.44,0.571,2.254c0,1.307-0.419,2.363-1.257,3.168S79.486,141.668,77.91,141.668z M77.91,140.042
		c1.195,0,2.09-0.261,2.685-0.782s0.892-1.178,0.892-1.969c0-0.785-0.299-1.438-0.896-1.96s-1.509-0.782-2.733-0.782
		c-1.154,0-2.029,0.262-2.624,0.787s-0.892,1.176-0.892,1.956c0,0.791,0.296,1.447,0.888,1.969S76.715,140.042,77.91,140.042z"/>
	<path fill="#FFFFFF" d="M86.365,130.032v1.134c-2.813-1.752-5.628-2.628-8.446-2.628c-1.102,0-2.194,0.126-3.278,0.378
		c-0.879,0.199-1.723,0.478-2.531,0.835c-0.527,0.229-1.406,0.7-2.637,1.415v-1.134c1.471-1.102,2.947-1.916,4.43-2.443
		c1.277-0.451,2.613-0.677,4.008-0.677c1.582,0,3.111,0.303,4.588,0.91S85.264,129.165,86.365,130.032z"/>
</g>
<g>
</g>
<g>
</g>
<g>
</g>
<g>
</g>
<g>
</g>
<g>
</g>
</svg>
