<?xml version="1.0" encoding="utf-8"?>
<!-- Generator: Adobe Illustrator 16.0.0, SVG Export Plug-In . SVG Version: 6.00 Build 0)  -->
<!DOCTYPE svg PUBLIC "-//W3C//DTD SVG 1.1//EN" "http://www.w3.org/Graphics/SVG/1.1/DTD/svg11.dtd">
<svg version="1.1" id="Layer_1" xmlns="http://www.w3.org/2000/svg" xmlns:xlink="http://www.w3.org/1999/xlink" x="0px" y="0px"
	 width="940px" height="800px" viewBox="0 0 940 800" enable-background="new 0 0 940 800" xml:space="preserve">
<g>
	<polyline fill="none" stroke="#406FB5" stroke-width="5" stroke-miterlimit="10" points="152.388,308.207 141.275,308.207 
		141.275,160.829 152.388,160.829 	"/>
	<line fill="none" stroke="#406FB5" stroke-width="5" stroke-miterlimit="10" x1="128.5" y1="235.785" x2="141.275" y2="235.785"/>
</g>
<rect x="159.944" y="130.518" fill="#FFFFF0" width="199" height="208"/>
<path fill="#51BE7A" d="M358.944,130.518v208h-199v-208H358.944z M360.944,128.518h-203v212h203V128.518L360.944,128.518z"/>
<g>
	<rect x="187.382" y="167.252" fill="none" width="168.124" height="45.869"/>
	<text transform="matrix(1 0 0 1 187.3823 178.5361)"><tspan x="0" y="0" fill="#141414" font-family="'FuturaStd-Medium'" font-size="13">Contato com o cliente</tspan><tspan x="0" y="28" fill="#141414" font-family="'FuturaStd-Medium'" font-size="13">Autonomia do profssional</tspan></text>
</g>
<g>
	<rect x="31.302" y="199.794" fill="none" width="97.198" height="73.85"/>
	<text transform="matrix(1 0 0 1 31.3018 211.0786)"><tspan x="0" y="0" fill="#141414" font-family="'FuturaStd-Medium'" font-size="13">Incerteza</tspan><tspan x="0" y="28" fill="#141414" font-family="'FuturaStd-Medium'" font-size="13">Variabilidade</tspan><tspan x="0" y="56" fill="#141414" font-family="'FuturaStd-Medium'" font-size="13">Menor controle</tspan></text>
</g>
<text transform="matrix(1 0 0 1 212.9502 152.439)" fill="#51BE7A" font-family="'FuturaStd-Bold'" font-size="13">Alto grau de:</text>
<g>
	<rect x="187.382" y="257.167" fill="none" width="168.124" height="79.767"/>
	<text transform="matrix(1 0 0 1 187.3823 268.4517)"><tspan x="0" y="0" fill="#141414" font-family="'FuturaStd-Medium'" font-size="13">Pessoas</tspan><tspan x="0" y="28" fill="#141414" font-family="'FuturaStd-Medium'" font-size="13">Front Offce*</tspan><tspan x="0" y="56" fill="#141414" font-family="'FuturaStd-Medium'" font-size="13">Processos</tspan></text>
</g>
<text transform="matrix(1 0 0 1 221.1924 245.3545)" fill="#51BE7A" font-family="'FuturaStd-Bold'" font-size="13">Ênfase em:</text>
<g>
	<polyline fill="none" stroke="#406FB5" stroke-width="5" stroke-miterlimit="10" points="152.388,592.857 141.275,592.857 
		141.275,445.48 152.388,445.48 	"/>
	<line fill="none" stroke="#406FB5" stroke-width="5" stroke-miterlimit="10" x1="128.5" y1="520.436" x2="141.275" y2="520.436"/>
</g>
<rect x="159.944" y="415.17" fill="#FFFFF0" width="199" height="208"/>
<path fill="#51BE7A" d="M358.944,415.17v208h-199v-208H358.944z M360.944,413.17h-203v212h203V413.17L360.944,413.17z"/>
<g>
	<rect x="187.382" y="451.903" fill="none" width="168.124" height="45.101"/>
	<text transform="matrix(1 0 0 1 187.3823 463.1875)"><tspan x="0" y="0" fill="#141414" font-family="'FuturaStd-Medium'" font-size="13">Contato com o cliente</tspan><tspan x="0" y="28" fill="#141414" font-family="'FuturaStd-Medium'" font-size="13">Autonomia do profssional</tspan></text>
</g>
<g>
	<rect x="31.302" y="484.445" fill="none" width="97.198" height="73.851"/>
	<text transform="matrix(1 0 0 1 31.3018 495.7305)"><tspan x="0" y="0" fill="#141414" font-family="'FuturaStd-Medium'" font-size="13">Previsibilidade</tspan><tspan x="0" y="28" fill="#141414" font-family="'FuturaStd-Medium'" font-size="13">Padronização</tspan><tspan x="0" y="56" fill="#141414" font-family="'FuturaStd-Medium'" font-size="13">Maior controle</tspan></text>
</g>
<text transform="matrix(1 0 0 1 206.7754 437.0898)" fill="#51BE7A" font-family="'FuturaStd-Bold'" font-size="13">Baixo grau de:</text>
<g>
	<rect x="187.382" y="541.818" fill="none" width="168.124" height="79.768"/>
	<text transform="matrix(1 0 0 1 187.3823 553.1035)"><tspan x="0" y="0" fill="#141414" font-family="'FuturaStd-Medium'" font-size="13">Equipamentos</tspan><tspan x="0" y="28" fill="#141414" font-family="'FuturaStd-Medium'" font-size="13">Back Offce**</tspan><tspan x="0" y="56" fill="#141414" font-family="'FuturaStd-Medium'" font-size="13">Produto</tspan></text>
</g>
<text transform="matrix(1 0 0 1 221.1924 530.0059)" fill="#51BE7A" font-family="'FuturaStd-Bold'" font-size="13">Ênfase em:</text>
<line fill="none" stroke="#406FB5" stroke-width="5" stroke-miterlimit="10" x1="420.495" y1="626.154" x2="420.495" y2="129.811"/>
<polyline fill="none" stroke="#406FB5" stroke-width="5" stroke-miterlimit="10" points="404.537,144.476 420.495,128.518 
	436.453,144.476 "/>
<line fill="none" stroke="#406FB5" stroke-width="5" stroke-miterlimit="10" x1="420.495" y1="624.967" x2="916.839" y2="624.967"/>
<polyline fill="none" stroke="#406FB5" stroke-width="5" stroke-miterlimit="10" points="902.175,609.009 918.131,624.967 
	902.175,640.925 "/>
<circle fill="none" stroke="#406FB5" stroke-width="5" stroke-miterlimit="10" cx="549.67" cy="246.543" r="95.39"/>
<circle fill="none" stroke="#406FB5" stroke-width="5" stroke-miterlimit="10" cx="677.191" cy="370.771" r="95.39"/>
<circle fill="none" stroke="#406FB5" stroke-width="5" stroke-miterlimit="10" cx="801.565" cy="497.895" r="95.39"/>
<g>
	<rect x="495.523" y="223.238" fill="none" width="108.293" height="74.395"/>
	<text transform="matrix(1 0 0 1 517.2813 234.522)"><tspan x="0" y="0" fill="#141414" font-family="'FuturaStd-Medium'" font-size="13">Consultoria</tspan><tspan x="12.376" y="28" fill="#141414" font-family="'FuturaStd-Medium'" font-size="13">Bancos</tspan><tspan x="-16.094" y="56" fill="#141414" font-family="'FuturaStd-Medium'" font-size="13">Serviços médicos </tspan></text>
</g>
<text transform="matrix(1 0 0 1 474.0898 210.7212)" fill="#51BE7A" font-family="'FuturaStd-Bold'" font-size="13">Serviços Profssionais</text>
<g>
	<text transform="matrix(0 -1 1 0 402.5376 497.0039)" fill="#51A27A" font-family="'MyriadPro-Regular'" font-size="14">Grau de personalização do serviço</text>
</g>
<g>
	<text transform="matrix(1 0 0 1 443.5352 660.1055)" fill="#51A27A" font-family="'MyriadPro-Regular'" font-size="14">Número de clientes processados por uma unidade de tempo (ex.: dia)</text>
</g>
<g>
	<rect x="626.045" y="342.564" fill="none" width="108.293" height="108.598"/>
	<text transform="matrix(1 0 0 1 660.1777 353.8486)"><tspan x="0" y="0" fill="#141414" font-family="'FuturaStd-Medium'" font-size="13">Bancos</tspan><tspan x="-15.639" y="28" fill="#141414" font-family="'FuturaStd-Medium'" font-size="13">Restaurantes</tspan><tspan x="2.588" y="56" fill="#141414" font-family="'FuturaStd-Medium'" font-size="13">Hotéis</tspan><tspan x="0.975" y="84" fill="#141414" font-family="'FuturaStd-Medium'" font-size="13">Varejo</tspan></text>
</g>
<text transform="matrix(1 0 0 1 620.4316 330.0479)" fill="#51BE7A" font-family="'FuturaStd-Bold'" font-size="13">Lojas de Serviços</text>
<g>
	<rect x="740.731" y="478.516" fill="none" width="125.667" height="76.604"/>
	<text transform="matrix(1 0 0 1 740.7314 489.8008)"><tspan x="0" y="0" fill="#141414" font-family="'FuturaStd-Medium'" font-size="13">Transporte urbano</tspan><tspan x="0" y="28" fill="#141414" font-family="'FuturaStd-Medium'" font-size="13">Cartão de crédito</tspan><tspan x="0" y="56" fill="#141414" font-family="'FuturaStd-Medium'" font-size="13">Vendas pela internet</tspan></text>
</g>
<text transform="matrix(1 0 0 1 738.8721 465)" fill="#51BE7A" font-family="'FuturaStd-Bold'" font-size="13">Serviços de Massa</text>
<g>
	<circle fill="#39B373" cx="174.217" cy="173.45" r="6.5"/>
	<path fill="#21A765" d="M174.018,170.548v1.614l-2.732,1.974l5.281,5.338c1.627-0.701,2.688-1.611,3.307-3.28L174.018,170.548z"/>
	<polygon fill="#FFFFFF" points="177.196,173.329 174.415,170.548 174.415,172.181 171.483,172.181 171.483,173.282 
		171.483,174.136 174.415,174.136 174.415,176.112 	"/>
</g>
<g>
	<circle fill="#39B373" cx="174.217" cy="201.84" r="6.5"/>
	<path fill="#21A765" d="M174.018,198.938v1.614l-2.732,1.974l5.281,5.338c1.627-0.701,2.688-1.611,3.307-3.28L174.018,198.938z"/>
	<polygon fill="#FFFFFF" points="177.196,201.719 174.415,198.938 174.415,200.571 171.483,200.571 171.483,201.672 
		171.483,202.526 174.415,202.526 174.415,204.502 	"/>
</g>
<g>
	<circle fill="#39B373" cx="174.217" cy="263.667" r="6.5"/>
	<path fill="#21A765" d="M174.018,260.765v1.614l-2.732,1.974l5.281,5.338c1.627-0.701,2.688-1.611,3.307-3.28L174.018,260.765z"/>
	<polygon fill="#FFFFFF" points="177.196,263.546 174.415,260.765 174.415,262.398 171.483,262.398 171.483,263.5 171.483,264.353 
		174.415,264.353 174.415,266.33 	"/>
</g>
<g>
	<circle fill="#39B373" cx="174.217" cy="292.058" r="6.5"/>
	<path fill="#21A765" d="M174.018,289.155v1.614l-2.732,1.974l5.281,5.338c1.627-0.701,2.688-1.611,3.307-3.28L174.018,289.155z"/>
	<polygon fill="#FFFFFF" points="177.196,291.937 174.415,289.155 174.415,290.788 171.483,290.788 171.483,291.89 171.483,292.743 
		174.415,292.743 174.415,294.72 	"/>
</g>
<g>
	<circle fill="#39B373" cx="174.217" cy="319.453" r="6.5"/>
	<path fill="#21A765" d="M174.018,316.551v1.614l-2.732,1.974l5.281,5.338c1.627-0.701,2.688-1.611,3.307-3.28L174.018,316.551z"/>
	<polygon fill="#FFFFFF" points="177.196,319.332 174.415,316.551 174.415,318.184 171.483,318.184 171.483,319.285 
		171.483,320.139 174.415,320.139 174.415,322.115 	"/>
</g>
<g>
	<circle fill="#39B373" cx="20.399" cy="206.892" r="6.5"/>
	<path fill="#21A765" d="M20.2,203.99v1.614l-2.732,1.974l5.281,5.338c1.627-0.701,2.688-1.611,3.307-3.28L20.2,203.99z"/>
	<polygon fill="#FFFFFF" points="23.377,206.771 20.596,203.99 20.596,205.623 17.665,205.623 17.665,206.724 17.665,207.578 
		20.596,207.578 20.596,209.554 	"/>
</g>
<g>
	<circle fill="#39B373" cx="20.399" cy="235.282" r="6.5"/>
	<path fill="#21A765" d="M20.2,232.38v1.614l-2.732,1.974l5.281,5.338c1.627-0.701,2.688-1.611,3.307-3.28L20.2,232.38z"/>
	<polygon fill="#FFFFFF" points="23.377,235.161 20.596,232.38 20.596,234.013 17.665,234.013 17.665,235.114 17.665,235.968 
		20.596,235.968 20.596,237.944 	"/>
</g>
<g>
	<circle fill="#39B373" cx="20.399" cy="262.678" r="6.5"/>
	<path fill="#21A765" d="M20.2,259.775v1.614l-2.732,1.974l5.281,5.338c1.627-0.701,2.688-1.611,3.307-3.28L20.2,259.775z"/>
	<polygon fill="#FFFFFF" points="23.377,262.557 20.596,259.775 20.596,261.408 17.665,261.408 17.665,262.51 17.665,263.363 
		20.596,263.363 20.596,265.34 	"/>
</g>
<g>
	<circle fill="#39B373" cx="20.399" cy="491.276" r="6.5"/>
	<path fill="#21A765" d="M20.2,488.374v1.614l-2.732,1.974l5.281,5.338c1.627-0.701,2.688-1.611,3.307-3.28L20.2,488.374z"/>
	<polygon fill="#FFFFFF" points="23.377,491.155 20.596,488.374 20.596,490.007 17.665,490.007 17.665,491.108 17.665,491.962 
		20.596,491.962 20.596,493.938 	"/>
</g>
<g>
	<circle fill="#39B373" cx="20.399" cy="519.666" r="6.5"/>
	<path fill="#21A765" d="M20.2,516.764v1.615l-2.732,1.973l5.281,5.338c1.627-0.701,2.688-1.611,3.307-3.279L20.2,516.764z"/>
	<polygon fill="#FFFFFF" points="23.377,519.545 20.596,516.764 20.596,518.396 17.665,518.396 17.665,519.498 17.665,520.352 
		20.596,520.352 20.596,522.328 	"/>
</g>
<g>
	<circle fill="#39B373" cx="20.399" cy="547.063" r="6.5"/>
	<path fill="#21A765" d="M20.2,544.16v1.613l-2.732,1.975l5.281,5.338c1.627-0.701,2.688-1.611,3.307-3.281L20.2,544.16z"/>
	<polygon fill="#FFFFFF" points="23.377,546.941 20.596,544.16 20.596,545.793 17.665,545.793 17.665,546.895 17.665,547.748 
		20.596,547.748 20.596,549.725 	"/>
</g>
<g>
	<circle fill="#39B373" cx="174.217" cy="458.403" r="6.5"/>
	<path fill="#21A765" d="M174.018,455.501v1.614l-2.732,1.974l5.281,5.338c1.627-0.701,2.688-1.611,3.307-3.28L174.018,455.501z"/>
	<polygon fill="#FFFFFF" points="177.196,458.282 174.415,455.501 174.415,457.134 171.483,457.134 171.483,458.235 
		171.483,459.089 174.415,459.089 174.415,461.065 	"/>
</g>
<g>
	<circle fill="#39B373" cx="174.217" cy="486.793" r="6.5"/>
	<path fill="#21A765" d="M174.018,483.891v1.615l-2.732,1.973l5.281,5.338c1.627-0.701,2.688-1.611,3.307-3.279L174.018,483.891z"/>
	<polygon fill="#FFFFFF" points="177.196,486.672 174.415,483.891 174.415,485.523 171.483,485.523 171.483,486.625 
		171.483,487.479 174.415,487.479 174.415,489.455 	"/>
</g>
<g>
	<circle fill="#39B373" cx="174.217" cy="548.621" r="6.5"/>
	<path fill="#21A765" d="M174.018,545.719v1.613l-2.732,1.975l5.281,5.338c1.627-0.701,2.688-1.611,3.307-3.281L174.018,545.719z"/>
	<polygon fill="#FFFFFF" points="177.196,548.5 174.415,545.719 174.415,547.352 171.483,547.352 171.483,548.453 171.483,549.307 
		174.415,549.307 174.415,551.283 	"/>
</g>
<g>
	<circle fill="#39B373" cx="174.217" cy="577.011" r="6.5"/>
	<path fill="#21A765" d="M174.018,574.108v1.614l-2.732,1.974l5.281,5.338c1.627-0.701,2.688-1.611,3.307-3.28L174.018,574.108z"/>
	<polygon fill="#FFFFFF" points="177.196,576.89 174.415,574.108 174.415,575.741 171.483,575.741 171.483,576.843 171.483,577.696 
		174.415,577.696 174.415,579.673 	"/>
</g>
<g>
	<circle fill="#39B373" cx="174.217" cy="604.406" r="6.5"/>
	<path fill="#21A765" d="M174.018,601.504v1.614l-2.732,1.974l5.281,5.338c1.627-0.701,2.688-1.611,3.307-3.28L174.018,601.504z"/>
	<polygon fill="#FFFFFF" points="177.196,604.285 174.415,601.504 174.415,603.137 171.483,603.137 171.483,604.238 
		171.483,605.092 174.415,605.092 174.415,607.068 	"/>
</g>
</svg>
