<?xml version="1.0" encoding="utf-8"?>
<!-- Generator: Adobe Illustrator 16.0.0, SVG Export Plug-In . SVG Version: 6.00 Build 0)  -->
<!DOCTYPE svg PUBLIC "-//W3C//DTD SVG 1.1//EN" "http://www.w3.org/Graphics/SVG/1.1/DTD/svg11.dtd">
<svg version="1.1" id="Layer_1" xmlns="http://www.w3.org/2000/svg" xmlns:xlink="http://www.w3.org/1999/xlink" x="0px" y="0px"
	 width="940px" height="800px" viewBox="0 0 940 800" enable-background="new 0 0 940 800" xml:space="preserve">
<circle fill="#FFFFF0" stroke="#406FB5" stroke-width="4.4366" stroke-miterlimit="10" cx="476" cy="400" r="73.689"/>
<g>
	<rect x="413.167" y="400.451" fill="none" width="125.667" height="55.893"/>
	<text transform="matrix(1 0 0 1 422.3105 411.7363)"><tspan x="0" y="0" fill="#141414" font-family="'FuturaStd-Medium'" font-size="13">Principal gestor da </tspan><tspan x="17.504" y="15.6" fill="#141414" font-family="'FuturaStd-Medium'" font-size="13">organização</tspan><tspan x="36.081" y="43.6" fill="#141414" font-family="'FuturaStd-Medium'" font-size="13">PDCO</tspan></text>
</g>
<circle fill="none" stroke="#406FB5" stroke-width="5" stroke-miterlimit="10" cx="476" cy="400" r="210.279"/>
<g>
	<rect x="396.271" y="136.467" fill="#51A27A" width="159.458" height="79.949"/>
	<polygon fill="#51BE7A" points="396.271,162.648 396.271,136.648 418.271,136.648 	"/>
	<g>
		<text transform="matrix(1 0 0 1 439.0645 170.9248)"><tspan x="0" y="0" fill="#FFFFFF" font-family="'MyriadPro-Regular'" font-size="18">Finanças</tspan><tspan x="15.813" y="21.6" fill="#FFFFFF" font-family="'MyriadPro-Regular'" font-size="18">PDCO</tspan></text>
	</g>
</g>
<g>
	<rect x="396.271" y="584.584" fill="#51A27A" width="159.458" height="79.949"/>
	<polygon fill="#51BE7A" points="396.271,610.766 396.271,584.766 418.271,584.766 	"/>
	<g>
		<text transform="matrix(1 0 0 1 446.3096 619.042)"><tspan x="0" y="0" fill="#FFFFFF" font-family="'MyriadPro-Regular'" font-size="18">vendas</tspan><tspan x="8.568" y="21.601" fill="#FFFFFF" font-family="'MyriadPro-Regular'" font-size="18">PDCO</tspan></text>
	</g>
</g>
<g>
	<rect x="624.551" y="360.025" fill="#51A27A" width="129.458" height="79.949"/>
	<polygon fill="#51BE7A" points="624.83,386.207 624.83,360.207 646.83,360.207 	"/>
	<g>
		<text transform="matrix(1 0 0 1 649.3691 394.4834)"><tspan x="0" y="0" fill="#FFFFFF" font-family="'MyriadPro-Regular'" font-size="18">produção</tspan><tspan x="21.34" y="21.601" fill="#FFFFFF" font-family="'MyriadPro-Regular'" font-size="18">PDCO</tspan></text>
	</g>
</g>
<g>
	<rect x="199.855" y="359.025" fill="#51A27A" width="129.458" height="79.949"/>
	<polygon fill="#51BE7A" points="199.855,385.207 199.855,359.207 221.855,359.207 	"/>
	<g>
		<text transform="matrix(1 0 0 1 221.7632 393.4834)"><tspan x="0" y="0" fill="#FFFFFF" font-family="'MyriadPro-Regular'" font-size="18">Marketing</tspan><tspan x="21.699" y="21.601" fill="#FFFFFF" font-family="'MyriadPro-Regular'" font-size="18">PDCO</tspan></text>
	</g>
</g>
<text transform="matrix(1 0 0 1 456.1465 360.0254)"><tspan x="0" y="0" fill="#51A27A" font-family="'MyriadPro-Regular'" font-size="18">Você</tspan><tspan x="-40.5" y="21.6" fill="#51A27A" font-family="'MyriadPro-Regular'" font-size="18">empreendedor</tspan></text>
<g>
	<rect x="212.251" y="229.219" fill="#51A27A" width="159.458" height="79.949"/>
	<polygon fill="#51BE7A" points="212.251,255.4 212.251,229.4 234.251,229.4 	"/>
	<g>
		<text transform="matrix(1 0 0 1 248.0435 252.8765)"><tspan x="0" y="0" fill="#FFFFFF" font-family="'MyriadPro-Regular'" font-size="18">sistema de </tspan><tspan x="-6.58" y="21.6" fill="#FFFFFF" font-family="'MyriadPro-Regular'" font-size="18">informação</tspan><tspan x="22.814" y="43.2" fill="#FFFFFF" font-family="'MyriadPro-Regular'" font-size="18">PDCO</tspan></text>
	</g>
</g>
<g>
	<rect x="580.102" y="229.219" fill="#51A27A" width="159.458" height="79.949"/>
	<polygon fill="#51BE7A" points="580.102,255.4 580.102,229.4 602.102,229.4 	"/>
	<g>
		<text transform="matrix(1 0 0 1 620.123 252.8765)"><tspan x="0" y="0" fill="#FFFFFF" font-family="'MyriadPro-Regular'" font-size="18">Recursos </tspan><tspan x="0.604" y="21.6" fill="#FFFFFF" font-family="'MyriadPro-Regular'" font-size="18">Humanos</tspan><tspan x="18.586" y="43.2" fill="#FFFFFF" font-family="'MyriadPro-Regular'" font-size="18">PDCO</tspan></text>
	</g>
</g>
<g>
	<rect x="212.251" y="489.256" fill="#51A27A" width="159.458" height="79.951"/>
	<polygon fill="#51BE7A" points="212.251,515.438 212.251,489.438 234.251,489.438 	"/>
	<g>
		<text transform="matrix(1 0 0 1 254.208 523.7139)"><tspan x="0" y="0" fill="#FFFFFF" font-family="'MyriadPro-Regular'" font-size="18">logística</tspan><tspan x="16.65" y="21.601" fill="#FFFFFF" font-family="'MyriadPro-Regular'" font-size="18">PDCO</tspan></text>
	</g>
</g>
<g>
	<rect x="580.102" y="489.256" fill="#51A27A" width="159.458" height="79.951"/>
	<polygon fill="#51BE7A" points="580.102,515.438 580.102,489.438 602.102,489.438 	"/>
	<g>
		<text transform="matrix(1 0 0 1 623.4893 523.7139)"><tspan x="0" y="0" fill="#FFFFFF" font-family="'MyriadPro-Regular'" font-size="18">compras</tspan><tspan x="15.22" y="21.601" fill="#FFFFFF" font-family="'MyriadPro-Regular'" font-size="18">PDCO</tspan></text>
	</g>
</g>
<g>
	<g>
		
			<line fill="none" stroke="#406FB5" stroke-width="5" stroke-miterlimit="10" x1="481.101" y1="322.212" x2="564.698" y2="287.272"/>
		<polyline fill="none" stroke="#406FB5" stroke-width="5" stroke-miterlimit="10" points="550.304,280.642 565.569,286.909 
			559.304,302.175 		"/>
		<polyline fill="none" stroke="#406FB5" stroke-width="5" stroke-miterlimit="10" points="519.192,319.232 503.926,312.966 
			510.191,297.699 		"/>
	</g>
	<g>
		
			<line fill="none" stroke="#406FB5" stroke-width="5" stroke-miterlimit="10" x1="470.526" y1="322.212" x2="386.929" y2="287.272"/>
		<polyline fill="none" stroke="#406FB5" stroke-width="5" stroke-miterlimit="10" points="401.323,280.642 386.058,286.909 
			392.323,302.175 		"/>
		<polyline fill="none" stroke="#406FB5" stroke-width="5" stroke-miterlimit="10" points="432.435,319.232 447.702,312.966 
			441.436,297.699 		"/>
	</g>
	<g>
		
			<line fill="none" stroke="#406FB5" stroke-width="5" stroke-miterlimit="10" x1="475.59" y1="319.581" x2="475.351" y2="236.289"/>
		<polyline fill="none" stroke="#406FB5" stroke-width="5" stroke-miterlimit="10" points="487.048,246.982 475.35,235.345 
			463.71,247.043 		"/>
		<polyline fill="none" stroke="#406FB5" stroke-width="5" stroke-miterlimit="10" points="463.554,283.318 475.254,294.957 
			486.894,283.26 		"/>
	</g>
	<path fill="none" stroke="#406FB5" stroke-width="5" stroke-miterlimit="10" d="M467.98,326.952c0-4.429,3.591-8.02,8.02-8.02
		s8.021,3.591,8.021,8.02"/>
</g>
<g>
	<line fill="none" stroke="#406FB5" stroke-width="5" stroke-miterlimit="10" x1="402.129" y1="400.618" x2="337.85" y2="400.38"/>
	<polyline fill="none" stroke="#406FB5" stroke-width="5" stroke-miterlimit="10" points="348.543,412.077 336.905,400.377 
		348.603,388.738 	"/>
	<polyline fill="none" stroke="#406FB5" stroke-width="5" stroke-miterlimit="10" points="384.879,388.582 396.518,400.283 
		384.819,411.921 	"/>
</g>
<g>
	<line fill="none" stroke="#406FB5" stroke-width="5" stroke-miterlimit="10" x1="550.128" y1="400.618" x2="614.407" y2="400.38"/>
	<polyline fill="none" stroke="#406FB5" stroke-width="5" stroke-miterlimit="10" points="603.714,412.077 615.353,400.377 
		603.654,388.738 	"/>
	<polyline fill="none" stroke="#406FB5" stroke-width="5" stroke-miterlimit="10" points="567.379,388.582 555.74,400.283 
		567.438,411.921 	"/>
</g>
<g>
	<g>
		
			<line fill="none" stroke="#406FB5" stroke-width="5" stroke-miterlimit="10" x1="481.101" y1="478.091" x2="564.698" y2="513.028"/>
		<polyline fill="none" stroke="#406FB5" stroke-width="5" stroke-miterlimit="10" points="550.304,519.66 565.569,513.395 
			559.304,498.127 		"/>
		<polyline fill="none" stroke="#406FB5" stroke-width="5" stroke-miterlimit="10" points="519.192,481.07 503.926,487.338 
			510.191,502.604 		"/>
	</g>
	<g>
		
			<line fill="none" stroke="#406FB5" stroke-width="5" stroke-miterlimit="10" x1="470.526" y1="478.091" x2="386.929" y2="513.028"/>
		<polyline fill="none" stroke="#406FB5" stroke-width="5" stroke-miterlimit="10" points="401.323,519.66 386.058,513.395 
			392.323,498.127 		"/>
		<polyline fill="none" stroke="#406FB5" stroke-width="5" stroke-miterlimit="10" points="432.435,481.07 447.702,487.338 
			441.436,502.604 		"/>
	</g>
	<g>
		<line fill="none" stroke="#406FB5" stroke-width="5" stroke-miterlimit="10" x1="475.59" y1="480.72" x2="475.351" y2="564.012"/>
		<polyline fill="none" stroke="#406FB5" stroke-width="5" stroke-miterlimit="10" points="487.048,553.318 475.35,564.957 
			463.71,553.259 		"/>
		<polyline fill="none" stroke="#406FB5" stroke-width="5" stroke-miterlimit="10" points="463.554,516.982 475.254,505.344 
			486.894,517.043 		"/>
	</g>
	<path fill="none" stroke="#406FB5" stroke-width="5" stroke-miterlimit="10" d="M467.98,473.35c0,4.429,3.591,8.019,8.02,8.019
		s8.021-3.59,8.021-8.019"/>
</g>
<g>
	<rect x="15" y="166.9" fill="#FFFFF0" width="182.382" height="141"/>
	<path fill="#51BE7A" d="M198.382,166.543v141H16v-141H198.382z M200.382,164.543H14v145h186.382V164.543L200.382,164.543z"/>
	<g>
		<rect x="45.416" y="175.081" fill="none" width="139.966" height="127.819"/>
		<text transform="matrix(1 0 0 1 45.416 186.3652)"><tspan x="0" y="0" fill="#141414" font-family="'FuturaStd-Medium'" font-size="13">ERP</tspan><tspan x="0" y="37.6" fill="#141414" font-family="'FuturaStd-Medium'" font-size="13">Outros sistemas internos </tspan><tspan x="0" y="53.2" fill="#141414" font-family="'FuturaStd-Medium'" font-size="13">de apoio</tspan><tspan x="0" y="90.8" fill="#141414" font-family="'FuturaStd-Medium'" font-size="13">Colaboração eletrônica </tspan><tspan x="0" y="106.4" fill="#141414" font-family="'FuturaStd-Medium'" font-size="13">com sistemas externos </tspan></text>
	</g>
	<g>
		<circle fill="#39B373" cx="31.5" cy="181.221" r="6.5"/>
		<path fill="#21A765" d="M31.301,178.318v1.614l-2.732,1.974l5.281,5.338c1.627-0.701,2.688-1.611,3.307-3.28L31.301,178.318z"/>
		<polygon fill="#FFFFFF" points="34.479,181.1 31.697,178.318 31.697,179.951 28.766,179.951 28.766,181.053 28.766,181.906 
			31.697,181.906 31.697,183.883 		"/>
	</g>
	<g>
		<circle fill="#39B373" cx="31.5" cy="218.916" r="6.5"/>
		<path fill="#21A765" d="M31.301,216.014v1.614l-2.732,1.974l5.281,5.338c1.627-0.701,2.688-1.611,3.307-3.28L31.301,216.014z"/>
		<polygon fill="#FFFFFF" points="34.479,218.795 31.697,216.014 31.697,217.646 28.766,217.646 28.766,218.748 28.766,219.602 
			31.697,219.602 31.697,221.578 		"/>
	</g>
	<g>
		<circle fill="#39B373" cx="31.5" cy="274.272" r="6.5"/>
		<path fill="#21A765" d="M31.301,271.37v1.614l-2.732,1.974l5.281,5.338c1.627-0.701,2.688-1.611,3.307-3.28L31.301,271.37z"/>
		<polygon fill="#FFFFFF" points="34.479,274.151 31.697,271.37 31.697,273.003 28.766,273.003 28.766,274.104 28.766,274.958 
			31.697,274.958 31.697,276.935 		"/>
	</g>
</g>
<rect x="5" y="329.856" fill="#FFFFF0" width="182.382" height="141"/>
<path fill="#51BE7A" d="M189.382,329.499v141H7v-141H189.382z M191.382,327.499H5v145h186.382V327.499L191.382,327.499z"/>
<g>
	<rect x="36.416" y="338.037" fill="none" width="139.966" height="127.819"/>
	<text transform="matrix(1 0 0 1 36.416 349.3213)"><tspan x="0" y="0" fill="#141414" font-family="'FuturaStd-Medium'" font-size="13">Inteligência de mercado</tspan><tspan x="0" y="37.6" fill="#141414" font-family="'FuturaStd-Medium'" font-size="13">Promoções</tspan><tspan x="0" y="75.2" fill="#141414" font-family="'FuturaStd-Medium'" font-size="13">Previsões de venda</tspan><tspan x="0" y="112.8" fill="#141414" font-family="'FuturaStd-Medium'" font-size="13">Eventos etc.</tspan></text>
</g>
<g>
	<circle fill="#39B373" cx="22.5" cy="344.177" r="6.5"/>
	<path fill="#21A765" d="M22.301,341.274v1.614l-2.732,1.974l5.281,5.338c1.627-0.701,2.688-1.611,3.307-3.28L22.301,341.274z"/>
	<polygon fill="#FFFFFF" points="25.479,344.056 22.697,341.274 22.697,342.907 19.766,342.907 19.766,344.009 19.766,344.862 
		22.697,344.862 22.697,346.839 	"/>
</g>
<g>
	<circle fill="#39B373" cx="22.5" cy="381.565" r="6.5"/>
	<path fill="#21A765" d="M22.301,378.663v1.614l-2.732,1.974l5.281,5.338c1.627-0.701,2.688-1.611,3.307-3.28L22.301,378.663z"/>
	<polygon fill="#FFFFFF" points="25.479,381.444 22.697,378.663 22.697,380.296 19.766,380.296 19.766,381.397 19.766,382.251 
		22.697,382.251 22.697,384.228 	"/>
</g>
<g>
	<circle fill="#39B373" cx="22.5" cy="456.344" r="6.5"/>
	<path fill="#21A765" d="M22.301,453.441v1.614l-2.732,1.974l5.281,5.338c1.627-0.701,2.688-1.611,3.307-3.28L22.301,453.441z"/>
	<polygon fill="#FFFFFF" points="25.479,456.223 22.697,453.441 22.697,455.074 19.766,455.074 19.766,456.176 19.766,457.029 
		22.697,457.029 22.697,459.006 	"/>
</g>
<g>
	<circle fill="#39B373" cx="22.5" cy="418.955" r="6.5"/>
	<path fill="#21A765" d="M22.301,416.053v1.614l-2.732,1.974l5.281,5.338c1.627-0.701,2.688-1.611,3.307-3.28L22.301,416.053z"/>
	<polygon fill="#FFFFFF" points="25.479,418.834 22.697,416.053 22.697,417.686 19.766,417.686 19.766,418.787 19.766,419.641 
		22.697,419.641 22.697,421.617 	"/>
</g>
<rect x="377.335" y="23.74" fill="#FFFFF0" width="182.382" height="101"/>
<path fill="#51BE7A" d="M561.717,23.383v101H379.335v-101H561.717z M563.717,21.383H377.335v105h186.382V21.383L563.717,21.383z"/>
<g>
	<rect x="408.751" y="29.921" fill="none" width="139.966" height="89.254"/>
	<text transform="matrix(1 0 0 1 408.751 41.2051)"><tspan x="0" y="0" fill="#141414" font-family="'FuturaStd-Medium'" font-size="13">Contabilidade</tspan><tspan x="0" y="37.6" fill="#141414" font-family="'FuturaStd-Medium'" font-size="13">Controladoria</tspan><tspan x="0" y="75.2" fill="#141414" font-family="'FuturaStd-Medium'" font-size="13"> Custos etc.</tspan></text>
</g>
<g>
	<circle fill="#39B373" cx="394.835" cy="36.061" r="6.5"/>
	<path fill="#21A765" d="M394.636,33.158v1.614l-2.732,1.974l5.281,5.338c1.627-0.701,2.688-1.611,3.307-3.28L394.636,33.158z"/>
	<polygon fill="#FFFFFF" points="397.813,35.939 395.032,33.158 395.032,34.791 392.101,34.791 392.101,35.893 392.101,36.746 
		395.032,36.746 395.032,38.723 	"/>
</g>
<g>
	<circle fill="#39B373" cx="394.835" cy="73.756" r="6.5"/>
	<path fill="#21A765" d="M394.636,70.854v1.614l-2.732,1.974l5.281,5.338c1.627-0.701,2.688-1.611,3.307-3.28L394.636,70.854z"/>
	<polygon fill="#FFFFFF" points="397.813,73.635 395.032,70.854 395.032,72.486 392.101,72.486 392.101,73.588 392.101,74.441 
		395.032,74.441 395.032,76.418 	"/>
</g>
<g>
	<circle fill="#39B373" cx="394.835" cy="112.112" r="6.5"/>
	<path fill="#21A765" d="M394.636,109.21v1.614l-2.732,1.974l5.281,5.338c1.627-0.701,2.688-1.611,3.307-3.28L394.636,109.21z"/>
	<polygon fill="#FFFFFF" points="397.813,111.991 395.032,109.21 395.032,110.843 392.101,110.843 392.101,111.944 392.101,112.798 
		395.032,112.798 395.032,114.774 	"/>
</g>
<g>
	<rect x="364.809" y="679.207" fill="#FFFFF0" width="222.382" height="101"/>
	<path fill="#51BE7A" d="M587.19,678.85v101H364.809v-101H587.19z M589.19,676.85H362.809v105H589.19V676.85L589.19,676.85z"/>
	<g>
		<rect x="394.225" y="685.388" fill="none" width="192.966" height="89.254"/>
		<text transform="matrix(1 0 0 1 394.2246 696.6719)"><tspan x="0" y="0" fill="#141414" font-family="'FuturaStd-Medium'" font-size="13">Vendas de produtos A</tspan><tspan x="0" y="37.6" fill="#141414" font-family="'FuturaStd-Medium'" font-size="13">Vendas de produtos B</tspan><tspan x="0" y="75.199" fill="#141414" font-family="'FuturaStd-Medium'" font-size="13">Funções de apoio às vendas etc.</tspan></text>
	</g>
	<g>
		<circle fill="#39B373" cx="380.309" cy="691.527" r="6.5"/>
		<path fill="#21A765" d="M380.109,688.625v1.614l-2.732,1.974l5.281,5.338c1.627-0.701,2.688-1.611,3.307-3.28L380.109,688.625z"/>
		<polygon fill="#FFFFFF" points="383.287,691.406 380.506,688.625 380.506,690.258 377.574,690.258 377.574,691.359 
			377.574,692.213 380.506,692.213 380.506,694.189 		"/>
	</g>
	<g>
		<circle fill="#39B373" cx="380.309" cy="729.223" r="6.5"/>
		<path fill="#21A765" d="M380.109,726.32v1.614l-2.732,1.974l5.281,5.338c1.627-0.701,2.688-1.611,3.307-3.28L380.109,726.32z"/>
		<polygon fill="#FFFFFF" points="383.287,729.102 380.506,726.32 380.506,727.953 377.574,727.953 377.574,729.055 
			377.574,729.908 380.506,729.908 380.506,731.885 		"/>
	</g>
	<g>
		<circle fill="#39B373" cx="380.309" cy="767.579" r="6.5"/>
		<path fill="#21A765" d="M380.109,764.677v1.614l-2.732,1.974l5.281,5.338c1.627-0.701,2.688-1.611,3.307-3.28L380.109,764.677z"/>
		<polygon fill="#FFFFFF" points="383.287,767.458 380.506,764.677 380.506,766.31 377.574,766.31 377.574,767.411 377.574,768.265 
			380.506,768.265 380.506,770.241 		"/>
	</g>
</g>
<rect x="761.335" y="350.476" fill="#FFFFF0" width="172.665" height="101"/>
<path fill="#51BE7A" d="M936,350.118v101H763.335v-101H936z M938,348.118H761.335v105H938V348.118L938,348.118z"/>
<g>
	<rect x="792.751" y="356.656" fill="none" width="142.249" height="89.254"/>
	<text transform="matrix(1 0 0 1 792.751 367.9404)"><tspan x="0" y="0" fill="#141414" font-family="'FuturaStd-Medium'" font-size="13">Manutenção</tspan><tspan x="0" y="37.6" fill="#141414" font-family="'FuturaStd-Medium'" font-size="13">Segurança do trabalho</tspan><tspan x="0" y="75.2" fill="#141414" font-family="'FuturaStd-Medium'" font-size="13">PPCP etc.</tspan></text>
</g>
<g>
	<circle fill="#39B373" cx="778.835" cy="362.796" r="6.5"/>
	<path fill="#21A765" d="M778.636,359.894v1.614l-2.732,1.974l5.281,5.338c1.627-0.701,2.688-1.611,3.307-3.28L778.636,359.894z"/>
	<polygon fill="#FFFFFF" points="781.813,362.675 779.032,359.894 779.032,361.526 776.101,361.526 776.101,362.628 
		776.101,363.481 779.032,363.481 779.032,365.458 	"/>
</g>
<g>
	<circle fill="#39B373" cx="778.835" cy="400.491" r="6.5"/>
	<path fill="#21A765" d="M778.636,397.589v1.614l-2.732,1.974l5.281,5.338c1.627-0.701,2.688-1.611,3.307-3.28L778.636,397.589z"/>
	<polygon fill="#FFFFFF" points="781.813,400.37 779.032,397.589 779.032,399.222 776.101,399.222 776.101,400.323 776.101,401.177 
		779.032,401.177 779.032,403.153 	"/>
</g>
<g>
	<circle fill="#39B373" cx="778.835" cy="438.848" r="6.5"/>
	<path fill="#21A765" d="M778.636,435.945v1.614l-2.732,1.974l5.281,5.338c1.627-0.701,2.688-1.611,3.307-3.28L778.636,435.945z"/>
	<polygon fill="#FFFFFF" points="781.813,438.727 779.032,435.945 779.032,437.578 776.101,437.578 776.101,438.68 776.101,439.533 
		779.032,439.533 779.032,441.51 	"/>
</g>
<rect x="27.066" y="491.613" fill="#FFFFF0" width="172.665" height="101"/>
<path fill="#51BE7A" d="M201.731,491.256v101H29.066v-101H201.731z M203.731,489.256H27.066v105h176.665V489.256L203.731,489.256z"
	/>
<g>
	<rect x="58.482" y="497.794" fill="none" width="142.249" height="89.254"/>
	<text transform="matrix(1 0 0 1 58.4824 509.0781)"><tspan x="0" y="0" fill="#141414" font-family="'FuturaStd-Medium'" font-size="13">Gestão de estoques</tspan><tspan x="0" y="37.6" fill="#141414" font-family="'FuturaStd-Medium'" font-size="13">Carregamento</tspan><tspan x="0" y="75.199" fill="#141414" font-family="'FuturaStd-Medium'" font-size="13">Distribuição etc.</tspan></text>
</g>
<g>
	<circle fill="#39B373" cx="44.566" cy="503.934" r="6.5"/>
	<path fill="#21A765" d="M44.367,501.031v1.614l-2.732,1.974l5.281,5.338c1.627-0.701,2.688-1.611,3.307-3.28L44.367,501.031z"/>
	<polygon fill="#FFFFFF" points="47.545,503.813 44.764,501.031 44.764,502.664 41.832,502.664 41.832,503.766 41.832,504.619 
		44.764,504.619 44.764,506.596 	"/>
</g>
<g>
	<circle fill="#39B373" cx="44.566" cy="541.629" r="6.5"/>
	<path fill="#21A765" d="M44.367,538.727v1.614l-2.732,1.974l5.281,5.338c1.627-0.701,2.688-1.611,3.307-3.28L44.367,538.727z"/>
	<polygon fill="#FFFFFF" points="47.545,541.508 44.764,538.727 44.764,540.359 41.832,540.359 41.832,541.461 41.832,542.314 
		44.764,542.314 44.764,544.291 	"/>
</g>
<g>
	<circle fill="#39B373" cx="44.566" cy="579.985" r="6.5"/>
	<path fill="#21A765" d="M44.367,577.083v1.614l-2.732,1.974l5.281,5.338c1.627-0.701,2.688-1.611,3.307-3.28L44.367,577.083z"/>
	<polygon fill="#FFFFFF" points="47.545,579.864 44.764,577.083 44.764,578.716 41.832,578.716 41.832,579.817 41.832,580.671 
		44.764,580.671 44.764,582.647 	"/>
</g>
<rect x="751.996" y="491.366" fill="#FFFFF0" width="183.664" height="101"/>
<path fill="#51BE7A" d="M935.66,491.009v101H751.996v-101H935.66z M937.66,489.009H749.996v105H937.66V489.009L937.66,489.009z"/>
<g>
	<rect x="779.412" y="497.547" fill="none" width="152.588" height="89.501"/>
	<text transform="matrix(1 0 0 1 779.4121 508.8311)"><tspan x="0" y="0" fill="#141414" font-family="'FuturaStd-Medium'" font-size="13">Compras de         </tspan><tspan x="0" y="15.6" fill="#141414" font-family="'FuturaStd-Medium'" font-size="13">matérias-primas e insumos</tspan><tspan x="0" y="53.2" fill="#141414" font-family="'FuturaStd-Medium'" font-size="13">Compra de materiais </tspan><tspan x="0" y="68.8" fill="#141414" font-family="'FuturaStd-Medium'" font-size="13">não-produtivos etc.</tspan></text>
</g>
<g>
	<circle fill="#39B373" cx="765.496" cy="503.687" r="6.5"/>
	<path fill="#21A765" d="M765.297,500.784v1.614l-2.732,1.974l5.281,5.338c1.627-0.701,2.688-1.611,3.307-3.28L765.297,500.784z"/>
	<polygon fill="#FFFFFF" points="768.475,503.565 765.693,500.784 765.693,502.417 762.762,502.417 762.762,503.519 
		762.762,504.372 765.693,504.372 765.693,506.349 	"/>
</g>
<g>
	<circle fill="#39B373" cx="765.496" cy="556.738" r="6.5"/>
	<path fill="#21A765" d="M765.297,553.836v1.614l-2.732,1.974l5.281,5.338c1.627-0.701,2.688-1.611,3.307-3.28L765.297,553.836z"/>
	<polygon fill="#FFFFFF" points="768.475,556.617 765.693,553.836 765.693,555.469 762.762,555.469 762.762,556.57 762.762,557.424 
		765.693,557.424 765.693,559.4 	"/>
</g>
<g>
	<rect x="751.996" y="197.513" fill="#FFFFF0" width="183.382" height="111"/>
	<path fill="#51BE7A" d="M935.378,197.155v111H751.996v-111H935.378z M937.378,195.155H749.996v115h187.382V195.155L937.378,195.155
		z"/>
	<g>
		<rect x="776.412" y="201.693" fill="none" width="152.966" height="103.049"/>
		<text transform="matrix(1 0 0 1 776.4121 212.9775)"><tspan x="0" y="0" fill="#141414" font-family="'FuturaStd-Medium'" font-size="13">Pagadoria</tspan><tspan x="0" y="37.6" fill="#141414" font-family="'FuturaStd-Medium'" font-size="13">Treinamentos</tspan><tspan x="0" y="75.2" fill="#141414" font-family="'FuturaStd-Medium'" font-size="13">Contratações e promoções </tspan><tspan x="0" y="90.8" fill="#141414" font-family="'FuturaStd-Medium'" font-size="13">etc.</tspan></text>
	</g>
	<g>
		<circle fill="#39B373" cx="763.496" cy="207.833" r="6.5"/>
		<path fill="#21A765" d="M763.297,204.931v1.614l-2.732,1.974l5.281,5.338c1.627-0.701,2.688-1.611,3.307-3.28L763.297,204.931z"/>
		<polygon fill="#FFFFFF" points="766.475,207.712 763.693,204.931 763.693,206.563 760.762,206.563 760.762,207.665 
			760.762,208.519 763.693,208.519 763.693,210.495 		"/>
	</g>
	<g>
		<circle fill="#39B373" cx="763.496" cy="245.528" r="6.5"/>
		<path fill="#21A765" d="M763.297,242.626v1.614l-2.732,1.974l5.281,5.338c1.627-0.701,2.688-1.611,3.307-3.28L763.297,242.626z"/>
		<polygon fill="#FFFFFF" points="766.475,245.407 763.693,242.626 763.693,244.259 760.762,244.259 760.762,245.36 
			760.762,246.214 763.693,246.214 763.693,248.19 		"/>
	</g>
	<g>
		<circle fill="#39B373" cx="763.496" cy="283.885" r="6.5"/>
		<path fill="#21A765" d="M763.297,280.982v1.614l-2.732,1.974l5.281,5.338c1.627-0.701,2.688-1.611,3.307-3.28L763.297,280.982z"/>
		<polygon fill="#FFFFFF" points="766.475,283.764 763.693,280.982 763.693,282.615 760.762,282.615 760.762,283.717 
			760.762,284.57 763.693,284.57 763.693,286.547 		"/>
	</g>
</g>
</svg>
