<?xml version="1.0" encoding="utf-8"?>
<!-- Generator: Adobe Illustrator 16.0.0, SVG Export Plug-In . SVG Version: 6.00 Build 0)  -->
<!DOCTYPE svg PUBLIC "-//W3C//DTD SVG 1.1//EN" "http://www.w3.org/Graphics/SVG/1.1/DTD/svg11.dtd">
<svg version="1.1" id="Layer_1" xmlns="http://www.w3.org/2000/svg" xmlns:xlink="http://www.w3.org/1999/xlink" x="0px" y="0px"
	 width="206px" height="206.001px" viewBox="0 0 206 206.001" enable-background="new 0 0 206 206.001" xml:space="preserve">
<rect fill="#4170B5" width="206" height="206.001"/>
<polyline fill="none" stroke="#FFFFFC" stroke-width="4" stroke-miterlimit="10" points="174.149,85.161 185.523,96.533 
	174.154,107.903 "/>
<line fill="none" stroke="#FFFFFC" stroke-width="4" stroke-miterlimit="10" x1="183.867" y1="96.533" x2="36.189" y2="96.533"/>
<polyline fill="none" stroke="#FFFFFC" stroke-width="4" stroke-miterlimit="10" points="36.189,23.157 36.189,165.999 
	185.523,165.999 "/>
<g>
	<path fill="#FFFFFF" d="M110.274,83.326c-0.576,0.288-1.729,0.576-3.205,0.576c-3.421,0-5.996-2.161-5.996-6.14
		c0-3.799,2.575-6.374,6.338-6.374c1.513,0,2.467,0.324,2.881,0.54l-0.378,1.278c-0.595-0.288-1.44-0.504-2.448-0.504
		c-2.846,0-4.736,1.818-4.736,5.005c0,2.971,1.71,4.879,4.664,4.879c0.954,0,1.926-0.198,2.557-0.504L110.274,83.326z"/>
	<path fill="#FFFFFF" d="M112.233,71.586h6.536v1.314h-4.97v4.033h4.592v1.296h-4.592v5.492h-1.566V71.586z"/>
</g>
<g>
	<path fill="#FFFFFF" d="M102.072,193.838c-1.639-0.433-3.241-0.919-4.646-1.405c-0.252-0.09-0.504-0.18-0.738-0.18
		c-2.881-0.107-5.347-2.232-5.347-6.14c0-3.89,2.376-6.392,5.653-6.392c3.295,0,5.438,2.557,5.438,6.14
		c0,3.114-1.44,5.113-3.457,5.815v0.072c1.207,0.307,2.521,0.594,3.547,0.774L102.072,193.838z M100.776,185.934
		c0-2.431-1.26-4.934-3.835-4.934c-2.647,0-3.943,2.448-3.925,5.077c-0.018,2.575,1.404,4.897,3.853,4.897
		C99.372,190.975,100.776,188.706,100.776,185.934z"/>
	<path fill="#FFFFFF" d="M104.409,185.699c0-0.9-0.018-1.639-0.072-2.358h1.405l0.09,1.44h0.036c0.432-0.829,1.44-1.639,2.881-1.639
		c1.206,0,3.078,0.72,3.078,3.709v5.204h-1.584v-5.023c0-1.404-0.521-2.575-2.017-2.575c-1.044,0-1.854,0.738-2.124,1.62
		c-0.072,0.198-0.108,0.469-0.108,0.738v5.24h-1.585V185.699z"/>
	<path fill="#FFFFFF" d="M116.236,180.838v2.503h2.269v1.206h-2.269v4.699c0,1.081,0.306,1.692,1.188,1.692
		c0.414,0,0.72-0.054,0.918-0.107l0.072,1.188c-0.307,0.127-0.793,0.217-1.404,0.217c-0.738,0-1.333-0.234-1.711-0.666
		c-0.45-0.469-0.612-1.242-0.612-2.27v-4.753h-1.351v-1.206h1.351v-2.089L116.236,180.838z"/>
	<path fill="#FFFFFF" d="M119.853,191.119c0-0.667,0.45-1.135,1.08-1.135s1.063,0.468,1.063,1.135c0,0.647-0.414,1.134-1.081,1.134
		C120.285,192.253,119.853,191.767,119.853,191.119z"/>
</g>
<g>
	<path fill="#FFFFFF" d="M22.221,111.04c0.288,0.576,0.576,1.729,0.576,3.205c0,3.422-2.16,5.996-6.14,5.996
		c-3.799,0-6.374-2.574-6.374-6.338c0-1.512,0.324-2.467,0.54-2.881l1.279,0.379c-0.289,0.594-0.505,1.439-0.505,2.448
		c0,2.845,1.818,4.735,5.006,4.735c2.971,0,4.879-1.711,4.879-4.664c0-0.953-0.197-1.926-0.504-2.557L22.221,111.04z"/>
	<path fill="#FFFFFF" d="M20.241,102.059c0.9,0,1.692-0.018,2.377-0.072v1.405l-1.423,0.09v0.036
		c0.703,0.414,1.621,1.332,1.621,2.881c0,1.368-0.757,3.007-3.817,3.007h-5.096v-1.584h4.825c1.657,0,2.773-0.505,2.773-1.945
		c0-1.063-0.738-1.801-1.44-2.088c-0.234-0.09-0.522-0.144-0.811-0.144h-5.348v-1.584H20.241z"/>
	<path fill="#FFFFFF" d="M20.998,99.649c0.306-0.468,0.63-1.296,0.63-2.089c0-1.152-0.576-1.692-1.297-1.692
		c-0.756,0-1.17,0.45-1.603,1.621c-0.558,1.566-1.422,2.305-2.466,2.305c-1.405,0-2.558-1.134-2.558-3.007
		c0-0.882,0.253-1.656,0.541-2.143l1.152,0.396c-0.217,0.342-0.505,0.972-0.505,1.782c0,0.937,0.54,1.458,1.188,1.458
		c0.721,0,1.045-0.522,1.477-1.656c0.576-1.513,1.332-2.287,2.629-2.287c1.53,0,2.61,1.188,2.61,3.259
		c0,0.954-0.233,1.836-0.594,2.449L20.998,99.649z"/>
	<path fill="#FFFFFF" d="M11.4,90.396h2.503v-2.269h1.207v2.269h4.699c1.08,0,1.692-0.306,1.692-1.188
		c0-0.415-0.054-0.72-0.108-0.918l1.188-0.072c0.126,0.306,0.216,0.792,0.216,1.405c0,0.738-0.233,1.333-0.666,1.71
		c-0.468,0.45-1.242,0.612-2.269,0.612H15.11v1.35h-1.207v-1.35h-2.089L11.4,90.396z"/>
	<path fill="#FFFFFF" d="M18.188,78.569c3.224,0,4.628,2.233,4.628,4.34c0,2.358-1.729,4.177-4.483,4.177
		c-2.917,0-4.628-1.908-4.628-4.321C13.705,80.263,15.524,78.569,18.188,78.569z M18.279,85.483c1.908,0,3.349-1.098,3.349-2.646
		c0-1.513-1.423-2.646-3.385-2.646c-1.477,0-3.35,0.738-3.35,2.61C14.893,84.674,16.622,85.483,18.279,85.483z"/>
</g>
<g>
</g>
<g>
</g>
<g>
</g>
<g>
</g>
<g>
</g>
<g>
</g>
</svg>
